<?xml version="1.0" encoding="UTF-8" standalone="no"?>
<!-- Created with Inkscape (http://www.inkscape.org/) -->

<svg
   version="1.1"
   id="svg1"
   width="558.53564"
   height="101.03297"
   viewBox="0 0 558.53564 101.03297"
   xmlns="http://www.w3.org/2000/svg"
   xmlns:svg="http://www.w3.org/2000/svg">
  <defs
     id="defs1" />
  <g
     id="g1"
     transform="translate(116.90982,112.56275)">
    <path
       style="fill:#000000"
       d="m 136.32828,-12.390285 c -0.36508,-0.590717 -0.40355,-3.22626 -0.0855,-5.856764 0.31807,-2.630505 0.19064,-6.132736 -0.28316,-7.782736 -0.70471,-2.454147 -1.39422,-3 -3.78951,-3 -2.89332,0 -2.93158,0.07413 -3.22577,6.25 -0.22202,4.660953 -0.66695,6.25 -1.75,6.25 -1.14867,0 -1.45227,-1.67238 -1.45227,-8 v -8 h 4.84501 c 6.88813,0 8.15897,1.729705 8.13968,11.078741 -0.0151,7.33607 -1.04947,11.243489 -2.39848,9.060759 z m 121.20272,-7.8895 -0.28893,-8.75 h -3 c -2.98158,0 -3.00183,0.03838 -3.29772,6.25 -0.20742,4.354507 -0.69741,6.25 -1.61563,6.25 -0.92089,0 -1.47674,-2.1841 -1.84513,-7.25 -0.28997,-3.9875 -0.32388,-7.5875 -0.0753,-8 0.24847,-0.4125 2.45026,-0.75 4.8928,-0.75 5.07433,0 8.44098,2.533991 8.44098,6.353309 0,5.313022 -1.34048,14.646691 -2.10352,14.646691 -0.45024,0 -0.94863,-3.9375 -1.10755,-8.75 z m 15.19187,6.714123 c -0.59926,-1.119732 -2.43124,-2.304211 -4.07106,-2.632175 -3.8229,-0.76458 -5.90974,-3.785318 -5.90974,-8.554454 0,-4.643066 2.8118,-7.777494 6.97695,-7.777494 3.44036,0 7.12388,4.299167 5.27104,6.15201 -0.73242,0.732422 -1.24181,0.442813 -1.68672,-0.958966 -1.27445,-4.015448 -6.13671,-3.732818 -7.17831,0.417257 -1.04749,4.173547 0.32821,7.16735 3.62638,7.891751 3.65458,0.80268 5.99066,2.974481 5.99066,5.569377 0,2.524621 -1.64187,2.466271 -3.0192,-0.107306 z m 52.67234,0.546163 c -3.31575,-3.315754 -2.92972,-10.090852 0.78672,-13.807289 1.47648,-1.476478 1.4403,-1.696764 -0.44426,-2.705351 -1.12839,-0.603896 -1.79055,-1.520413 -1.47146,-2.036704 0.3303,-0.534432 1.65391,-0.235161 3.07334,0.694889 2.12184,1.39028 2.85859,1.438049 4.94635,0.320712 1.34924,-0.722089 2.71738,-1.048671 3.04031,-0.725737 0.32293,0.322935 -0.35265,1.090122 -1.50131,1.704863 -2.07776,1.111986 -2.07852,1.1316 -0.1473,3.83102 2.85351,3.988573 3.08972,10.045206 0.49304,12.641882 -1.98733,1.987339 -6.82476,2.032379 -8.77543,0.08171 z m 8.34686,-6.890482 c 0,-2.087508 -0.77196,-4.008439 -2.09032,-5.201541 -2.05122,-1.856331 -2.11668,-1.855655 -3.5,0.03614 -3.21791,4.400755 -0.41303,11.68812 3.65977,9.508429 1.31044,-0.701327 1.93055,-2.096342 1.93055,-4.343028 z m 20.21413,-1.708357 c 0.21546,-7.724766 0.63198,-10.363866 1.69116,-10.715329 1.13233,-0.375736 1.28967,0.509952 0.81003,4.559749 -0.70709,5.970265 0.70526,8.60225 4.34071,8.089103 2.25933,-0.318908 2.46659,-0.822198 2.74342,-6.661819 0.43871,-9.254446 2.61798,-7.690889 2.99261,2.147103 l 0.29207,7.669746 h -4.47251 c -3.87034,0 -4.51554,0.301563 -4.79207,2.239784 -0.17575,1.231882 -1.12319,2.392986 -2.10542,2.580236 -1.6351,0.3117 -1.76173,-0.52481 -1.5,-9.908573 z m -250.21413,5.390186 c -2.81005,-0.996071 -3.999997,-3.676968 -3.999997,-9.011815 0,-5.183773 -0.0676,-5.310946 -2.5,-4.700462 -1.89052,0.47449 -2.5,0.235343 -2.5,-0.980948 0,-1.120453 0.91013,-1.608408 3,-1.608408 1.88928,0 2.999997,-0.512779 2.999997,-1.38499 0,-1.425296 4.12265,-4.61501 5.96482,-4.61501 0.56935,0 1.03518,0.891427 1.03518,1.980948 0,1.288283 -0.88976,2.204263 -2.54461,2.619605 -2.42371,0.608311 -2.53062,0.929945 -2.25,6.769052 0.25332,5.271246 0.61352,6.270278 2.57015,7.12852 3.6474,1.59987 1.99482,5.139977 -1.77554,3.803508 z m 120.66913,-1.347256 c -2.28741,-1.799279 -2.66913,-2.851323 -2.66913,-7.356358 0,-4.580552 -0.25202,-5.246606 -1.95906,-5.17742 -3.67497,0.148947 -2.55398,-1.91952 1.20906,-2.230964 l 3.75,-0.310366 v 4.626107 c 0,5.276187 1.36719,8.494624 3.60851,8.494624 1.71357,0 1.55394,3.113737 -0.18938,3.694091 -0.59448,0.197903 -2.28198,-0.584969 -3.75,-1.739714 z M 81.298773,-18.752291 c -3.64268,-5.200664 -0.88579,-13.777494 4.42858,-13.777494 1.57952,0 3.57901,0.707143 4.44329,1.571429 1.75976,1.759759 2.10412,4.428571 0.57143,4.428571 -0.55,0 -1,-0.644676 -1,-1.432612 0,-1.965738 -3.76946,-3.003607 -5.54799,-1.527562 -2.48438,2.061858 -1.71406,3.960174 1.60701,3.960174 1.7847,0 2.80156,0.416577 2.44098,1 -0.33992,0.55 -1.75398,1 -3.14235,1 -2.80703,0 -2.78433,1.728945 0.045,3.428557 1.43321,0.860942 2.08399,0.629396 3.31245,-1.178557 1.84813,-2.719905 4.2849,-2.950217 4.2849,-0.404988 0,4.890137 -8.53935,7.078447 -11.4433,2.932482 z m 30.877167,-0.252717 c -2.33444,-2.334435 -2.58506,-3.187579 -2.01103,-6.845777 0.39478,-2.515838 1.50455,-4.829332 2.78851,-5.813079 l 2.13275,-1.634079 -2.17205,-1.356468 c -3.43317,-2.144049 -2.58674,-2.875374 3.32795,-2.875374 3.025,0 5.5,0.45 5.5,1 0,0.55 -1.2375,1.00499 -2.75,1.011089 l -2.75,0.01109 3.25,2.561388 c 2.84869,2.245108 3.25,3.146239 3.25,7.297781 0,5.445837 -1.37662,7.738497 -5.19968,8.659697 -2.11233,0.508984 -3.27986,0.07032 -5.36645,-2.016268 z m 7.06613,-6.524777 c 0,-3.863753 -0.30856,-4.543927 -2.18234,-4.810684 -2.43509,-0.346668 -4.6269,2.663546 -3.81407,5.238242 0.27302,0.864843 0.7194,2.279004 0.99194,3.142579 0.30342,0.961416 1.36956,1.446024 2.75,1.25 1.95787,-0.27802 2.25447,-0.91216 2.25447,-4.820137 z m 37.5,0.0026 c 0,-8.052225 0.20926,-9.035769 2.22251,-10.4459 3.04545,-2.133116 6.1103,-1.951425 8.32283,0.493396 1.53515,1.696321 1.66998,2.541104 0.78133,4.895409 -0.62073,1.644509 -0.71174,3.416986 -0.21564,4.199901 1.38857,2.191355 1.01436,6.505638 -0.68673,7.917418 -0.86664,0.719245 -3.56664,1.425 -6,1.568345 l -4.4243,0.260631 z m 9.5,2.483701 c 0,-2.514412 -0.43455,-3.036306 -2.75,-3.302727 -2.45614,-0.28261 -2.75,0.0023 -2.75,2.666666 0,3.004082 1.23252,4.180713 4,3.818622 0.95466,-0.124905 1.5,-1.281959 1.5,-3.182561 z m -0.65161,-6.371445 c 1.95938,-1.24171 0.98133,-4.564585 -1.44611,-4.913117 -2.48083,-0.356198 -4.85972,2.163805 -4.04554,4.285522 0.6361,1.657646 3.37276,1.970396 5.49165,0.627595 z m 7.87961,11.122323 c -0.85732,-0.95545 -1.87156,-3.422703 -2.25385,-5.482783 -0.61944,-3.337982 -0.35658,-4.061805 2.41538,-6.65121 1.71076,-1.598081 3.11047,-3.348307 3.11047,-3.889386 0,-1.114053 4.38783,-4.2138 5.96482,-4.2138 2.30654,0 0.93475,3.870015 -1.71482,4.837719 l -2.75,1.004386 2.75,0.07895 c 2.67366,0.07676 2.74962,0.238573 2.73635,5.828947 -0.0211,8.876996 -0.52227,9.903948 -4.91749,10.07617 -2.47369,0.09693 -4.32133,-0.452774 -5.34086,-1.588987 z m 5.772,-5.237179 c 0,-3.982216 -0.27465,-4.538833 -2.38691,-4.837492 -2.73191,-0.386273 -4.07573,1.216528 -4.09778,4.887492 -0.019,3.1639 1.82547,5.117774 4.47301,4.738321 1.67483,-0.240043 2.01168,-1.041828 2.01168,-4.788321 z m 8.16667,6.333333 c -1.26512,-1.265114 -0.74598,-15.092815 0.58333,-15.537647 0.6875,-0.230061 3.63063,-0.233552 6.54028,-0.0078 l 5.29028,0.410533 -0.29028,7.408095 c -0.35674,9.104124 -2.17753,10.260377 -2.588,1.643445 l -0.29771,-6.249959 h -3.45229 -3.45228 v 6.5 c 0,5.994897 -0.62051,7.546161 -2.33333,5.833333 z m 20.89003,-1.555839 c -0.88157,-1.258626 -1.5567,-4.294462 -1.5567,-7 0,-4.110827 -0.27909,-4.777494 -2,-4.777494 -1.1,0 -2,-0.45 -2,-1 0,-0.55 2.25,-1 5,-1 2.75,0 5.3375,-0.02377 5.75,-0.05282 0.4125,-0.02905 0.8955,0.645948 1.07332,1.5 0.20998,1.008422 -0.40355,1.55282 -1.75,1.55282 -1.78593,0 -2.07332,0.614413 -2.07332,4.432612 0,3.554354 0.39627,4.558384 2,5.067388 1.1,0.349126 2,1.279451 2,2.067388 0,2.285507 -4.69209,1.710296 -6.4433,-0.789894 z m 25.3272,0.106409 c -1.68449,-1.684497 -2.00772,-2.924091 -1.58474,-6.077616 0.72198,-5.38277 3.12026,-7.806287 7.72499,-7.806287 3.51507,0 3.74739,0.201021 4.334,3.75 1.01442,6.137204 0.74861,8.143235 -1.35815,10.25 -2.59601,2.596009 -6.45311,2.546887 -9.1161,-0.116097 z m 7.6161,-6.883903 c 0,-4.130167 -0.21895,-4.525324 -2.66416,-4.808139 -3.1492,-0.36424 -4.3594,2.14791 -3.31827,6.888146 0.56367,2.566376 1.07706,2.987574 3.32452,2.727529 2.43789,-0.282078 2.65791,-0.680047 2.65791,-4.807536 z m 53.7,7.8 c -1.25091,-1.250908 -1.70857,-15.311103 -0.59301,-18.218213 0.76749,-2.000061 4.75386,-2.056838 6.38541,-0.09095 0.7001,0.843576 1.02233,2.905841 0.74217,4.75 -0.59052,3.887228 0.85673,7.129969 2.84212,6.368103 1.61112,-0.618245 1.95797,0.942583 0.42061,1.892727 -0.67028,0.414252 -0.67028,1.24086 0,2.493276 1.36395,2.548568 1.26037,3.46379 -0.25013,2.210182 -0.88421,-0.733828 -1.82315,-0.622738 -3.19113,0.377555 -2.37028,1.733195 -4.75851,1.814849 -6.35604,0.21732 z m 4.93908,-3.425867 c 1.36647,-1.236636 1.55645,-2.074531 0.79356,-3.5 -1.71428,-3.203154 -3.93264,-2.286018 -3.93264,1.625867 0,3.915609 0.53219,4.233341 3.13908,1.874133 z m -1.13908,-10.43315 c 0,-1.784701 -0.41658,-2.801558 -1,-2.440983 -0.55,0.339919 -1,1.716476 -1,3.059017 0,1.342541 0.45,2.440983 1,2.440983 0.55,0 1,-1.376558 1,-3.059017 z m 41.67584,13.253317 c -1.06184,-1.173318 -1.67584,-3.55481 -1.67584,-6.499988 0,-3.854603 0.42683,-4.927878 2.5,-6.286269 1.375,-0.900935 2.5,-2.209554 2.5,-2.908043 0,-1.2942 4.17312,-4.5 5.85783,-4.5 0.5105,0 1.19635,0.698819 1.52411,1.55293 0.41521,1.082027 -0.38624,1.979863 -2.64301,2.960858 -3.18147,1.382953 -2.99498,1.898021 0.5544,1.531168 1.60919,-0.166322 1.76321,0.616641 1.5,7.625586 l -0.29333,7.810939 -4.07416,0.2823 c -2.95259,0.204587 -4.5355,-0.227474 -5.75,-1.569481 z m 5.82416,-5.1943 c 0,-4.127489 -0.22002,-4.525458 -2.65791,-4.807536 -2.24138,-0.259342 -2.76112,0.162419 -3.31657,2.691348 -0.87454,3.98173 0.95863,7.33026 3.79214,6.926872 1.87378,-0.266757 2.18234,-0.946931 2.18234,-4.810684 z m 25.01706,5.636132 c -2.72841,-1.99506 -2.7815,-11.235687 -0.0759,-13.215617 4.05962,-2.97082 8.87169,-1.006655 10.16578,4.149412 1.84062,7.333638 -4.57524,13.09859 -10.08985,9.066205 z m 5.28294,-1.836132 c 1.72195,-1.721946 1.47956,-7.323095 -0.38382,-8.869567 -3.74049,-3.104326 -7.4383,4.904594 -3.89875,8.444135 1.94073,1.940737 2.69258,2.015425 4.28257,0.425432 z m 10.5997,2.434687 c -3.42406,-2.286311 -5.03867,-15.234687 -1.8997,-15.234687 0.825,0 1.52799,0.3375 1.56219,0.75 0.85996,10.371082 1.38623,12.25 3.43118,12.25 1.88884,0 3.50663,-3.924294 3.50663,-8.506083 0,-1.856736 0.45,-3.653998 1,-3.993917 0.6275,-0.387819 1,1.804048 1,5.884279 0,5.585688 -0.3133,6.72176 -2.22251,8.059017 -2.3999,1.680961 -4.63093,1.957799 -6.37779,0.791391 z m -478.399697,-4.190767 c -3.666642,-0.605837 -2.555497,-0.793258 6,-1.012041 13.325063,-0.340752 16.599151,-1.024487 16.190809,-3.381162 -0.258851,-1.493912 0.01537,-1.610742 1.684259,-0.717579 2.953805,1.580829 3.609659,1.330077 3.769605,-1.441228 0.291684,-5.053863 -6.74528,-4.087627 -16.619598,2.282016 l -3.525075,2.273926 3.877071,-3.489747 c 2.132388,-1.919361 5.901822,-4.263007 8.37652,-5.208102 3.967793,-1.515314 4.797768,-1.548893 7.024146,-0.284179 1.388583,0.788797 3.019149,2.248942 3.62348,3.244768 1.564933,2.578722 -2.923313,6.260181 -8.55888,7.020373 -8.559351,1.154587 -17.419235,1.443783 -21.842337,0.712955 z m -14.929673,-3.853811 c -1.48018,-0.493392 4.15562,-3.190109 6.666928,-3.190109 1.173326,0 1.251967,0.30806 0.35465,1.389261 -1.287308,1.55111 -4.951498,2.490876 -7.021578,1.800848 z m 69.929673,-3.348511 c -1.473417,-0.608008 -6.606332,-0.812853 -12.5,-0.498852 l -10,0.532779 7,-1.48163 c 6.563801,-1.389304 11.294955,-1.335053 19.392048,0.222364 2.629229,0.505713 3.212496,0.361914 2.593629,-0.639435 -0.589167,-0.953291 -0.233268,-1.14408 1.357951,-0.727967 3.215629,0.840906 2.707039,-1.720559 -0.843628,-4.248857 -5.645039,-4.019622 -3.548147,-6.565386 7,-8.498455 9.27317,-1.699415 15.9508397,-4.651717 18.8282897,-8.324284 1.58463,-2.022493 2.65781001,-4.318392 2.38484,-5.101997 -0.27296,-0.783604 -2.17075,-3.033604 -4.21733,-5 -3.16288,-3.038977 -3.98352,-4.775257 -5.4709197,-11.575264 -0.96243,-4.4 -2.16509,-8.7875 -2.67256,-9.75 -0.50748,-0.9625 -0.69341,-1.75 -0.41318,-1.75 0.97252,0 3.2412,5.535616 4.9819897,12.156142 1.95556,7.437358 4.67092,10.70624 9.75750001,11.746556 1.82010999,0.372253 3.44061999,1.358747 3.60112999,2.192211 0.16051,0.833463 -2.08677,4.00631 -4.99395999,7.050771 -4.28905001,4.491565 -6.51152001,5.933448 -11.78579971,7.646319 -3.575,1.161015 -8.3,2.397069 -10.5,2.746787 -8.563204,1.361231 -9.649653,2.730803 -4.493677,5.664704 3.178778,1.808817 4.019744,5.370443 1.793677,7.59651 -1.445202,1.445202 -7.34352,1.467921 -10.8,0.0416 z M 2.2420727,-58.529785 c 0.33992,-0.55 -0.0835,-1 -0.94098,-1 -0.85745999,0 -1.55901999,0.45 -1.55901999,1 0,0.55 0.42344,1 0.94098,1 0.51753999,0 1.21909999,-0.45 1.55901999,-1 z M -111.25793,-30.455942 c 0,-1.284788 4.00151,-2.352143 7.14829,-1.906723 4.112905,0.582173 2.53158,2.321339 -2.39829,2.637671 -2.80545,0.180016 -4.75,-0.119218 -4.75,-0.730948 z m 10.5822,-3.187847 c -1.47814,-1.162703 -2.51535,-2.286174 -2.30492,-2.496604 0.81038,-0.810378 10.750374,2.756851 10.193341,3.658149 -1.014396,1.641327 -5.087633,1.041555 -7.888421,-1.161545 z m -12.5822,-3.103118 c -2.35546,-1.02731 -2.21459,-1.136025 2.43647,-1.880388 5.56206,-0.89016 7.20836,-0.384381 5.48965,1.686538 -1.37119,1.652175 -4.41189,1.726542 -7.92612,0.19385 z m 16.305767,-1.266133 -2.805764,-2.483254 3.5,0.631976 c 5.352572,0.966484 8.185624,2.22517 7.501157,3.33266 -1.118976,1.810542 -5.3375,1.04801 -8.195393,-1.481382 z m 10.064284,-1.957136 c -3.99055,-1.736627 -5.450729,-3.828539 -2.203837,-3.157306 1.283584,0.265357 4.054323,0.759982 6.157198,1.099167 3.186112,0.513906 3.62408,0.856875 2.627555,2.057615 -1.458449,1.757323 -2.543814,1.757409 -6.580916,5.24e-4 z m -27.370051,-2.272449 c -3.28235,-1.53291 -3.35193,-1.66024 -1.11901,-2.047575 1.30955,-0.22716 4.00387,-0.108566 5.98738,0.263543 3.39214,0.636369 3.49181,0.760334 1.67788,2.086716 -2.34241,1.712807 -2.21828,1.718547 -6.54625,-0.302684 z m 9,-0.512332 c 0,-2.219903 10.04693,-2.184246 10.777243,0.03825 0.329357,1.002301 -0.894949,1.240345 -5.172881,1.005776 -3.082402,-0.169017 -5.604362,-0.638828 -5.604362,-1.044026 z m 24.441133,-1.243025 c -1.86629,-1.41159 -1.839825,-1.469422 0.686425,-1.5 1.445156,-0.01749 3.187756,0.643197 3.872445,1.468197 1.033484,1.245272 0.916916,1.5 -0.686426,1.5 -1.062223,0 -2.804823,-0.660688 -3.872444,-1.468197 z m 6.516086,-1.781803 c -2.282758,-2.421945 -4.333147,-5.75 -3.542532,-5.75 1.144666,0 9.585316,6.226456 9.585316,7.070847 0,1.775798 -3.934738,0.915733 -6.042784,-1.320847 z m -18.039082,-0.573052 c -1.814468,-0.922321 -3.49671,-2.302086 -3.738315,-3.066144 -0.241606,-0.764057 -0.0434,-1.147156 0.440449,-0.85133 0.483853,0.295826 2.792232,1.050808 5.129732,1.67774 2.3375,0.626931 4.25,1.524384 4.25,1.994341 0,1.752417 -2.887892,1.868939 -6.081866,0.245393 z m -21.168137,-1.47637 c -1.5125,-0.597664 -2.75,-1.508672 -2.75,-2.024462 0,-1.409126 7.13082,0.02613 8.89503,1.790345 1.37806,1.378052 1.28369,1.522753 -0.93074,1.427158 -1.35536,-0.05851 -3.70179,-0.595378 -5.21429,-1.193041 z m 7.38335,-1.241828 c -1.72334,-1.450095 -3.13619,-3.159035 -3.13967,-3.797644 -0.003,-0.638608 -1.41443,-1.962657 -3.13544,-2.942329 -3.98459,-2.268193 -3.45892,-2.746951 1.9314,-1.759024 5.34848,0.980257 6.08176,1.680991 3.63736,3.475875 -1.84466,1.354504 -1.79881,1.460858 1.073,2.489069 4.24384,1.519442 6.03082,2.654021 5.802824,3.684289 -0.417934,1.888549 -3.167254,1.375965 -6.169474,-1.150236 z m 23.865561,1.228025 c -1.314184,-0.655192 -3.275267,-2.708029 -4.357963,-4.561861 -1.91354,-3.276433 -1.915069,-3.34118 -0.05474,-2.317448 6.701244,3.687673 10.786965,10.057222 4.412705,6.879309 z m 16.133593,-2.186775 c -1.135778,-1.925 -1.708668,-3.5 -1.27309,-3.5 1.196145,0 5.140589,4.461508 5.140589,5.814451 0,2.255181 -1.810673,1.171609 -3.867499,-2.314451 z m -4.427144,0.0625 c -0.937946,-0.937946 -1.703675,-2.910714 -1.701619,-4.383929 l 0.0037,-2.678571 2.044887,3.354126 c 2.371658,3.890115 2.154582,6.209962 -0.347006,3.708374 z m 8.455158,-1.109553 c -1.638359,-3.595806 -1.452814,-4.027449 0.839485,-1.952947 2.019912,1.827995 2.709001,4.5 1.160515,4.5 -0.461717,0 -1.361717,-1.146174 -2,-2.547053 z m 3.839485,-0.827947 c 0,-0.75625 -0.257287,-2.89375 -0.57175,-4.75 -0.541177,-3.194529 -0.487704,-3.271202 1,-1.43387 1.737922,2.146354 2.147323,7.55887 0.57175,7.55887 -0.55,0 -1,-0.61875 -1,-1.375 z m -45.000003,-3.125 c -2.14717,-2.215323 -2.85142,-3.5 -1.91867,-3.5 1.99972,0 5.67195,2.670477 6.94612,5.051285 1.75537,3.27994 -1.240954,2.355385 -5.02745,-1.551285 z m 8.588897,0.423275 c -4.106942,-4.880823 -3.240982,-6.577671 1.39308,-2.72974 2.190086,1.818556 3.990086,3.868965 4,4.556465 0.03251,2.254017 -2.753367,1.310396 -5.39308,-1.826725 z m 11.958158,-1.866167 c -2.76146,-2.834225 -3.456458,-4.057108 -2.305763,-4.057108 2.506888,0 7.034954,4.344115 6.621448,6.352456 -0.294135,1.428569 -1.110336,0.994462 -4.315685,-2.295348 z m 29.202948,2.231193 c -1.934229,-2.150622 -2.425051,-9.288301 -0.638709,-9.288301 0.728447,0 0.885089,-1.205762 0.454687,-3.5 -0.383286,-2.043089 -0.253386,-3.5 0.312064,-3.5 0.86886,0 -0.36444,-3.452325 -2.942363,-8.236431 -1.683185,-3.123652 -0.988884,-3.188326 2.154181,-0.20066 2.72735,2.592505 3.026162,3.41191 2.546935,6.984229 -0.403076,3.004668 -0.04155,4.807741 1.403552,7 1.070561,1.624074 1.94944,3.515362 1.953064,4.202862 0.0098,1.862103 -2.742324,1.510464 -3.913312,-0.5 -1.385294,-2.378406 -1.401348,0.281223 -0.01731,2.867326 0.584535,1.092214 0.922035,2.915299 0.75,4.0513 -0.309289,2.042346 -0.33237,2.043685 -2.062789,0.119675 z m -14.617499,-2.788301 c -1.135778,-1.925 -1.708668,-3.5 -1.27309,-3.5 1.196145,0 5.140589,4.461508 5.140589,5.814451 0,2.255181 -1.810673,1.171609 -3.867499,-2.314451 z m 423.367496,1.088356 c -1.65,-0.733348 -3.98252,-2.403234 -5.18339,-3.710858 -3.86694,-4.210724 -4.48523,-7.485566 -3.72969,-19.754725 l 0.70437,-11.438132 -6.08513,0.636022 c -5.57221,0.582412 -6.14075,0.460781 -6.74498,-1.442983 -0.9557,-3.011132 0.17208,-3.579084 8.60951,-4.335764 10.14422,-0.909748 10.23158,-0.785174 10.90197,15.546211 0.58623,14.281233 0.88253,14.954881 7.52734,17.113865 2.92798,0.951337 4.08757,1.917193 4.32676,3.603871 0.68619,4.838764 -4.04837,6.572944 -10.32676,3.782493 z m 18.7,0.211644 c -0.84767,-0.847669 -1.2,-6.683901 -1.2,-19.877555 0,-20.093435 0.33662,-21.437929 5.19496,-20.749209 2.17943,0.308958 2.32077,0.80231 2.59364,9.053631 l 0.28859,8.726867 10.0128,-7.976867 c 5.50704,-4.387277 10.43967,-7.976867 10.9614,-7.976867 2.27706,0 0.44388,2.748611 -6.80139,10.197807 l -7.75,7.968133 3,2.522916 c 9.49372,7.983956 15.5,13.554573 15.5,14.375719 0,0.514484 -0.91031,1.845738 -2.02292,2.958343 -2.61588,2.61588 -4.29993,1.753896 -13.05714,-6.683307 -3.61904,-3.486786 -7.10654,-6.339611 -7.75,-6.339611 -0.76169,0 -1.16994,2.068757 -1.16994,5.928571 0,4.056277 -0.49627,6.424843 -1.57143,7.5 -1.87152,1.87152 -4.5677,2.032302 -6.22857,0.371429 z m -450.357522,-1.55 c -2.455174,-2.927805 -5.029938,-7.39587 -4.542709,-7.883099 0.823125,-0.823125 7.700234,6.322756 7.700234,8.001176 0,2.125182 -1.317714,2.075905 -3.157525,-0.118077 z m 12.025024,-1.75 c -1.135778,-1.925 -2.687028,-3.5 -3.447223,-3.5 -1.691251,0 -2.678066,-3.567215 -2.243955,-8.111627 0.318244,-3.331482 0.354235,-3.29768 2.143561,2.013178 1.041882,3.092384 3.07251,6.500711 4.75,7.972684 1.611565,1.414124 2.930118,3.145926 2.930118,3.848449 0,2.394415 -2.063033,1.284803 -4.132501,-2.222684 z m 118.403161,1.53618 c -7.04692,-3.19893 -8.26254,-6.330306 -8.26692,-21.295282 l -0.0037,-12.759103 -5.75,0.259103 c -5.26767,0.237368 -5.77642,0.07333 -6.06492,-1.955552 -0.39868,-2.803697 0.77768,-3.059217 16.51022,-3.586223 12.48119,-0.418093 14.3047,0.01908 14.3047,3.429448 0,3.043156 -2.87677,4.871429 -7.66514,4.871429 h -4.52227 l 0.3437,9.966305 c 0.38652,11.207595 1.1957,12.753378 7.61541,14.547773 2.72177,0.760774 3.81652,1.656816 4.05506,3.319059 0.73958,5.153486 -3.45542,6.426376 -10.5561,3.203043 z m 23.1618,-2.28618 c -4.12127,-3.785601 -5.37395,-8.036134 -5.4086,-18.352117 -0.0279,-8.299746 2.25166,-12.760233 7.99607,-15.646329 6.95633,-3.494981 15.41231,-1.287119 19.71014,5.146329 1.864627,2.791193 2.268927,4.755238 2.264347,11 -0.007,10.076591 -1.30609,14.290569 -5.553507,18.019851 -3.08427,2.708027 -4.23656,3.082266 -9.49039,3.082266 -5.3541,0 -6.35016,-0.340111 -9.51806,-3.25 z m 13.70676,-3.661015 c 2.10789,-1.706306 2.39801,-2.879049 2.70833,-10.947901 0.32996,-8.57944 0.21837,-9.166073 -2.20454,-11.588985 -2.98661,-2.986612 -8.88728,-3.470161 -12.39182,-1.015487 -4.68276,3.279932 -5.37339,17.495733 -1.1131,22.911815 2.55188,3.244184 9.36975,3.580096 13.00113,0.640558 z m 25.931857,5.159461 c -6.11283,-3.11701 -7.57547,-6.23662 -7.53866,-16.078972 0.0246,-6.573462 0.50813,-9.620949 2,-12.60494 3.16116,-6.322812 6.29507,-7.980969 16.28715,-8.617557 4.77424,-0.304163 9.24293,-0.368518 9.93043,-0.143011 1.76444,0.578753 1.55971,3.196034 -0.25,3.196034 -1.84769,0 -1.84831,0.100026 -0.0223,3.619568 4.00548,7.720558 4.2316,19.040664 0.50282,25.172146 -4.13135,6.793466 -13.49541,9.237209 -20.90939,5.456732 z m 13.25962,-8.293932 c 4.22367,-3.322342 5.95515,-12.967462 3.56088,-19.835675 -2.24635,-6.443884 -11.57165,-7.883608 -15.84825,-2.446796 -2.50569,3.185468 -2.82736,13.515757 -0.58776,18.875864 2.26919,5.430926 8.27983,7.021271 12.87513,3.406607 z m 24.08926,8.159808 c -4.6307,-2.823798 -6.42134,-7.601849 -6.67185,-17.802859 -0.26605,-10.833562 1.35148,-14.545598 7.56821,-17.368084 8.27613,-3.757488 17.00572,-1.152783 20.75283,6.192158 1.88382,3.692607 2.1165,5.407388 1.68098,12.388277 -0.5823,9.333616 -2.45152,13.713617 -7.04868,16.51667 -4.21375,2.569275 -12.13038,2.605177 -16.28149,0.07384 z m 12.37082,-5.391612 c 2.43731,-2.594406 3.8694,-11.390137 2.79068,-17.140172 -1.46372,-7.802319 -9.98103,-10.336813 -15.65838,-4.659461 -2.63226,2.632252 -2.92308,3.570955 -2.92308,9.4349 0,10.810413 2.45909,14.642023 9.39711,14.642023 3.13397,0 4.81764,-0.599691 6.39367,-2.27729 z m 63.50777,5.317774 c -4.45614,-2.717069 -6.12625,-6.535549 -6.89613,-15.767144 -0.82668,-9.912544 0.48102,-14.319919 5.35093,-18.03438 4.67833,-3.568335 13.53918,-3.90427 17.86153,-0.677171 5.80505,4.334096 6.89135,6.87919 6.81193,15.95967 -0.087,9.952812 -2.19261,15.552645 -6.95441,18.495599 -4.2495,2.626337 -11.88679,2.637399 -16.17385,0.02343 z m 12.2469,-5.495029 c 2.21695,-2.216942 2.45455,-3.268707 2.45455,-10.865142 0,-6.994577 -0.34894,-8.854204 -2.07258,-11.045454 -3.02027,-3.839658 -9.0092,-3.706924 -13.00434,0.288218 -2.68389,2.683882 -2.92308,3.506244 -2.92308,10.04966 0,7.126574 1.64344,12.317693 4.22896,13.357969 3.56749,1.435371 8.94406,0.587182 11.31649,-1.785251 z m 25.7531,5.495029 c -5.36242,-3.269656 -6.61821,-6.982763 -7.28512,-21.540484 -0.32755,-7.15 -0.41642,-13.5625 -0.1975,-14.25 0.58015,-1.821852 5.85272,-1.555872 6.57708,0.331787 0.33385,0.869984 0.60699,6.517331 0.60699,12.54966 0,12.147626 1.32397,16.409791 5.41648,17.436946 7.78749,1.954536 10.37859,-1.667421 11.13741,-15.568393 0.77414,-14.181369 1.02851,-15.200323 3.69842,-14.814919 2.13578,0.308303 2.17545,0.59852 1.88816,13.814919 -0.32749,15.066308 -1.21426,17.785314 -7.09242,21.746602 -4.19963,2.830129 -10.38771,2.953426 -14.7495,0.293882 z m 150.57425,0.275803 c -5.15202,-3.197459 -6.3728,-6.768366 -6.3728,-18.641144 v -10.824857 l 3.66936,-3.364702 c 8.27905,-7.591655 21.58402,-4.822933 24.88477,5.178441 1.60194,4.853902 0.75456,17.932545 -1.43383,22.130198 -0.94457,1.811822 -3.15805,4.17264 -4.91885,5.246261 -3.98685,2.430927 -12.12757,2.572773 -15.82865,0.275803 z m 11.08776,-4.295178 c 5.70379,-3.052579 5.30352,-23.170851 -0.50536,-25.399928 -2.47594,-0.950106 -7.36438,-0.740156 -9.51059,0.408463 -5.86633,3.139565 -6.6895,18.174814 -1.31991,24.108148 1.85743,2.052438 8.22432,2.548561 11.33586,0.883317 z m -237.7197,2.984293 c -5.56291,-3.391748 -7.23308,-7.317063 -7.23557,-17.005402 -0.003,-10.773428 1.72166,-14.606073 7.99471,-17.768781 2.475,-1.24783 4.41145,-2.515469 4.30323,-2.816977 -0.10823,-0.301507 -1.90823,-1.886992 -4,-3.523297 -7.131,-5.57828 -7.55965,-6.03453 -6.58511,-7.00906 0.52524,-0.52524 6.67622,-0.81942 13.86302,-0.66302 10.69181,0.23267 12.91886,0.53972 12.91886,1.78113 0,1.16839 -1.6028,1.56496 -7.25,1.79381 -3.9875,0.1616 -7.25,0.62708 -7.25,1.0344 0,0.40732 1.42761,1.58389 3.17246,2.6146 4.74509,2.802994 10.75734,8.520763 12.49701,11.884904 0.98566,1.90607 1.57187,5.898985 1.62857,11.092904 0.10492,9.61045 -1.93997,14.815405 -7.19592,18.31619 -4.4405,2.957639 -12.24692,3.081994 -16.86126,0.268599 z m 14.62513,-8.091931 c 4.09066,-4.390811 3.75374,-16.835076 -0.59574,-22.004148 -2.96228,-3.520464 -7.7354,-3.904473 -11.52081,-0.926874 -3.10321,2.440986 -3.94886,6.704337 -2.86543,14.446038 0.64334,4.597024 1.43582,6.449868 3.5286,8.25 3.47216,2.986627 8.78822,3.095695 11.45338,0.234984 z m 91.80068,9.419862 c -1.6167,-1.616692 -0.19548,-6.053646 6.83333,-21.333333 4.125,-8.96719 7.5,-17.074899 7.5,-18.017132 0,-3.440773 -3.76712,-6.720853 -8.54094,-7.436733 -5.51867,-0.82758 -5.54299,-3.10422 -0.0313,-2.92551 8.51623,0.27613 10.86261,4.03373 19.51638,31.254382 3.79324,11.931751 4.90665,16.674168 4.10329,17.477523 -2.1236,2.123603 -4.51119,-0.964253 -7.70089,-9.959555 -1.73439,-4.891136 -3.57759,-9.995425 -4.09602,-11.342864 -0.84197,-2.188351 -1.39731,-1.280932 -5.20208,8.5 -2.34272,6.022439 -4.95676,11.737389 -5.80897,12.699889 -1.53981,1.739068 -5.29773,2.358447 -6.57284,1.083333 z m -399.35584,-1.583333 c -0.44396,-0.6875 -1.60294,-2.825 -2.5755,-4.75 -0.97257,-1.925 -1.55001,-2.7125 -1.2832,-1.75 0.88005,3.174781 -3.31513,2.02291 -5.46309,-1.5 -2.82794,-4.638157 -2.45539,-5.570974 0.9297,-2.327852 1.60531,1.537981 3.41029,2.492537 4.01107,2.121234 1.52168,-0.940454 7.070193,4.850942 7.070193,7.379695 0,2.3089 -1.445188,2.753297 -2.689173,0.826923 z m 54.129531,-2.84448 c -1.421603,-2.251964 -2.383753,-4.295458 -2.138113,-4.541098 0.916778,-0.916778 6.697755,4.887259 6.697755,6.724472 0,3.071635 -1.780523,2.219036 -4.559642,-2.183374 z m -64.303141,1.051106 c -1.84953,-1.13542 -3.16734,-2.259836 -2.92848,-2.498702 0.77459,-0.774587 8.94068,2.010858 8.91846,3.042076 -0.0386,1.79231 -2.5575,1.563813 -5.98998,-0.543374 z m 14.621925,-1.206626 c -0.808982,-1.2375 -1.81418,-3.375 -2.233771,-4.75 -0.755764,-2.476633 -0.73294,-2.47196 2.441924,0.5 1.76265,1.65 3.631925,3.7875 4.153945,4.75 1.47996,2.728748 -2.553636,2.266402 -4.362098,-0.5 z m 34.813788,-0.319927 c -1.844097,-1.844097 -2.912511,-5.51802 -2.355847,-8.100978 0.281928,-1.308163 1.161559,-0.343345 3.088557,3.387661 1.481898,2.869216 2.69436,5.456716 2.69436,5.75 0,1.068084 -1.89577,0.494617 -3.42707,-1.036683 z m -30.032461,-2.169855 c -4.033172,-4.349595 -3.067216,-5.845468 1.459531,-2.260218 2.2,1.742432 4,3.580245 4,4.084029 0,1.841936 -2.985125,0.844725 -5.459531,-1.823811 z m 17.772092,1.937384 c -2.301044,-1.430705 -4.506392,-10.203569 -2.562561,-10.193854 0.976203,0.0049 4.534096,8.653698 4.090349,9.943158 -0.187192,0.543951 -0.874696,0.656764 -1.527788,0.250696 z m 53.128569,-1.642436 c 1.067621,-0.855341 2.867621,-1.56885 4,-1.585575 1.89367,-0.02797 1.91684,-0.113098 0.28869,-1.060983 -0.973598,-0.566816 -2.717451,-0.729921 -3.875229,-0.362457 -1.41355,0.448644 -1.880278,0.304428 -1.420803,-0.439017 0.741433,-1.199665 5.417112,-1.485314 8.012202,-0.489485 0.88526,0.339707 2.00701,1.360279 2.49278,2.267937 0.76159,1.423053 0.35994,1.600387 -2.917,1.28788 -2.09012,-0.199324 -4.862562,0.154929 -6.160991,0.787229 -2.245704,1.093599 -2.26616,1.073832 -0.419649,-0.405529 z m -20.834141,-1.136953 c -0.333844,-0.869984 -0.592677,-2.332484 -0.575186,-3.25 0.02743,-1.439044 0.233495,-1.401553 1.5,0.272917 1.639084,2.167062 1.940854,4.55887 0.575186,4.55887 -0.491156,0 -1.166156,-0.711804 -1.5,-1.581787 z m -42.464247,-1.611825 c -2.261421,-6.0244 -2.906241,-8.806388 -2.041179,-8.806388 1.254784,0 4.89004,6.08338 4.894699,8.190983 0.006,2.71634 -1.909784,3.129509 -2.85352,0.615405 z m 26.646625,0.103777 c -2.327619,-1.313711 -5.028511,-10.974355 -3.039367,-10.871314 1.060797,0.05495 5.557988,9.550148 5.115853,10.801414 -0.241376,0.683107 -0.947875,0.706889 -2.076486,0.0699 z m 10.183026,-1.96175 c -0.603887,-1.128371 -0.957219,-2.924619 -0.785184,-3.991662 0.246302,-1.527682 0.797412,-1.091584 2.592651,2.051585 1.822905,3.191611 1.98028,3.991662 0.785183,3.991662 -0.822071,0 -1.988764,-0.923213 -2.59265,-2.051585 z m -58.899816,-2.583274 c -4.175,-5.307653 -2.00111,-5.950101 2.92742,-0.865141 3.07209,3.169593 3.19187,3.5 1.26875,3.5 -1.16797,0 -3.05625,-1.185686 -4.19617,-2.634859 z m 14.902672,0.06976 c -1.155131,-3.038226 -1.288449,-7.436465 -0.225249,-7.431152 0.714434,0.0036 4.25,7.704249 4.25,9.256759 0,1.888223 -3.157242,0.456114 -4.024751,-1.825607 z m 51.601211,1.378482 c -0.225178,-0.72236 -0.678871,-2.663382 -1.008207,-4.313382 l -0.598793,-3 2.01527,2.360784 c 1.108399,1.298431 2.01527,2.959373 2.01527,3.690983 0,1.856642 -1.925583,2.859037 -2.42354,1.261615 z m -62.031343,-4.323627 c -2.73703,-3.34019 -3.25812,-4.489755 -2.03514,-4.489755 1.79274,0 7.490023,5.221143 7.490023,6.86406 0,2.633279 -2.10084,1.718862 -5.454883,-2.374305 z m 74.918137,0.768056 c -1.168366,-2.796293 -1.301248,-4.317961 -0.525711,-6.020078 1.413132,-3.101488 5.779055,-4.68789 8.939057,-3.248096 l 2.43329,1.108681 -3.533778,3.700841 c -1.943578,2.035463 -3.777777,4.375841 -4.075998,5.200841 -0.311149,0.860765 -0.575863,0.369919 -0.621167,-1.151799 -0.0579,-1.94469 0.787673,-3.206796 3.171053,-4.733153 l 3.25,-2.081354 -3.127555,-0.01685 c -4.491143,-0.02419 -5.854031,2.044286 -4.600602,6.982409 1.274222,5.020043 0.726135,5.128335 -1.308589,0.258555 z m -53.525767,0.10923 c -2.592806,-3.098136 -5.128451,-7.50941 -4.612855,-8.025006 0.266441,-0.266441 1.921537,0.799609 3.67799,2.369 2.233819,1.995917 3.088945,3.5551 2.845465,5.188243 -0.335705,2.251751 -0.403669,2.26839 -1.9106,0.467763 z m 45.327403,0.407125 c -1.614666,-2.01679 -2.291731,-5.158848 -1.412886,-6.556784 0.54525,-0.867302 1.237822,0.02477 2.138871,2.754968 1.384478,4.19501 1.038666,6.005946 -0.725985,3.801816 z m -32.442662,-0.971132 c -1.656882,-1.28681 -2.215811,-3.928876 -1.862282,-8.803034 0.155341,-2.141712 0.464067,-1.8624 2.154173,1.948934 2.409081,5.432685 2.264013,8.839132 -0.291891,6.8541 z m 22.844439,0.530299 c -1.208607,-1.208607 -0.694281,-6.914565 0.80153,-8.892203 1.346542,-1.780289 1.470831,-1.464688 1.5,3.80887 0.02941,5.316928 -0.62424,6.760624 -2.30153,5.083333 z m -51.39427,-1.583333 c -1.46933,-1.888614 -4.32999,-8.025741 -3.928248,-8.427482 0.910814,-0.910814 5.655851,5.225215 5.655851,7.313846 0,2.680082 -0.338938,2.898566 -1.727603,1.113636 z m 21.80104,-1.161514 c -1.420327,-1.711389 -0.908418,-8.153505 0.782246,-9.844169 1.055614,-1.055614 1.995214,7.329961 1.105516,9.866297 -0.504889,1.439328 -0.676531,1.437317 -1.887762,-0.02213 z m 9.319387,-6.190752 c -0.827818,-1.981247 -1.36297,-4.568747 -1.189227,-5.75 0.274819,-1.868459 0.553302,-1.692621 2.141648,1.352266 3.351983,6.425808 3.761072,8 2.078978,8 -0.839452,0 -2.203582,-1.62102 -3.031399,-3.602266 z m 25.273843,2.935599 c -1.036554,-1.036553 -0.786708,-4.975766 0.493848,-7.78628 1.788368,-3.925041 2.371454,-3.063207 1.996935,2.951584 -0.322947,5.186542 -0.940413,6.385066 -2.490783,4.834696 z m 5.702247,-0.545434 c -0.995247,-1.610345 -0.522926,-8.033887 0.679115,-9.235928 0.602628,-0.602628 0.95601,-0.236383 0.962977,0.998029 0.0061,1.0725 0.289932,3.6375 0.630842,5.7 0.614576,3.718174 -0.662321,5.143925 -2.272934,2.537899 z m -60.29486,-1.198669 c -0.643959,-0.775924 -1.415738,-3.138424 -1.715065,-5.25 l -0.544229,-3.83923 2.56141,4 c 2.640861,4.124073 3.279172,6.5 1.746275,6.5 -0.482656,0 -1.404431,-0.634847 -2.048391,-1.41077 z m 14.769422,-0.83923 c -0.268088,-3.853711 -0.684792,-7.109036 -1.408078,-11 -0.964808,-5.190246 0.771743,-4.725267 2.80102,0.75 1.446187,3.90201 1.470175,4.5 0.180516,4.5 -1.160574,0 -1.259894,0.424914 -0.452118,1.934259 1.318914,2.464412 1.339803,6.065741 0.03518,6.065741 -0.55,0 -1.070436,-1.0125 -1.156524,-2.25 z m 30.707902,1.333131 c -0.962366,-1.55714 -2.347308,-10.083131 -1.63788,-10.083131 1.117877,0 4.086502,5.699172 4.086502,7.845275 0,2.281561 -1.547517,3.695875 -2.448622,2.237856 z m -40.333542,-1.333131 c -0.964682,-1.174089 -1.589679,-5.374863 -1.301837,-8.75 0.149251,-1.750057 4.084001,6.544523 4.084001,8.609204 0,1.729038 -1.418225,1.80081 -2.782164,0.140796 z m 35.421644,0.556147 c -0.972365,-0.972366 -0.763434,-6.306147 0.247021,-6.306147 1.077286,0 2.062922,5.913224 1.086248,6.516842 -0.381584,0.235832 -0.981555,0.141019 -1.333269,-0.210695 z m -5.494128,-2.034554 c -0.636845,-1.189957 -0.531327,-3.016791 0.316737,-5.483645 0.896406,-2.607469 0.942098,-3.638532 0.154822,-3.493585 -1.884919,0.347037 -1.824747,-4.817541 0.08329,-7.148959 1.76463,-2.15619 1.805484,-2.01466 2.090766,7.24338 0.286466,9.29644 -0.682715,12.550522 -2.645615,8.882809 z m -25.567472,-0.458211 c -0.704495,-2.26785 -1.561491,-10.813382 -1.08443,-10.813382 0.982942,0 3.50655,6.039101 3.50655,8.391323 0,2.738484 -1.773051,4.51149 -2.42212,2.422059 z m 56.139853,-0.496851 c -0.265397,-0.449092 -0.818982,-2.382703 -1.230191,-4.296912 -0.700947,-3.262964 -0.635788,-3.387903 1.043058,-2 1.667852,1.378813 1.700251,1.335099 0.472235,-0.637153 -0.777159,-1.248153 -1.007278,-2.890406 -0.560496,-4 0.72104,-1.790724 0.797584,-1.780054 1.57063,0.218947 1.440997,3.726239 0.274999,13.372204 -1.295236,10.715118 z m -16.264032,-1.576588 c -0.336525,-0.87697 -0.431612,-2.639718 -0.211305,-3.917217 0.38643,-2.2408 0.443437,-2.219986 1.616242,0.590113 0.813988,1.950358 0.883809,3.244714 0.211305,3.917218 -0.672504,0.672504 -1.206554,0.477514 -1.616242,-0.590114 z m -25.00706,-3.449045 c -0.336596,-1.534994 -1.001379,-4.028398 -1.477297,-5.540898 -0.515308,-1.637685 -0.492255,-2.75 0.057,-2.75 1.24573,0 3.973661,5.417419 3.973661,7.891323 0,3.171506 -1.880979,3.465861 -2.553359,0.399575 z m 49.958248,0.209102 c 1.017204,-4.142629 2.595111,-5.554747 2.595111,-2.322445 0,1.417656 -0.749643,3.195156 -1.665874,3.95 -1.508902,1.243122 -1.596462,1.089761 -0.929237,-1.627555 z m -54.204889,0.3 c -0.66,-0.66 -1.166626,-3.0225 -1.125836,-5.25 l 0.07416,-4.05 1.851673,4 c 2.731103,5.899754 2.346664,8.446664 -0.8,5.3 z m 49.8,-2.916667 c 0,-2.964862 0.320066,-3.963267 1.039802,-3.243531 1.518642,1.518642 1.668462,6.568036 0.210198,7.084317 -0.874326,0.309545 -1.25,-0.84476 -1.25,-3.840786 z m -29.988994,-0.133333 c 0.02133,-4.360594 1.254523,-9.703926 2.116614,-9.171126 0.994363,0.61455 1.178964,7.458607 0.265391,9.839339 -0.897599,2.339106 -2.394661,1.919143 -2.382005,-0.668213 z m -10.327673,0.6 c -0.956092,-0.956092 -0.825695,-6.577132 0.189734,-8.178856 0.561195,-0.88523 1.037588,0.11631 1.426983,2.999998 0.563218,4.170934 -0.195197,6.600378 -1.616717,5.178858 z m 21.76204,-1.711627 c -0.326002,-1.298895 -0.42348,-3.886395 -0.216619,-5.75 l 0.376111,-3.388379 1.741658,3.82341 c 1.684416,3.697745 1.479758,7.676596 -0.394859,7.676596 -0.502458,0 -1.180289,-1.062732 -1.506291,-2.361627 z m 5.406272,-0.06463 c -0.617502,-1.355271 -0.790236,-3.672702 -0.391317,-5.25 l 0.71416,-2.823749 1.3977,4.000006 c 0.768735,2.2 1.404475,4.5625 1.412756,5.25 0.02562,2.126899 -1.969545,1.377903 -3.133299,-1.176257 z m -11.391746,0.361372 c -0.850485,-1.376114 0.327116,-7.685451 1.578833,-8.459051 0.566639,-0.35021 0.961268,1.48278 0.961268,4.464919 0,4.757094 -1.049066,6.406677 -2.540101,3.994132 z m 16.205042,-0.670594 c -0.263478,-0.970487 -0.752748,-3.114521 -1.087266,-4.764521 l -0.608215,-3.000006 2.01527,2.36079 c 2.126337,2.490893 2.64428,5.632432 1.087266,6.59472 -0.510402,0.315446 -1.143576,-0.220497 -1.407055,-1.190983 z m 309.335056,-3.830262 c 0,-2.195055 1.70546,-5.242675 5.69914,-10.184265 3.61414,-4.47195 7.01607,-5.503 9.25518,-2.80504 2.33293,2.81101 0.70298,5.86915 -5.45432,10.23349 -6.28842,4.457279 -9.5,5.388913 -9.5,2.755815 z"
       id="path1" />
  </g>
</svg>
