<?xml version="1.0" encoding="UTF-8" standalone="no"?>
<!-- Created with Inkscape (http://www.inkscape.org/) -->

<svg
   version="1.1"
   id="svg1"
   width="471.38553"
   height="500.83838"
   viewBox="0 0 471.38553 500.83838"
   sodipodi:docname="Gemini_Generated_Image_s025nes025nes025.png"
   xmlns:inkscape="http://www.inkscape.org/namespaces/inkscape"
   xmlns:sodipodi="http://sodipodi.sourceforge.net/DTD/sodipodi-0.dtd"
   xmlns="http://www.w3.org/2000/svg"
   xmlns:svg="http://www.w3.org/2000/svg">
  <defs
     id="defs1" />
  <sodipodi:namedview
     id="namedview1"
     pagecolor="#ffffff"
     bordercolor="#000000"
     borderopacity="0.25"
     inkscape:showpageshadow="2"
     inkscape:pageopacity="0.0"
     inkscape:pagecheckerboard="0"
     inkscape:deskcolor="#d1d1d1">
    <inkscape:page
       x="0"
       y="0"
       width="471.38553"
       height="500.83838"
       id="page2"
       margin="0"
       bleed="0" />
  </sodipodi:namedview>
  <g
     inkscape:groupmode="layer"
     inkscape:label="Image"
     id="g1"
     transform="translate(489.82907,91.399048)">
    <path
       style="fill:#000000"
       d="m -260.77636,406.85374 c -3.72998,-2.55906 -4.66791,-2.73319 -14.81253,-2.75 -13.80982,-0.0229 -13.6696,0.13135 -13.6696,-15.03476 0,-10.27069 -0.17456,-11.29417 -2.25,-13.19189 -5.02985,-4.59917 -8.80509,-5.78365 -17.25,-5.4122 -25.96586,1.1421 -31.91292,0.37537 -39.79965,-5.13124 -2.6343,-1.8393 -2.69337,-2.03535 -1,-3.3195 1.12549,-0.8535 4.51555,-1.37666 9.04965,-1.39655 3.9875,-0.0175 7.25,-0.38729 7.25,-0.82177 0,-0.43448 -3.4875,-2.30053 -7.75,-4.14679 -5.59785,-2.42464 -9.02962,-3.30413 -12.35797,-3.16708 -11.50501,0.47375 -29.89815,-6.15492 -36.75445,-13.24586 -5.61864,-5.81093 -2.35962,-7.02738 10.11242,-3.77453 3.7125,0.96826 6.75,1.62803 6.75,1.46614 0,-0.16188 -3.37101,-2.83155 -7.49113,-5.9326 -6.36558,-4.79112 -8.54948,-5.83994 -14.53499,-6.98043 -9.54804,-1.8193 -16.15085,-5.57071 -24.48596,-13.91178 -12.0428,-12.05143 -12.58065,-16.44635 -1.45968,-11.9275 3.52676,1.43306 7.3133,3.23664 8.41453,4.00798 4.311,3.01954 3.4382,1.09827 -2.57445,-5.66703 -4.12818,-4.64494 -7.84089,-7.75236 -10.82564,-9.06069 -9.51992,-4.17297 -11.65695,-5.52077 -16.83808,-10.61958 -3.62633,-3.56871 -6.46129,-7.68856 -8.85346,-12.86609 -5.3307,-11.5376 -2.58632,-12.39942 9.12046,-2.86412 3.17224,2.58383 5.58662,4.31133 5.36529,3.8389 -0.22133,-0.47243 -3.65017,-7.46381 -7.61965,-15.5364 -3.96948,-8.07258 -7.21724,-15.00803 -7.21724,-15.41211 0,-1.24799 -8.88192,-15.73835 -11.59124,-18.91046 l -2.56231,-3 0.65274,3.5 c 1.13021,6.0601 7.03705,17.41107 11.9235,22.91295 5.31854,5.9884 5.41145,7.5878 0.21032,3.62071 -7.20184,-5.49311 -13.52393,-16.85597 -15.65127,-28.13042 -2.09103,-11.08203 0.91528,-11.00695 8.64475,0.2159 2.03847,2.95976 3.88165,5.20605 4.09595,4.99175 0.21431,-0.2143 -0.34944,-3.24187 -1.25277,-6.72793 -1.10881,-4.27906 -3.10689,-8.28647 -6.1501,-12.33483 -4.88017,-6.49206 -7.71965,-11.59631 -9.91946,-17.83125 -3.79104,-10.74495 -4.1443,-29.198 -0.54575,-28.50762 1.85434,0.35575 6.25796,7.96494 8.20423,14.17639 1.32241,4.22043 3.64789,7.87404 2.61873,4.11435 -0.30111,-1.1 -0.86184,-6.93145 -1.24607,-12.95878 -0.63516,-9.96338 -1.0152,-11.53475 -4.18408,-17.29982 -5.18037,-9.42453 -5.46134,-17.4494 -1.17262,-33.4914 0.5632,-2.10666 1.62609,-3.75 2.42545,-3.75 1.43615,0 2.4245,2.79273 4.60009,12.99823 1.07574,5.04619 1.25161,5.29284 2.13903,3 1.54764,-3.99863 1.31141,-13.80531 -0.55895,-23.204609 -1.42014,-7.13673 -1.54051,-9.90811 -0.66764,-15.37205 1.21535,-7.60777 5.22972,-17.97025 8.1049,-20.92157 2.94774,-3.02579 3.84323,-0.61684 3.90318,10.5 l 0.0512,9.5 3.46408,-7.38455 c 3.24834,-6.92459 3.46411,-8.02463 3.46411,-17.66091 0,-12.30319 2.13215,-20.22518 7.5675,-28.11708 5.31874,-7.72256 6.89302,-7.22778 6.08529,1.91254 -0.35237,3.9875 -0.89781,9.05 -1.21209,11.25 -0.49372,3.45611 -0.4042,3.72806 0.65838,2 0.67638,-1.1 3.11525,-4.475 5.41972,-7.5 5.73712,-7.53096 7.45808,-11.16637 8.57802,-18.12054 1.78001,-11.0528999 4.60311,-16.70401988 12.164,-24.3492499 6.14852,-6.2171101 7.03777,-6.8015601 7.68862,-5.0532301 0.89113,2.3937501 -0.37449,8.4348201 -3.02011,14.4156901 -1.07447,2.42902 -1.76582,4.60418 -1.53632,4.83367 0.73421,0.73422 14.60699,-12.91294 14.60699,-14.36943 0,-3.7179301 6.33767,-14.8593901 11.57728,-20.3525901 5.71336,-5.98986 11.75149,-10.34222 12.83911,-9.2546 1.32137,1.32137 0.34863,5.10198 -2.83034,11.00028 -1.85268,3.4375 -3.13882,6.25 -2.85809,6.25 0.28073,0 3.15975,-1.60938 6.39782,-3.57641 4.88087,-2.96497 6.35479,-4.54638 8.62126,-9.25 1.50362,-3.12047 5.01737,-7.92359 7.80834,-10.67359 5.61514,-5.53271 18.78007,-12.56455 20.43147,-10.91315 1.45533,1.45533 -2.28973,8.3278 -7.50309,13.76875 -2.44756,2.55442 -4.27784,4.6444 -4.06729,4.6444 0.21056,0 4.42553,-1.56129 9.36662,-3.46954 10.66983,-4.1207 17.7231,-5.54903 17.02248,-3.44716 -0.25327,0.7598 -5.37563,3.20979 -11.38303,5.44442 -15.24653,5.67141 -15.76464,6.03475 -9.63973,6.76015 5.74736,0.68069 12.21719,3.13546 12.21719,4.63542 0,3.57811 -14.84555,6.53247 -28.15738,5.6035 -8.07846,-0.56376 -10.20387,-0.39305 -13,1.04417 -4.81339,2.47408 -15.07206,9.5329301 -14.57568,10.0293201 0.2316,0.23159 2.25376,-0.22553 4.49369,-1.01583 9.40739,-3.3191201 19.23937,-3.1473701 19.23937,0.33608 0,3.67193 -16.50134,10.72182 -28.40868,12.13708 -4.45023,0.52894 -9.18533,1.21139 -10.52245,1.51656 -2.27465,0.51914 -18.06887,14.9278899 -18.06887,16.4838699 0,0.39117 2.81934,-0.78586 6.26519,-2.61562 9.00437,-4.78134 17.73481,-6.41501 17.73481,-3.31861 0,0.50041 -2.11665,2.93795 -4.70366,5.41674 -5.15623,4.94054 -11.31679,8.19878 -21.89163,11.57823 -3.79759,1.21361 -7.96734,3.14586 -9.2661,4.29389 -2.19392,1.9393 -10.13861,12.87806 -10.13861,13.95951 0,0.26505 2.45427,-0.99597 5.45393,-2.80227 5.7672,-3.47283 14.14342,-6.3059 15.28089,-5.16842 1.14192,1.14192 -2.85391,7.45356 -7.332,11.58133 -2.33431,2.15168 -7.54238,5.56726 -11.57351,7.59017 -11.42579,5.73373 -12.26896,6.56626 -16.22743,16.02252 -1.98103,4.73243 -3.60188,8.9825 -3.60188,9.44459 0,0.4621 2.36114,-1.65638 5.24699,-4.70774 5.79215,-6.12434 9.10685,-8.71411 12.50301,-9.76855 3.2484,-1.00857 2.96902,2.06538 -0.88295,9.71471 -4.95564,9.84104 -8.44459,14.29394 -15.95267,20.360189 -3.85155,3.11191 -7.47659,6.54327 -8.05564,7.62524 -1.25065,2.33686 -4.77517,21.75431 -3.93793,21.69506 0.31855,-0.0225 1.57657,-2.16004 2.79559,-4.75 2.66834,-5.6692 10.82321,-15.20901 13.00105,-15.20901 1.28689,0 1.46681,0.92564 1.02046,5.25 -0.73558,7.12645 -4.76625,15.839 -11.23705,24.28958 -2.9647,3.87177 -5.91098,8.37177 -6.54729,10 -1.24508,3.18597 -1.45511,24.64147 -0.28614,29.23113 0.58198,2.28503 0.90677,1.5913 1.99528,-4.26184 1.42463,-7.66048 6.47555,-18.96421 8.88746,-19.88975 2.39898,-0.92057 2.9533,1.91727 2.90668,14.88088 -0.0405,11.26767 -0.27142,12.64079 -3.78361,22.5 -2.05725,5.775 -4.00777,11.53856 -4.33449,12.80791 -0.63294,2.459 4.61755,22.19209 5.90476,22.19209 0.41607,0 0.75649,-2.16235 0.75649,-4.80521 0,-5.97831 4.14432,-18.69479 6.09266,-18.69479 3.91938,0 4.96278,18.66346 1.84731,33.0431 l -2.06004,9.50822 5.76817,10.97434 c 3.17249,6.03589 6.11337,10.97434 6.53528,10.97434 0.42192,0 0.33861,-1.12705 -0.18511,-2.50456 -0.52373,-1.3775 -1.23182,-5.99 -1.57355,-10.25 -0.65272,-8.13698 0.46298,-13.24544 2.89283,-13.24544 1.45466,0 7.79559,12.81561 9.64825,19.5 0.60976,2.2 1.38671,8.88282 1.72655,14.85071 0.61573,10.81256 0.63271,10.87058 4.83012,16.5 5.93393,7.95839 11.17656,13.74757 11.85391,13.08969 0.31689,-0.30779 -0.28212,-2.81842 -1.33113,-5.57918 -1.049,-2.76077 -2.22145,-7.79645 -2.60543,-11.1904 -0.8618,-7.61729 0.56049,-8.12664 5.97068,-2.13821 4.59714,5.08849 7.73217,11.73609 11.63889,24.67941 2.86164,9.4809 3.41767,10.48809 7.76646,14.06826 5.59325,4.60466 16.48386,12.21972 17.47593,12.21972 0.38769,0 -0.86618,-2.18682 -2.78638,-4.8596 -1.9202,-2.67278 -4.61945,-7.41061 -5.99834,-10.52851 -4.06679,-9.19575 -3.03806,-12.33925 2.8477,-8.70165 6.8017,4.20368 13.62037,12.76036 18.61342,23.35778 2.68919,5.70763 5.77887,10.80531 6.98742,11.5286 2.95239,1.76691 19.92287,9.20338 21.0027,9.20338 0.47773,0 -2.03076,-2.7841 -5.5744,-6.18688 -9.97187,-9.57548 -15.26514,-18.81312 -10.78013,-18.81312 0.88207,0 4.81957,1.67492 8.75,3.72204 8.01259,4.17326 16.08791,11.72878 22.18435,20.75634 2.99999,4.44234 5.53235,6.81895 9.85622,9.25 3.20042,1.79939 5.99595,3.27162 6.2123,3.27162 0.21635,0 0.39336,-2.6449 0.39336,-5.87756 0,-6.40059 1.25837,-8.39065 4.73136,-7.48244 1.81855,0.47556 2.17382,0.0704 2.44796,-2.79185 0.26866,-2.80503 0.76281,-3.3991 3.04629,-3.66222 4.27806,-0.49295 14.79748,2.57386 20.1396,5.87148 l 4.86521,3.00322 4.66806,-2.99548 c 5.10865,-3.27822 15.57564,-6.37505 19.87116,-5.87922 2.13457,0.24639 2.83039,0.95269 3.22915,3.27779 0.429,2.50141 0.9757,2.96938 3.50475,3 l 2.99646,0.0363 0.29723,6.81759 c 0.16348,3.74967 0.61348,6.64366 1,6.43108 0.38652,-0.21258 2.95277,-1.41192 5.70277,-2.66519 4.15724,-1.89461 6.09343,-3.7967 11.48719,-11.28487 3.56795,-4.95339 8.74295,-10.80651 11.5,-13.00692 5.37592,-4.29054 15.47983,-9.79169 17.98429,-9.79169 5.21505,0 -3.08841,12.96026 -13.94932,21.77249 -5.092,4.1315 -3.66622,4.06935 6.50359,-0.28351 13.60626,-5.82372 13.72303,-5.92821 19.08736,-17.07953 2.66972,-5.54981 6.71016,-12.19921 8.97874,-14.77645 4.15179,-4.71669 11.85158,-10.633 13.83833,-10.633 3.01537,0 -1.06385,12.00416 -6.92016,20.36431 -2.17129,3.09963 -3.72097,5.63569 -3.44373,5.63569 1.85583,0 21.08309,-14.47634 22.33556,-16.81661 0.51669,-0.96543 2.1581,-6.01414 3.64759,-11.21936 3.47103,-12.12994 5.69632,-16.82559 10.62986,-22.43038 5.74432,-6.52589 7.26042,-6.1369 6.38088,1.63717 -0.38398,3.39395 -1.56688,8.45645 -2.62866,11.25 -1.06178,2.79355 -1.93074,5.28537 -1.93102,5.53739 -10e-4,0.97971 9.315118,-8.71831 12.928338,-13.45821 3.67217,-4.81722 3.83412,-5.36556 4.43044,-15 0.91026,-14.70691 5.76774,-30.59002 10.72813,-35.0791 1.7652,-1.59749 1.91491,-1.545 2.88716,1.01222 1.2613,3.31746 1.27802,9.04085 0.0512,17.52945 -0.51369,3.55442 -0.81688,6.57969 -0.67374,6.72282 0.14314,0.14314 2.83786,-4.64384 5.98828,-10.63773 l 5.72803,-10.89799 -2.03418,-9.98192 c -3.07272,-15.07823 -2.03111,-32.66775 1.93453,-32.66775 2.08251,0 5.0783,8.72137 5.75362,16.75 0.31227,3.7125 0.88694,6.75 1.27705,6.75 1.52572,0 6.56789,-19.87794 7.68558,-30.29918 1.14311,-10.65821 -3.69207,-35.70082 -6.89305,-35.70082 -1.92656,0 -0.20432,17.77242 2.65843,27.43329 3.36347,11.35064 3.15071,16.9672 -0.30558,8.06671 -4.11033,-10.58476 -6.15063,-20.34229 -6.04506,-28.90996 0.11648,-9.45378 0.93125,-13.09004 2.93304,-13.09004 2.33699,0 7.95508,12.3097 9.36475,20.51894 1.49985,8.73433 2.10849,7.26032 3.10471,-7.51894 0.87653,-13.00354 -0.45017,-18.39014 -6.36661,-25.84936 -8.72478,-10.99988 -15.38865,-27.79756 -12.26634,-30.91987 1.56012,-1.56012 7.75472,4.6792 12.67771,12.76923 l 3.65114,6 -0.68533,-5.86473 c -1.36381,-11.67079 -2.98046,-15.84876 -7.59778,-19.63527 -11.46981,-9.405989 -16.079,-15.475439 -21.19171,-27.905589 -3.6615,-8.90194 2.20677,-7.09057 12.71304,3.92416 3.1894,3.34375 5.94887,5.92959 6.13216,5.7463 0.81146,-0.81145 -7.79281,-18.45316 -9.81686,-20.12794 -1.23838,-1.02469 -5.1766,-3.3445 -8.7516,-5.15513 -9.40711,-4.76444 -14.69366,-8.9293 -18.0481,-14.2187 -1.62354,-2.56006 -2.951898,-5.01656 -2.951898,-5.45888 0,-2.33477 9.057428,0.68186 16.886518,5.62415 2.26242,1.42819 4.11348,2.34138 4.11348,2.02931 0,-0.99282 -7.98056,-12.36166 -9.99471,-14.23812 -1.06472,-0.99194 -5.21398,-2.8461 -9.22057,-4.12034 -4.006598,-1.27425 -9.804778,-3.64461 -12.884858,-5.26747 -6.29921,-3.31898 -14.48752,-11.07188 -13.45617,-12.74064 1.10423,-1.78667 8.44558,-0.1807 15.98841,3.49758 3.81265,1.85925 7.08851,3.22403 7.27969,3.03285 0.19118,-0.19118 -3.47893,-3.96974 -8.1558,-8.39679 l -8.50341,-8.0491799 -7.77629,-0.64698 c -13.08102,-1.08831 -31.22297,-8.29768 -32.08006,-12.74818 -0.68124,-3.5374001 10.48372,-3.4137501 20.05244,0.22208 2.61323,0.99295 4.74555,1.5111 4.73848,1.15144 -0.0188,-0.95682 -12.23734,-8.9160101 -16.87465,-10.9922001 -3.39506,-1.52001 -5.15812,-1.64868 -12.03196,-0.8781 -11.58805,1.29906 -28.08054,-2.07294 -28.08054,-5.74126 0,-1.65066 5.34015,-3.55614 12.40211,-4.42533 l 5.09789,-0.62745 -11,-4.26758 c -13.65142,-5.29624 -15.97658,-6.45975 -15.43168,-7.72201 0.66096,-1.53112 4.57273,-0.6811 14.43168,3.13599 13.50517,5.2288 13.50761,5.22874 8.09747,-0.18927 -5.2836,-5.2913 -9.11976,-12.32443 -7.56842,-13.87577 1.25957,-1.25957 9.92059,2.85199 17.09841,8.11695 4.1604,3.05167 6.87732,6.17175 10.01402,11.5 2.36752,4.02165 5.20253,7.9871 6.30002,8.8121 2.20695,1.659 9.54444,6 10.14165,6 0.20846,0 -1.18748,-2.84987 -3.10207,-6.33305 -6.75721,-12.29324 -3.33816,-14.27016 7.30903,-4.22614 7.02348,6.62559 11.06011,12.81613 13.29677,20.3917401 0.9805,3.32097 2.92281,5.81788 8.31875,10.69406 3.87177,3.49883 7.14341,6.25769 7.2703,6.13079 0.1269,-0.12689 -0.87328,-3.27219 -2.22261,-6.98954998 -2.64729,-7.29321002 -3.17865,-12.66785012 -1.25238,-12.66785012 2.25472,0 12.442808,11.55390012 15.019468,17.0329801 1.41404,3.00686 3.02903,8.4462199 3.58886,12.0874499 1.19833,7.79413 3.28929,12.08488 10.14101,20.80993 5.57689,7.10167 5.55006,7.13394 3.84943,-4.62817 -2.03473,-14.07294 1.83298,-13.38075 9.32257,1.66842 3.01357,6.05531 3.25042,7.30581 3.69014,19.48323 0.44477,12.31711 0.64758,13.36092 3.79466,19.52939 l 3.32478,6.51677 0.0341,-7.6849 c 0.0346,-7.80033 1.19219,-12.8151 2.95824,-12.8151 1.71904,0 7.17541,12.85603 8.76533,20.65245 1.46382,7.17807 1.43163,8.11694 -0.64601,18.84312 -1.91782,9.901089 -2.03935,12.037059 -0.98869,17.377469 0.65885,3.34885 1.5282,5.88468 1.93189,5.63519 0.40369,-0.2495 1.02228,-2.55699 1.37464,-5.12777 1.05971,-7.73162 2.61775,-12.38046 4.14925,-12.38046 2.47954,0 4.96529,10.48639 4.97795,21 0.011,9.10429 -0.14625,9.79157 -3.77428,16.5 -3.61217,6.6791 -3.80851,7.5272 -4.28275,18.5 l -0.49704,11.5 2.53559,-5.5 c 7.62116,-16.53123 10.55944,-16.98531 10.51514,-1.625 -0.0327,11.33636 -4.00873,21.97773 -13.19145,35.30534 -2.94909,4.28024 -5.54602,9.47328 -6.42975,12.85743 -1.67981,6.43273 -1.25109,8.006 1.03694,3.80516 0.85163,-1.56361 3.32973,-4.86793 5.50689,-7.34293 3.04835,-3.46537 4.23296,-4.22939 5.15231,-3.323 1.98315,1.95517 -0.82108,13.62602 -5.45558,22.70546 -2.87734,5.637 -5.52528,9.22326 -8.8562,11.99446 -2.61339,2.17424 -5.02146,3.68333 -5.35126,3.35353 -0.3298,-0.32979 1.42329,-2.76656 3.89574,-5.41504 2.47246,-2.64848 5.85429,-7.51541 7.51518,-10.81541 3.1546,-6.26781 5.69707,-14.32823 4.80187,-15.22343 -0.75009,-0.75008 -10.19504,14.15714 -13.39677,21.1445 -1.49223,3.25659 -5.42373,11.46909 -8.73667,18.25 -3.31294,6.78091 -5.92427,12.32893 -5.80296,12.32893 0.12132,0 3.19324,-2.25 6.82649,-5 6.52577,-4.93934 10.5,-6.30791 10.5,-3.6158 0,0.76132 -1.81285,5.00617 -4.02855,9.433 -2.73225,5.45887 -5.58796,9.43791 -8.8748,12.3658 -4.4723,3.98388 -6.5981,5.25868 -17.45371,10.4666 -3.12983,1.50152 -15.22148,14.10519 -14.35931,14.96736 0.13067,0.13067 3.91435,-1.58971 8.40818,-3.82307 4.76818,-2.36971 8.85185,-3.79925 9.80654,-3.4329 1.46556,0.56239 1.40628,1.03639 -0.56916,4.5512 -5.48153,9.75307 -20.653108,21.1249 -30.791258,23.07954 -3.10086,0.59785 -6.58246,1.2858 -7.73688,1.52877 -2.08204,0.43822 -14.62521,9.89765 -15.20115,11.46396 -0.16505,0.44887 1.45975,0.20981 3.61067,-0.53124 2.15092,-0.74105 6.21574,-1.65313 9.03292,-2.02685 4.35951,-0.57831 5.22329,-0.41593 5.80139,1.09058 0.92859,2.41988 -4.03105,6.45277 -14.14488,11.50177 -8.796,4.39111 -15.47368,5.98128 -25.11756,5.98128 -5.12506,0 -7.59759,0.61789 -12.86351,3.21463 -3.58541,1.76805 -6.51893,3.46587 -6.51893,3.77293 0,0.30706 3.0168,0.69377 6.70401,0.85936 3.6872,0.16559 7.59813,0.7796 8.69095,1.36445 1.92241,1.02885 1.89843,1.13952 -0.73849,3.40769 -1.49898,1.28938 -5.92612,3.3165 -9.83809,4.50472 -6.311,1.91691 -8.25137,2.067 -17.21553,1.33165 -19.12271,-1.56869 -24.24024,-0.75336 -30.35285,4.83586 -2.08113,1.90292 -2.25239,2.92616 -2.2818,13.63302 -0.0207,7.53051 -0.45751,12.12286 -1.25,13.14148 -0.97999,1.2596 -3.36922,1.55384 -12.2182,1.50471 -10.43235,-0.0579 -11.20072,0.0806 -14.88955,2.68422 -4.90393,3.46124 -8.09793,3.46446 -13.12832,0.0132 z m 11.8635,-3.51794 c 2.7326,-1.94915 4.65861,-2.29493 14.40437,-2.58605 l 11.25,-0.33606 v -19.41394 c 0,-16.44882 -0.22541,-19.41395 -1.47582,-19.41395 -1.23144,0 -1.52122,2.7736 -1.75,16.75 l -0.27418,16.75 -6.72823,0.66526 c -7.64573,0.75598 -12.89214,2.24636 -17.34186,4.92639 -2.9748,1.7917 -3.17656,1.7925 -6.5,0.0258 -5.2829,-2.80829 -10.34692,-4.225 -17.70168,-4.95221 l -6.72823,-0.66524 -0.27418,-16.75 c -0.22878,-13.9764 -0.51856,-16.75 -1.75,-16.75 -1.25036,0 -1.47582,2.96255 -1.47582,19.39207 v 19.39208 l 11.25,0.40503 c 9.41937,0.33912 11.81953,0.76288 14.75,2.60419 4.42026,2.77738 6.40274,2.76907 10.34563,-0.0434 z m -10.38577,-41.89121 c -3.05568,-2.5837 -12.43322,-5.85879 -16.77546,-5.85879 -2.16265,0 -2.1844,0.17425 -2.1844,17.5 0,9.625 -0.1125,17.8375 -0.25,18.25 -0.1375,0.4125 2.675,1.04807 6.25,1.41238 3.575,0.3643 8.525,1.53298 11,2.59705 l 4.5,1.93468 0.29177,-16.59705 0.29176,-16.59706 z m 21.32313,31.716 c 4.28065,-0.61214 7.76815,-1.44188 7.75,-1.84388 -0.0181,-0.402 -0.033,-8.60591 -0.033,-18.23091 v -17.5 h -2.53155 c -3.91216,0 -14.70926,3.92318 -17.21845,6.25641 -2.16155,2.00997 -2.25,2.75468 -2.25,18.94358 v 16.85137 l 3.25,-1.6818 c 1.7875,-0.92499 6.75235,-2.18264 11.03299,-2.79477 z m -81.03299,-25.21664 c 2.0625,-0.34091 3.75,-0.94501 3.75,-1.34244 0,-1.16783 -13.24114,-3.01571 -21.6093,-3.01571 -4.24822,0 -7.38884,0.3375 -6.97916,0.75 0.40969,0.4125 3.29719,1.50087 6.41667,2.4186 6.06494,1.78426 12.36328,2.19096 18.42179,1.18955 z m 147.8185,-0.94894 c 8.54276,-2.50202 8.22298,-3.40921 -1.20172,-3.40921 -13.1894,0 -25.33291,3.03911 -17.11678,4.28375 6.28127,0.95153 13.21367,0.62057 18.3185,-0.87454 z m -139.91225,-9.6821 c -1.6169,-2.35009 -4.92941,-6.10683 -7.36113,-8.34832 -4.68602,-4.31942 -13.55359,-9.95365 -14.37423,-9.13301 -0.80502,0.80502 6.91933,9.98938 11.66388,13.86853 4.77748,3.90606 10.92889,7.87594 12.21327,7.88195 0.43892,0.002 -0.52488,-1.91906 -2.14179,-4.26915 z m 118.57859,0.11989 c 3.50585,-2.28416 8.82472,-6.86084 11.81972,-10.17042 5.22712,-5.77616 6.37611,-7.67658 4.64122,-7.67658 -1.29301,0 -9.44756,5.40416 -13.42766,8.89873 -3.75705,3.29874 -11.30365,13.10127 -10.08618,13.10127 0.37325,0 3.54705,-1.86885 7.0529,-4.153 z m -163.73484,-8.72833 c 0,-1.98592 -28.17627,-12.27573 -29.63095,-10.82105 -1.49547,1.49547 14.75603,8.99935 23.13095,10.68037 5.60496,1.12503 6.5,1.1444 6.5,0.14068 z m 220,-2.87689 c 7.04608,-2.77277 14.49903,-7.07608 13.67767,-7.89745 -1.46483,-1.46482 -30.67767,9.22349 -30.67767,11.22426 0,1.24929 10.68487,-0.84168 17,-3.32681 z m -10.82635,-13.54447 c 4.36344,-6.37384 7.34398,-12.69731 5.98483,-12.69731 -3.21373,0 -17.15848,19.64112 -17.15848,24.16765 0,1.90996 6.77473,-5.04465 11.17365,-11.47034 z m -206.25342,3.94419 c -2.89264,-5.93264 -12.01679,-16.6415 -14.17887,-16.6415 -0.46773,0 0.83594,3.20914 2.89704,7.13141 3.50059,6.66165 12.82728,17.73624 13.97247,16.59105 0.2817,-0.2817 -0.92909,-3.46813 -2.69064,-7.08096 z m -42.92023,-18.73378 c -7.10827,-6.11513 -27,-18.03278 -27,-16.1764 0,1.59121 10.31878,11.32287 14.84418,13.99959 5.06728,2.99722 10.81642,5.17994 13.65582,5.18456 1.66671,0.003 1.41675,-0.49851 -1.5,-3.00775 z m 288.57186,1.43331 c 6.31709,-2.12654 15.368928,-8.23267 19.332528,-13.04121 1.70259,-2.06553 3.09561,-4.11056 3.09561,-4.54451 0,-1.93953 -19.626648,9.79962 -26.999998,16.14932 -4.06882,3.50394 -2.7763,3.91003 4.57186,1.4364 z m -283.20181,-9.85573 c -0.85164,-3.26126 -2.23642,-7.2921 -3.07729,-8.95743 -1.95993,-3.88157 -6.37004,-9.78392 -6.90822,-9.24574 -0.6997,0.6997 3.58502,13.54453 5.83451,17.49083 2.31116,4.05447 4.9262,7.41513 5.40072,6.9406 0.16429,-0.16428 -0.39809,-2.967 -1.24972,-6.22826 z m 278.01305,-2.7353 c 4.30965,-8.91788 6.3932,-15.75 4.80319,-15.75 -1.49496,0 -7.06313,10.61016 -9.10801,17.35534 -2.40778,7.94222 -2.36412,7.64466 -1.1218,7.64466 0.52606,0 2.96804,-4.1625 5.42662,-9.25 z M -431.7375,276.61308 c -4.64569,-6.03742 -15.65817,-16.02728 -17.66793,-16.02728 -1.52355,0 3.81312,8.87285 8.0255,13.34333 3.44535,3.65645 13.10027,10.01117 13.9378,9.17364 0.21706,-0.21706 -1.71586,-3.13742 -4.29537,-6.48969 z m 363.720848,-1.85026 c 4.40758,-4.12278 10.55928,-13.70923 9.48603,-14.78248 -1.45436,-1.45436 -22.52506,19.79135 -22.68734,22.87578 -0.0836,1.58968 8.42832,-3.62873 13.20131,-8.0933 z m -351.259198,3.57298 c -0.0404,-7.56081 -6.09522,-28.75 -8.21533,-28.75 -2.2038,0 0.3708,16.04555 4.21197,26.25 2.41261,6.40936 4.02964,7.41915 4.00336,2.5 z m 332.988648,0.5 c 2.71308,-5.7733 5.07217,-15.03559 5.66706,-22.25 0.70652,-8.56825 -0.27093,-8.62491 -3.56923,-0.2069 -1.81039,4.62054 -5.06912,19.94492 -5.06912,23.83789 0,2.28133 1.59962,1.53786 2.97129,-1.38099 z M -441.33028,233.26992 c 2.0332,-9.50008 1.33021,-23.71678 -0.96732,-19.56254 -1.51551,2.74026 -3.10873,17.16805 -2.43597,22.0596 0.82341,5.98693 1.72992,5.32181 3.40329,-2.49706 z m 377.554328,-7.18412 c -0.8874,-8.73212 -2.57318,-14.96373 -3.60686,-13.33308 -1.87755,2.96185 -0.69851,19.96202 1.861,26.83308 1.03944,2.79041 2.36205,-7.43673 1.74586,-13.5 z m -389.842668,-28.75 c 0.60203,-2.3375 2.05434,-7.80948 3.22736,-12.15996 2.14216,-7.94479 2.96462,-22.59004 1.26863,-22.59004 -1.06313,0 -3.69944,6.85281 -5.10981,13.28242 -1.49706,6.8248 -2.52948,25.71758 -1.40538,25.71758 0.50854,0 1.41718,-1.9125 2.0192,-4.25 z m 410.384928,-4.75 c 4.75339,-8.07647 7.65062,-16.55108 8.46132,-24.75 0.86198,-8.71763 -0.37152,-9.45253 -3.35693,-2 -4.45283,11.11566 -10.80622,34.562 -8.87446,32.75 0.29318,-0.275 1.98971,-2.975 3.77007,-6 z m -418.497318,1.25 c -1.75171,-9.45031 -10.43226,-33.25 -12.1274,-33.25 -1.1219,0 0.88859,13.66031 2.86162,19.44333 1.97755,5.79629 8.27249,17.55667 9.39749,17.55667 0.30987,0 0.2506,-1.6875 -0.13171,-3.75 z m 8.78047,-58 c 4.23507,-6.16844 7.75443,-13.81664 7.65042,-16.62573 -0.0727,-1.96489 -6.89687,6.55069 -9.47918,11.82873 -2.93424,5.99737 -4.65127,11.547 -3.57259,11.547 0.42185,0 2.85246,-3.0375 5.40135,-6.75 z m 402.747158,3.94217 c -2.28001,-7.94993 -12.91305,-24.46092 -13.00371,-20.19217 -0.0765,3.60417 10.92427,23 13.04501,23 0.42019,0 0.4016,-1.26352 -0.0413,-2.80783 z M -464.87826,135.8358 c -0.17941,-2.6125 -0.51011,-8.63232 -0.7349,-13.37738 -0.58357,-12.31853 -1.98884,-14.05653 -3.62615,-4.48473 -1.41592,8.27751 -0.90599,14.99653 1.48973,19.62934 2.22533,4.30331 3.24509,3.67566 2.87132,-1.76723 z m 424.621568,-0.47582 c 1.94663,-4.52506 2.16149,-6.26418 1.60231,-12.9692 -0.35517,-4.25886 -1.01054,-8.72945 -1.45637,-9.93465 -0.76904,-2.0789 -0.84903,-2.0933 -1.56,-0.2808 -0.41216,1.05076 -0.95277,6.18547 -1.20134,11.41047 -0.24858,5.225 -0.61939,11.1875 -0.82402,13.25 -0.51958,5.23679 0.79425,4.67304 3.43942,-1.47582 z M -442.09589,93.748981 c 4.68542,-5.21227 10.42244,-14.91147 9.41559,-15.91832 -1.60945,-1.60946 -19.57819,20.33225 -19.57819,23.907009 0,1.55125 5.40933,-2.700959 10.1626,-7.988689 z m 382.726288,2.24295 c -3.97424,-6.62522 -15.34962,-19.22758 -16.41827,-18.18919 -1.32251,1.28506 7.19991,14.18135 12.99118,19.65849 3.10823,2.939629 5.91337,5.082729 6.23365,4.762449 0.32029,-0.32028 -0.94266,-3.124569 -2.80656,-6.231749 z M -455.7875,92.835801 c 2.07185,-6.48781 3.4712,-27.44662 1.71924,-25.75 -1.76126,1.70563 -4.98747,12.74681 -5.25956,18 -0.39839,7.69184 -0.0169,13.5 0.88671,13.5 0.44956,0 1.64368,-2.5875 2.65361,-5.75 z m 407.048618,-0.58848 c 0.71532,-6.67957 -0.7162,-14.36008 -4.13054,-22.16152 -1.38108,-3.15564 -1.84212,-3.58573 -2.18409,-2.0375 -1.3574,6.14545 2.54003,30.5375 4.87938,30.5375 0.41605,0 1.06191,-2.85232 1.43525,-6.33848 z M -417.52946,50.331201 c 2.32597,-2.26636 4.05822,-4.29148 3.84944,-4.50026 -1.57754,-1.57754 -20.57847,12.12243 -20.57847,14.8374 0,1.51359 12.48284,-6.19976 16.72903,-10.33714 z m 342.833258,8.99001 c -2.7712,-4.22939 -19.56229,-15.35685 -19.56229,-12.96394 0,1.81937 8.88743,9.22295 14.5,12.07906 3.3,1.6793 6.12287,3.07492 6.27305,3.10137 0.15018,0.0265 -0.39466,-0.97097 -1.21076,-2.21649 z m 6.15586,-9.2791 c -0.41419,-5.47647 -1.41761,-9.35386 -3.66168,-14.14933 -1.70013,-3.6331 -3.31627,-6.38052 -3.59141,-6.10537 -1.21552,1.21552 5.39883,27.79839 6.91679,27.79839 0.51272,0 0.65887,-3.27852 0.3363,-7.54369 z m -369.718148,6.0588 c 0,-0.26669 1.06381,-4.20419 2.36402,-8.75 2.64443,-9.2455 3.84269,-16.76511 2.67154,-16.76511 -0.42578,0 -1.92648,2.65708 -3.3349,5.90462 -2.83774,6.5433 -4.74618,20.09538 -2.82987,20.09538 0.62107,0 1.12921,-0.2182 1.12921,-0.48489 z m 36.39352,-30.56116 c 5.76435,-2.15671 14.33883,-8.84002 11.43426,-8.91232 -2.02873,-0.0505 -16.34698,7.22155 -19.82778,10.07026 l -2.5,2.04603 2.79073,-0.60824 c 1.53491,-0.33453 5.18116,-1.5026 8.10279,-2.59573 z m 302.106478,0.5215 c -4.214728,-3.44572 -17.022178,-9.80234 -18.647188,-9.25501 -2.93618,0.98895 15.45023,11.66368 20.147188,11.69699 0.91912,0.007 0.33824,-0.93914 -1.5,-2.44198 z m -308.683858,-12.8193 c 3.80724,-6.2819299 9.28226,-18.8953899 8.52452,-19.6389799 -0.8467,-0.8309 -7.13056,7.09279002 -9.37492,11.82138 -2.17687,4.5863999 -4.16268,13.1614499 -3.04792,13.1614499 0.36278,0 2.11703,-2.40473 3.89832,-5.34385 z m 312.703428,2.09385 c -1.61955,-8.2327199 -12.575268,-25.9266 -12.491568,-20.1743099 0.0589,4.05084002 10.230558,23.4180599 12.301458,23.4225199 0.4562,9.9e-4 0.54175,-1.46071 0.19011,-3.24821 z M -124.25849,0.02891112 c 0,-1.19850002 -15.13412,-7.36885002 -20.81494,-8.48648002 -8.26944,-1.6269201 -9.64633,-0.7577 -3.64235,2.29936 6.66965,3.39601 14.07101,5.49905002 23.20729,6.59418002 0.6875,0.0824 1.25,-0.10077 1.25,-0.40706 z M -363.89683,-4.4209889 c 9.01298,-3.75211 9.93778,-5.48733 2.38834,-4.48124 -5.50612,0.73379 -13.17756,3.58405 -18.25,6.78065 l -3,1.89057002 5.61166,-0.50507 c 3.08642,-0.27778002 9.04892,-1.93599002 13.25,-3.68491002 z m -12.44732,-10.2432101 c 4.44759,-4.38666 10.05976,-13.13797 10.07628,-15.71241 0.0165,-2.57247 -9.7587,8.05008 -12.99429,14.12067 -1.71249,3.21296 -2.72603,5.84174 -2.25232,5.84174 0.47371,0 2.80036,-1.9125 5.17033,-4.25 z m 246.56766,-2.60573 c -2.74123,-5.03656 -11.99129,-14.96831 -13.00074,-13.95886 -0.96859,0.96859 6.11821,12.09956 10.6301,16.69631 5.09954,5.1954501 6.07513,4.0689 2.37064,-2.73745 z m -200.81391,-6.24692 c 3.48255,-0.60647 6.33191,-1.44759 6.33191,-1.86916 0,-0.86611 -5.94384,-2.0006 -10.5685,-2.01718 -1.68767,-0.006 -5.51267,0.74424 -8.5,1.66732 -5.27384,1.62961 -5.34442,1.69874 -2.4315,2.38168 4.60491,1.07963 8.25933,1.04044 15.16809,-0.16266 z m 166.83191,0.0347 5,-0.0952 -3.40278,-1.48363 c -1.87153,-0.816 -5.54086,-1.73686 -8.15407,-2.04636 -5.3377,-0.63217 -13.94315,0.38056 -13.94315,1.6409 0,1.01914 10.75652,2.97786 13.5,2.45831 1.1,-0.20832 4.25,-0.42161 7,-0.47399 z m 1.53914,-12.87109 c -3.84808,-5.9967 -17.13107,-15.6091 -17.01208,-12.31099 0.0772,2.14015 18.69228,18.86399 19.78308,17.77319 0.24593,-0.24593 -1.00102,-2.70392 -2.771,-5.4622 z m -179.08821,-0.0858 c 6.6838,-5.18772 12.69314,-11.66441 11.72293,-12.63462 -1.2167,-1.2167 -12.80347,6.99045 -15.50673,10.98374 -5.73964,8.47866 -5.2745,8.68161 3.7838,1.65088 z m 35.36319,430.917609 c -7.74939,-1.41916 -28.58491,-8.05191 -37.73553,-12.01268 -37.67206,-16.30605 -67.44231,-38.91046 -94.66685,-71.88009 -9.31387,-11.27935 -19.73841,-27.81 -28.60268,-45.35655 -8.13986,-16.11259 -17.19935,-45.98496 -20.96936,-69.14345 -2.55434,-15.69086 -2.54518,-56.27683 0.0163,-72.5 8.38595,-53.111369 32.71556,-100.542599 70.29315,-137.038429 21.56157,-20.94087 42.65907,-35.16539 69.46809,-46.83733 12.81425,-5.57898 16.21956,-6.80948 29.24458,-10.56743 10.9167,-3.14967 14.63813,-3.3116 14.63813,-0.63696 0,1.56203 -1.32917,2.22216 -7.1316,3.54189 -8.76031,1.99249 -28.51467,9.08773 -39.98078,14.36003 -16.321,7.50465 -36.52414,20.64592 -51.88762,33.75064 -42.68699,36.41112 -70.70318,86.96266 -79.74709,143.893169 -1.34117,8.44259 -1.74865,17.02402 -1.73476,36.53442 0.0203,28.54041 1.37351,39.24316 8.07076,63.83312 17.28191,63.45318 60.88218,116.61022 120.61394,147.05139 13.16887,6.71127 36.78596,15.29446 49.99691,18.17044 5.69011,1.23872 7.7413,2.99509 5.4908,4.7016 -0.65481,0.49652 -3.0742,0.55781 -5.37644,0.1362 z m 98.13203,-0.97988 c -1.07452,-1.7386 0.537,-2.57422 9.27371,-4.80869 55.91958,-14.30182 104.400588,-48.94977 136.572258,-97.60418 14.36533,-21.72523 24.06129,-43.48092 31.19721,-70 8.75646,-32.54142 10.15416,-69.61026 3.96329,-105.11137 -1.74268,-9.99325 -6.27244,-26.966759 -9.978,-37.388629 -3.41889,-9.61564 -14.88621,-33.45369 -20.44467,-42.5 -22.93087,-37.3196999 -59.253008,-70.30679 -97.627238,-88.66325 -12.85665,-6.15003 -33.1971,-13.54709 -43.65271,-15.87487 -4.99785,-1.11269 -5.75,-1.58634 -5.75,-3.62101 0,-1.35551 0.59774,-2.34087 1.42003,-2.34087 0.78101,0 6.81731,1.5535 13.414,3.45223 67.60794,19.4596 122.319948,67.7327801 151.371458,133.55718 14.41962,32.6717 20.46888,65.066959 19.51183,104.490589 -0.56995,23.47804 -2.41374,36.42671 -8.22528,57.76485 -21.83247,80.16202 -83.863688,143.60354 -162.558448,166.25426 -12.58027,3.62099 -17.34748,4.23825 -18.48744,2.39376 z m 26.41414,-63.16289 c -0.83708,-0.6875 -3.4568,-4.69983 -5.82158,-8.9163 -5.93921,-10.58975 -10.96023,-15.99199 -24.82461,-26.70943 -6.568,-5.0772 -12.45308,-10.35336 -13.07796,-11.72482 -1.37164,-3.01042 -1.48445,-11.00879 -0.21157,-15.00023 0.50852,-1.59457 1.6829,-6.47072 2.60974,-10.83588 1.29477,-6.09801 2.36102,-8.61252 4.60252,-10.85402 l 2.91735,-2.91735 15.35725,0.71974 c 17.46786,0.81866 21.01954,0.14169 25.17668,-4.79879 2.57975,-3.06586 2.63492,-3.40744 1.98365,-12.27989 l -0.66992,-9.12631 3.54908,-4.24798 c 1.95199,-2.33638 3.54908,-4.40721 3.54908,-4.60183 0,-0.19463 -1.125,-1.56776 -2.5,-3.05141 -1.375,-1.48365 -2.5,-3.0758 -2.5,-3.5381 0,-0.46231 1.62764,-1.52063 3.61699,-2.35183 3.24061,-1.35402 3.54648,-1.79766 2.9394,-4.26342 -2.47325,-10.0456 -1.96936,-12.3518 3.17211,-14.51806 2.07433,-0.87398 5.11898,-1.88286 6.76591,-2.24197 7.96978,-1.73776 7.44639,-4.9356 -3.47544,-21.23471 -10.92955,-16.31064 -11.82502,-19.03326 -9.63026,-29.28026 0.88621,-4.13756 1.61071,-9.31256 1.61,-11.5 -0.002,-6.24658 -4.654,-23.862159 -8.49964,-32.185539 -1.92449,-4.1653 -3.49907,-8.17453 -3.49907,-8.90939 0,-0.73486 1.07949,-2.04342 2.39887,-2.90792 3.32406,-2.178 4.97515,-6.6398 4.14739,-11.20763 -0.51907,-2.86442 -2.17849,-5.20388 -6.92767,-9.76667 -15.41704,-14.81198 -45.21282,-24.51552 -75.99145,-24.748 -13.48665,-0.10187 -20.77404,0.92105 -30.97341,4.34772 -13.02909,4.37736 -19.9369,9.17762 -25.32253,17.5967 -2.11051,3.29926 -5.3225,6.51948 -8.59994,8.62197 -10.1715,6.52504 -15.3328,14.43293 -20.02519,30.68161 -2.88772,9.99954 -3.08151,33.255949 -0.38235,45.885689 2.98517,13.96801 3.58275,15.44581 19.78821,48.93528 5.40829,11.17653 10.29308,21.97653 10.85508,24 3.81518,13.73627 -3.13043,40.9365 -12.80266,50.13747 -2.09691,1.99474 -11.42921,7.57257 -20.73846,12.39518 -15.1645,7.8559 -25.58476,14.44721 -35.12427,22.21779 l -3.19839,2.6053 -5.0452,-4.7192 c -11.82584,-11.06168 -24.32338,-28.92023 -33.56104,-47.95751 -21.87057,-45.07164 -25.18993,-94.95762 -9.48179,-142.499999 4.14171,-12.53534 14.51848,-33.76565 21.58526,-44.16229 22.70543,-33.40421 56.00848,-59.4577899 91.89755,-71.89312 9.81045,-3.39926 13.81228,-3.78494 13.32531,-1.28424 -0.21658,1.11223 -3.79715,2.87939 -10.8462,5.35306 -28.30534,9.9329801 -55.77379,28.25568 -74.54133,49.72244 -8.43762,9.65116 -21.28569,28.35441 -26.78404,38.99019 -8.40391,16.25618 -15.60481,39.690329 -18.21384,59.273959 -1.67014,12.53623 -1.85465,35.80221 -0.37017,46.67764 2.63977,19.3392 10.06836,43.68319 18.40743,60.32236 4.9145,9.80603 16.01654,26.31338 24.64448,36.64325 3.78529,4.53197 7.33205,8.51788 7.88169,8.85758 0.54965,0.3397 3.1367,-1.16894 5.74901,-3.35252 6.12091,-5.11637 19.84306,-13.41781 33.75208,-20.41888 6.04866,-3.04458 12.81039,-6.85983 15.02606,-8.47833 8.00289,-5.84594 14.47151,-23.14968 14.47151,-38.71171 v -8.14069 l -9.57639,-19.94935 c -19.8405,-41.33137 -21.40634,-45.76856 -23.52198,-66.65552 -3.10185,-30.623449 6.232,-57.329009 24.02842,-68.748949 2.91126,-1.86815 6.01011,-4.97343 7.49977,-7.51533 5.31876,-9.07579 17.17417,-16.66467 32.22823,-20.62991 11.08874,-2.92078 35.15163,-3.65852 49.19003,-1.50811 13.05466,1.99972 29.39076,6.69065 37.4264,10.74703 25.82053,13.03416 35.04711,26.6517 26.11601,38.54472 -1.31477,1.7508 -2.39049,3.60731 -2.39049,4.12557 0,0.51826 1.17715,3.58578 2.61588,6.81672 3.37589,7.58117 8.38412,27.308909 8.38412,33.025599 0,2.44079 -0.73724,7.37278 -1.63832,10.95997 -2.40279,9.56557 -0.55357,14.29068 12.67572,32.38886 6.17127,8.44255 7.53776,13.17136 5.19168,17.96617 -1.52186,3.11032 -2.49807,3.73956 -8.14573,5.25048 -8.19189,2.19158 -8.71287,2.73885 -7.25125,7.61727 1.67717,5.5979 1.45222,8.23453 -0.91778,10.75728 -1.74657,1.85914 -1.89554,2.57537 -0.91626,4.40518 1.44257,2.69546 0.0135,6.70465 -3.59973,10.09913 -2.33741,2.19589 -2.41325,2.65875 -1.7895,10.92144 0.70518,9.34144 0.16307,11.32205 -4.45324,16.26972 -4.45232,4.77191 -11.23449,6.05116 -27.71388,5.22735 l -14.26515,-0.71311 -1.61167,2.45972 c -0.88642,1.35284 -2.26046,5.56014 -3.05343,9.34954 -0.79297,3.78941 -1.97298,9.28223 -2.62226,12.20627 -1.49418,6.72913 -0.62525,8.04508 11.67655,17.68356 13.46442,10.5494 20.34989,17.92794 25.43425,27.25563 5.4003,9.90729 4.81637,9.87904 19.81007,0.95835 48.3224,-28.74999 81.112128,-78.52277 89.242078,-135.46392 1.83867,-12.8778 0.69968,-46.24432 -2.00547,-58.75006 C -85.905782,83.894121 -107.187,47.046511 -136.314,21.752601 c -16.77578,-14.5680799 -40.24464,-28.2083799 -59.69444,-34.69489 -9.67366,-3.22616 -11.5734,-4.40005 -10.32475,-6.37988 2.90761,-4.6102 42.14944,13.8712101 63.71033,30.00514 31.96923,23.92246 57.551378,62.79642 67.368808,102.371879 7.35565,29.65168 7.81079,58.3127 1.37969,86.8812 -10.95459,48.66289 -39.298468,90.0589 -80.384128,117.40039 -6.77475,4.50843 -23.9613,14.24936 -25.14106,14.24936 -0.26218,0 -1.16157,-0.5625 -1.99865,-1.25 z M -261.56657,-3.8651289 c -0.79801,-0.79802 -1.74812,-3.03508 -2.11134,-4.97126 -0.64784,-3.4532301 -3.68574,-6.5778101 -6.39536,-6.5778101 -0.75337,0 -2.51393,0.9 -3.91235,2 -4.0121,3.15592 -6.5123,2.52052 -11.63603,-2.95716 -2.55026,-2.72644 -4.63684,-5.61691 -4.63684,-6.42327 0,-0.80637 1.12978,-2.80878 2.51062,-4.44982 2.06656,-2.45597 2.34033,-3.43158 1.54787,-5.51592 -1.05902,-2.78541 -3.83779,-4.65383 -6.92132,-4.65383 -3.75811,0 -5.13717,-2.66056 -5.13717,-9.91091 0,-6.28218 0.18285,-6.85137 2.54705,-7.92857 1.40088,-0.63829 3.40037,-1.16052 4.4433,-1.16052 2.24273,0 5.01889,-3.60281 4.98741,-6.47251 -0.0122,-1.11512 -0.90222,-3.15249 -1.97776,-4.52749 -2.87501,-3.67549 -2.47704,-5.46701 2.32858,-10.48244 4.82874,-5.03955 7.24318,-5.55979 12.05339,-2.59713 2.79073,1.71885 3.45918,1.7764 6.36803,0.54828 2.20904,-0.93267 3.25,-2.04927 3.25,-3.48618 0,-2.39429 1.75435,-6.11858 3.3997,-7.21722 0.60517,-0.40408 3.65566,-0.74158 6.77887,-0.75 6.25855,-0.0169 8.42456,1.32017 9.40345,5.80462 1.01677,4.65793 1.19511,4.90673 4.29079,5.98589 2.52101,0.87882 3.44572,0.73146 5.4873,-0.87444 1.35044,-1.06226 3.60621,-1.93138 5.01282,-1.93138 2.82679,0 8.4598,4.45042 10.53065,8.31984 1.17637,2.19807 1.06243,2.96832 -0.97543,6.59421 -3.27254,5.82269 -2.02636,9.05963 4.26796,11.08595 2.56267,0.825 4.98345,1.82903 5.3795,2.23119 0.39606,0.40215 0.66924,3.71608 0.60707,7.36429 -0.12488,7.32802 -1.47646,9.31486 -6.37598,9.37272 -2.89273,0.0342 -5.8067,3.19307 -5.8067,6.2948 0,0.99989 0.94663,3.09838 2.10363,4.6633 2.64019,3.57104 2.06018,5.50356 -3.26643,10.88342 -4.66714,4.7138 -6.73346,5.1124 -10.94741,2.11181 -2.27047,-1.61673 -3.51077,-1.8812 -5.58292,-1.19049 -2.88974,0.96325 -3.88267,2.31168 -4.74881,6.4490301 -0.94272,4.50319 -3.10521,5.81993 -9.55806,5.81993 -3.78498,0 -6.37046,-0.51332 -7.30808,-1.45093 z m 12.61008,-7.7639801 c 0.63156,-4.7086 1.73454,-5.81697 7.77128,-7.80928 3.89182,-1.28441 4.4456,-1.22167 8.17813,0.92649 l 4.00363,2.3042 3.00823,-3.00823 3.00823,-3.00824 -2.13575,-2.99938 c -2.57762,-3.61994 -2.65481,-6.41832 -0.32038,-11.61539 1.50563,-3.35196 2.41395,-4.08167 6.22377,-5 4.20542,-1.01369 4.47861,-1.28966 4.77087,-4.81935 0.32905,-3.97396 -0.64389,-4.83905 -6.94778,-6.17759 -1.91873,-0.40741 -3.07726,-1.65847 -4.25,-4.58944 -2.13614,-5.33873 -2.034,-7.58781 0.5066,-11.15576 l 2.11883,-2.97562 -2.80592,-2.92875 c -3.34808,-3.49464 -3.76527,-3.53951 -7.58973,-0.81625 -2.66072,1.8946 -3.39869,1.99068 -7.15437,0.93151 -5.86621,-1.65437 -7.53547,-3.16119 -8.46659,-7.64269 -0.79417,-3.82237 -0.89976,-3.90132 -5.21798,-3.90132 -4.37476,0 -4.41529,0.0324 -5.47075,4.36725 -0.98848,4.05979 -1.43395,4.50549 -6.32782,6.33107 l -5.2645,1.96383 -3.65015,-2.15364 c -4.03923,-2.38321 -6.71821,-1.75475 -9.15535,2.14773 -1.0452,1.67364 -1.01522,2.32932 0.1687,3.68955 3.69295,4.24289 3.83902,5.79917 1.08938,11.6065 -1.97024,4.16121 -3.15979,5.55112 -4.75965,5.56136 -5.57818,0.0357 -6.75214,1.01486 -6.43408,5.36636 0.28742,3.93208 0.49152,4.16593 4.47511,5.12729 5.10271,1.23143 5.31559,1.43676 7.5257,7.25908 1.76919,4.66076 1.76731,4.68515 -0.64422,8.32921 -2.19868,3.32242 -2.28376,3.84727 -0.93574,5.77185 2.67307,3.81634 5.12196,4.48093 8.04345,2.18289 3.22669,-2.53812 4.97623,-2.56249 10.60957,-0.14775 4.52618,1.94014 5.72728,3.51564 5.72728,7.51254 0,3.1192701 0.71889,3.5848801 5.535,3.5848801 4.18156,0 4.20437,-0.0202 4.767,-4.2149101 z m -9.45936,-17.72857 c -5.47911,-1.71959 -8.93646,-4.60379 -11.36814,-9.48354 -3.94575,-7.91809 -3.12197,-13.61029 2.91111,-20.11526 7.20081,-7.76403 17.07458,-8.29226 24.48285,-1.30978 6.6933,6.30859 8.09455,15.42431 3.46784,22.55975 -4.24307,6.54379 -13.12476,10.34768 -19.49366,8.34883 z m 9.87429,-5.72648 c 9.67527,-4.59122 9.67527,-19.06886 0,-23.66008 -1.93555,-0.91848 -4.50817,-1.66996 -5.71693,-1.66996 -3.66053,0 -9.12381,3.15575 -11.11432,6.41996 -6.91066,11.3327 4.88106,24.58081 16.83125,18.91008 z"
       id="path1" />
  </g>
</svg>
