<?xml version="1.0" encoding="UTF-8" standalone="no"?>
<!-- Created with Inkscape (http://www.inkscape.org/) -->

<svg
   version="1.1"
   id="svg1"
   width="713.89032"
   height="622.71497"
   viewBox="0 0 713.89032 622.71497"
   sodipodi:docname="viber_image_2026-06-13_03-56-14-983.jpg"
   xmlns:inkscape="http://www.inkscape.org/namespaces/inkscape"
   xmlns:sodipodi="http://sodipodi.sourceforge.net/DTD/sodipodi-0.dtd"
   xmlns="http://www.w3.org/2000/svg"
   xmlns:svg="http://www.w3.org/2000/svg">
  <defs
     id="defs1" />
  <sodipodi:namedview
     id="namedview1"
     pagecolor="#ffffff"
     bordercolor="#000000"
     borderopacity="0.25"
     inkscape:showpageshadow="2"
     inkscape:pageopacity="0.0"
     inkscape:pagecheckerboard="0"
     inkscape:deskcolor="#d1d1d1">
    <inkscape:page
       x="0"
       y="0"
       width="713.89032"
       height="622.71497"
       id="page2"
       margin="0"
       bleed="0" />
  </sodipodi:namedview>
  <g
     inkscape:groupmode="layer"
     inkscape:label="Image"
     id="g1"
     transform="translate(840.83173,683.37341)">
    <path
       style="fill:#000000"
       d="m -301.04275,-61.506911 c -2.75,-0.42577 -6.8,-1.24132 -9,-1.81234 -15.36549,-3.98819 -20.71728,-5.65037 -26,-8.07517 -3.3,-1.51472 -7.96347,-3.5957 -10.36327,-4.6244 -2.3998,-1.02869 -7.68067,-4.17943 -11.73526,-7.00163 -24.70792,-17.197939 -44.1574,-43.360069 -53.50735,-71.974509 -1.73436,-5.30781 -3.68929,-9.85622 -4.34429,-10.10756 -0.655,-0.25135 -3.85917,0.86493 -7.12037,2.48062 -8.7809,4.3503 -23.78548,9.1733 -33.42946,10.7454 -16.13878,2.63085 -36.91611,1.49014 -50,-2.74506 -17.37507,-5.62424 -26.62402,-10.64146 -40.5,-21.96976 -7.20697,-5.88374 -8.81095,-7.55278 -16.5,-17.16929 -2.475,-3.09542 -4.82992,-5.64932 -5.23315,-5.67535 -0.40324,-0.026 -1.90777,2.27068 -3.34342,5.10379 -6.12444,12.08599 -17.31692,22.7832 -26.17343,25.01524 -4.72902,1.19181 -4.99703,1.76391 -2.56514,5.47545 2.49788,3.81225 2.96102,17.35748 0.90888,26.58149 -1.53046,6.87909 -1.53027,7.86255 0.003,13.84099 4.66573,18.19745 -2.13331,37.754719 -16.84752,48.461459 -7.79713,5.67356 -15.05694,7.84635 -24.09059,7.21007 -5.55307,-0.39113 -8.60062,-1.35502 -16.17928,-5.11726 -13.7056,-6.80382 -18.9565,-13.56958 -21.57031,-27.793259 -2.47652,-13.47663 1.76199,-27.03502 11.86175,-37.94396 5.75023,-6.21093 11.23448,-9.57529 19.47964,-11.94993 4.6967,-1.35267 4.75,-1.41521 4.75,-5.57298 0,-4.54096 3.3404,-9.6969 7.04392,-10.87235 1.56734,-0.49745 1.95608,-1.53346 1.95608,-5.21303 0,-4.18369 -0.47475,-5.08993 -5.33684,-10.18733 -10.04995,-10.53632 -12.53136,-25.881 -7.69515,-47.5857 5.45906,-24.5 6.98569,-33.46089 6.985,-41 -0.001,-13.01474 -0.73564,-14.76798 -10.0194,-23.91724 -4.51086,-4.44552 -8.92437,-9.20776 -9.80779,-10.58276 -0.88342,-1.375 -3.05641,-4.42507 -4.82888,-6.77794 -18.3977,-24.42212 -28.79993,-65.92113 -37.27897,-148.72206 -1.85226,-18.08802 -4.23314,-35.4034 -8.5938,-62.5 -2.01206,-12.50266 -9.98219,-44.22739 -12.55397,-49.97045 -1.1156,-2.49125 -3.09749,-7.34173 -4.4042,-10.77883 -5.90506,-15.53241 -25.79916,-42.77556 -32.67625,-44.74716 -1.25936,-0.36105 -8.36475,-2.61676 -15.78975,-5.01269 -18.81571,-6.07154 -19.86113,-6.20346 -24.45523,-3.08582 -17.29091,11.73393 -41.16612,-0.37041 -40.83065,-20.70048 0.32183,-19.50363 20.43837,-31.46521 38.08609,-22.64654 3.36581,1.68191 7.23364,4.38191 8.59516,6 2.98265,3.54468 5.40326,3.67728 25.60463,1.40264 14.24488,-1.60394 22.76819,-1.21672 46.86461,2.12911 13.03682,1.81018 17.20705,2.79129 29.63539,6.97214 12.10286,4.07137 22.94701,6.43808 29.49893,6.43808 3.67126,0 6.05613,-0.73847 9.6999,-3.00356 7.22429,-4.49087 14.36435,-5.67714 24.95437,-4.14598 20.77977,3.00445 44.61745,16.64739 59.59911,34.11019 9.88178,11.51832 11.89013,14.54528 18.39027,27.71756 l 6.6764,13.52946 6.59051,-0.47848 c 3.62478,-0.26317 16.49051,-1.4359 28.59051,-2.60608 12.1,-1.17017 29.65,-2.8162 39,-3.65784 9.35,-0.84163 28.475,-2.62222 42.5,-3.95687 14.025,-1.33464 33.825,-3.13592 44,-4.00285 10.175,-0.86692 24.63756,-2.27611 32.13903,-3.13154 24.95528,-2.84576 48.1837,-1.20496 100.86097,7.12458 14.2412,2.25188 31.8401,4.73057 43,6.05627 2.475,0.29401 11.115,1.64461 19.2001,3.00133 8.085,1.35672 21.135,3.35209 29,4.43415 17.9608,2.47106 21.1547,3.39113 25.454,7.33274 l 3.4653,3.17692 0.1903,14 c 0.2222,16.34338 -0.6003,19.2202 -6.7015,23.44129 -4.6619,3.22526 -4.1891,1.99872 -21.6113,56.05871 -5.0516,15.675 -10.6999,32.775 -12.5517,38 -1.8517,5.225 -3.8816,11.525 -4.5109,14 -0.6292,2.475 -4.1948,13.61231 -7.9236,24.74958 l -6.7795,20.24958 6.6344,5.13047 c 26.8094,20.73213 44.4631,50.78197 52.0265,88.55884 3.5452,17.7071 4.3943,30.75286 3.2014,49.1886 -2.0695,31.98295 -9.385,59.05386 -23.2369,85.98767 -11.7046,22.75854 -19.4243,33.65442 -35.7658,50.48112 -24.0749,24.789699 -52.7904,40.296629 -82.59684,44.603849 -7.99532,1.15538 -24.61422,1.16922 -31.99396,0.0267 z m 40.59643,-8.88298 c 16.57037,-4.03913 24.22237,-7.33435 40.17957,-17.3029 20.1964,-12.616699 40.698,-33.648259 53.8973,-55.290479 12.4482,-20.41072 18.6458,-34.20656 24.7623,-55.12117 8.6933,-29.72566 10.2134,-64.99401 4.0852,-94.77791 -3.4816,-16.92052 -12.5721,-38.98511 -21.292,-51.67967 -2.3258,-3.38605 -5.0087,-7.34103 -5.962,-8.78885 -3.3486,-5.08594 -17.9,-18.93194 -25.0455,-23.83135 -18.0815,-12.39784 -40.4321,-19.539 -61.0193,-19.49599 -17.73159,0.037 -30.07613,2.69749 -47.29121,10.19202 -12.91092,5.62073 -21.99344,10.98897 -31.71293,18.74399 -38.43474,30.66646 -64.8938,79.80614 -71.1982,132.22907 -1.90105,15.80783 -1.89992,29.12041 0.004,45.39537 1.81825,15.54376 3.36628,22.46368 8.02774,35.88507 16.04867,46.2078 48.05248,76.513709 90.02538,85.249269 9.84494,2.04897 31.27,1.3406 42.53978,-1.40647 z m -37.09643,-8.73122 c -6.94998,-1.33282 -24.74755,-7.7538 -31.12754,-11.23015 -10.35912,-5.64451 -25.53784,-18.555779 -33.61773,-28.595809 -11.89718,-14.78336 -19.88669,-31.4627 -25.66133,-53.57203 -7.43159,-28.45325 -7.5613,-50.99158 -0.47953,-83.32445 11.21356,-51.19719 43.10019,-94.74785 86.00222,-117.46154 6.8393,-3.62095 14.05274,-6.15432 29.38391,-10.31971 7.77768,-2.11315 35.213,-1.834 43.7789,0.44545 33.2607,8.85095 58.9606,31.85853 73.8666,66.12816 4.2234,9.70982 7.9286,21.86023 10.4704,34.33577 2.3855,11.70852 3.0413,43.79068 1.1,53.81009 -0.8442,4.35713 -2.0769,11.07206 -2.7394,14.92206 -5.307,30.84165 -22.1858,65.5278 -43.6436,89.68811 -5.4089,6.09016 -21.3972,20.39927 -27.9464,25.011419 -8.355,5.88377 -24.1648,13.40691 -35.3865,16.8388 -9.57374,2.9279 -11.86734,3.23729 -26,3.50722 -8.525,0.16282 -16.625,0.0803 -18,-0.18339 z m 42.46523,-9.9362 c 12.74097,-3.69375 24.58727,-9.95347 39.36337,-20.800159 5.5272,-4.0573 6.4261,-6.06441 3.1052,-6.93286 -1.5107,-0.39506 -4.3515,1.28379 -10.5671,6.24489 -10.0096,7.98936 -23.7814,15.785369 -34.6167,19.595959 -4.2625,1.49905 -7.75,3.1172 -7.75,3.59588 0,1.25072 0.62578,1.14884 10.46523,-1.70371 z m -22.46523,-2.77239 5.5,-1.15357 0.26139,-52.999999 c 0.24136,-48.93803 0.13091,-53.0958 -1.44113,-54.25 -3.20154,-2.35059 -4.90549,-1.41558 -7.28957,4 -2.30483,5.23557 -7.43545,16.19361 -15.56784,33.25 -2.36013,4.95 -5.5029,11.7 -6.98392,15 -1.48103,3.3 -6.89493,15 -12.0309,26 -11.96148,25.618589 -11.77918,24.837969 -6.27801,26.883669 12.29186,4.57094 30.97969,5.96513 43.82998,3.2699 z m 18.62788,-5.19656 c 12.53442,-4.994769 28.03302,-14.501289 36.72222,-22.524579 l 5.1499,-4.75527 -9.0979,-17.83858 c -22.1903,-43.50929 -28.60899,-55.8938 -29.3829,-56.69268 -0.45507,-0.46976 -2.67056,-0.5427 -4.9233,-0.1621 l -4.0959,0.692 v 51.4121 c 0,28.84001 0.38542,51.412099 0.87788,51.412099 0.48283,0 2.62033,-0.69434 4.75,-1.54299 z m -69.60458,-13.119519 c 1.93782,-4.39812 4.21618,-9.08578 5.06302,-10.41703 0.84684,-1.33125 2.15537,-3.99546 2.90782,-5.92046 1.46292,-3.74253 8.15667,-18.13215 16.11597,-34.64463 2.68944,-5.57954 4.88989,-10.38844 4.88989,-10.68644 0,-0.29799 3.375,-7.55927 7.5,-16.13617 4.125,-8.5769 7.5,-16.15317 7.5,-16.83616 0,-0.68298 -1.54788,-2.07538 -3.43973,-3.09421 l -3.43973,-1.85241 -24.81027,20.67502 c -13.64565,11.37126 -27.34284,22.79001 -30.4382,25.37501 -3.09536,2.58499 -9.70724,8.065 -14.69306,12.17779 l -9.06512,7.4778 3.09987,5.5222 c 8.47414,15.09605 29.7965,37.87815 34.28624,36.63349 0.55,-0.15247 2.58549,-3.87568 4.5233,-8.2738 z m 132.1282,-17.55383 c 19.5305,-21.75071 36.1062,-54.51456 42.8134,-84.6261 4.9358,-22.1588 5.1836,-52.71721 0.6055,-74.65756 -2.6501,-12.70025 -8.2503,-28.55998 -10.3296,-29.25306 -1.8924,-0.63081 -1.5036,2.63171 1.2903,10.82791 3.2096,9.41552 6.1646,26.31383 7.0392,40.25445 0.4879,7.77678 1.067,10.97804 2.0546,11.35699 1.9212,0.73724 1.8109,6.31371 -0.1249,6.31371 -0.825,0 -1.5,0.65195 -1.5,1.44878 0,2.52612 -2.9779,24.84454 -4.0096,30.05122 -0.545,2.75 -3.1077,11.49435 -5.695,19.43188 -3.2885,10.08885 -4.3417,14.55269 -3.4998,14.83333 2.9297,0.97656 0.4601,6.23479 -2.9282,6.23479 -0.9529,0 -2.0521,1.0125 -2.4426,2.25 -2.6143,8.28449 -18.4537,31.89397 -29.6908,44.2554 -4.6064,5.06732 -5.3269,6.36286 -4.6126,8.29377 1.166,3.15188 2.8788,2.06247 11.0301,-7.01551 z m -7.611,-9.78366 c 10.4796,-12.0757 27.6365,-40.27341 25.6581,-42.16946 -0.3842,-0.3682 -8.5736,-5.04049 -18.1986,-10.38285 -9.625,-5.34237 -19.525,-10.84917 -22,-12.23735 -16.6391,-9.33253 -21.3902,-11.53866 -21.8436,-10.14278 -0.2559,0.78784 -2.1957,3.17288 -4.3108,5.30009 -2.1151,2.1272 -3.8456,4.25824 -3.8456,4.73563 0,0.47739 4.8972,10.43694 10.8826,22.13235 5.9854,11.6954 14.1705,27.69348 18.1891,35.55128 4.2754,8.36008 7.8295,14.16789 8.5672,14 0.6934,-0.1578 3.7992,-3.21191 6.9016,-6.78691 z m -163.64349,-17.72013 c 2.53164,-2.04607 7.97799,-6.66563 12.10299,-10.26569 4.125,-3.60006 10.875,-9.20451 15,-12.45433 4.125,-3.24982 9.54785,-7.74276 12.05079,-9.98431 2.50293,-2.24155 10.26975,-8.7245 17.2596,-14.40657 17.15175,-13.9427 16.00203,-12.52514 13.54123,-16.69588 -1.12912,-1.91371 -2.34514,-3.65535 -2.70228,-3.87031 -0.35714,-0.21496 -14.76475,1.94708 -32.01691,4.80453 -31.16629,5.16203 -31.38098,5.21429 -33.45788,8.14403 -1.14967,1.62176 -5.76202,7.30648 -10.24967,12.6327 l -8.15936,9.68403 1.34464,7.73247 c 1.49067,8.57222 2.3982,11.75013 6.18257,21.64946 1.41924,3.7125 3.01262,6.75 3.54086,6.75 0.52823,0 3.03177,-1.67406 5.56342,-3.72013 z m 195.22849,-36.81814 c 6.979,-18.2654 13.3167,-53.46763 9.6245,-53.45871 -1.3126,0.003 -34.6506,5.27242 -57.8888,9.14966 l -13.6388,2.27559 -1.143,6.92078 c -0.6286,3.80642 -1.0161,7.021 -0.8612,7.14349 0.155,0.12249 5.0068,2.83799 10.7818,6.03444 5.775,3.19646 15.6354,8.66052 21.912,12.14238 6.2766,3.48185 11.4873,6.33064 11.5793,6.33064 0.092,0 3.7248,2.02729 8.0727,4.50509 4.348,2.4778 8.3015,4.37308 8.7855,4.21173 0.4841,-0.16135 1.7333,-2.52614 2.776,-5.25509 z m -201.1255,-18.2973 c 0,-0.80939 -0.61418,-1.14272 -1.48782,-0.80748 -0.8183,0.31401 -3.7433,0.87013 -6.5,1.23582 l -5.01218,0.66489 v 5.7045 c 0,3.13748 0.3375,6.05001 0.75,6.47229 0.91628,0.93802 12.25,-11.33943 12.25,-13.27002 z m 119.17311,1.94074 c 8.39339,-5.3229 12.82689,-13.82091 12.82689,-24.58596 0,-7.48462 -2.493,-13.82841 -7.0533,-17.94841 -4.64477,-4.19626 -7.41281,-5.02791 -13.63107,-4.09542 -3.87463,0.58103 -5.52523,1.58612 -9.80679,5.97155 -7.37269,7.55158 -9.00884,11.37514 -9.00884,21.05307 0,9.64635 2.07284,14.38768 8.41581,19.25 5.71724,4.38266 11.7224,4.49948 18.2573,0.35517 z m -121.17311,-9.67748 c 6.86507,-1.27317 8.85551,-2.05609 10.34827,-4.07043 1.01655,-1.37172 1.55657,-2.78575 1.20004,-3.14228 -0.66238,-0.66238 -19.98916,2.32141 -21.63836,3.34067 -1.37665,0.85082 -1.08987,5.44406 0.34005,5.44638 0.6875,0.001 5.075,-0.70733 9.75,-1.57434 z m 88.5,-9.17747 c 0,-9.75013 0.26052,-11.28073 2.80036,-16.45283 1.64447,-3.34876 4.90803,-7.59758 7.90652,-10.29349 3.52727,-3.17131 4.78533,-4.91169 4.06862,-5.6284 -0.71672,-0.71672 -2.2933,-0.39691 -5.09868,1.03429 -2.23362,1.13951 -4.6638,1.84057 -5.4004,1.55791 -0.7366,-0.28266 -2.86633,1.06158 -4.73272,2.98721 -3.29235,3.39685 -3.34002,3.56018 -1.60005,5.48282 2.71897,3.00443 1.37961,7.06227 -2.33103,7.06227 -2.59096,0 -2.90388,0.38531 -3.45151,4.25 -0.49967,3.52631 -0.24774,4.54805 1.47956,6.00036 1.68188,1.41412 1.95475,2.42748 1.42049,5.27532 -0.50988,2.71792 -0.17633,4.20602 1.45687,6.49964 1.16499,1.63607 2.42502,2.97478 2.80006,2.9749 0.37505,1.2e-4 0.68191,-4.83738 0.68191,-10.75 z m -50.5,3.23265 c 4.125,-0.7706 12.9,-2.33268 19.5,-3.47128 17.63027,-3.0415 16.5,-2.62839 16.5,-6.03064 0,-1.63952 -0.50592,-2.98095 -1.12428,-2.98095 -3.22299,0 -50.44551,8.23458 -52.00319,9.06822 -1.72456,0.92296 -3.87253,3.971 -3.87253,5.49525 0,0.86949 11.08976,-0.22923 21,-2.0806 z m -24.5,-8.9944 c 13.39669,-2.65917 37.55993,-6.75469 50.5,-8.55942 9.2581,-1.29122 13.32358,-2.8078 12.2094,-4.55458 -0.39017,-0.6117 -3.1781,-2.35759 -6.1954,-3.87976 -3.01731,-1.52217 -7.24831,-3.88008 -9.40223,-5.23979 -4.31399,-2.7233 -8.14965,-2.66039 -19.53182,0.32035 -3.06897,0.8037 -13.45495,2.80806 -23.07995,4.45413 -20.07276,3.43286 -24.92213,4.48336 -26.04888,5.64286 -0.4424,0.45526 -1.12642,4.15009 -1.52005,8.21074 l -0.7157,7.38301 5.89231,-0.6978 c 3.24078,-0.38379 11.29232,-1.76967 17.89232,-3.07974 z m 141.5,-10.4394 c 6.325,-1.1535 21.4,-3.67749 33.5,-5.60888 12.1,-1.93139 22.7875,-3.75087 23.75,-4.04329 1.4923,-0.45338 1.7489,-1.81036 1.7424,-9.21429 -0.01,-10.65762 -1.0932,-17.95629 -5.1136,-34.43261 -3.1208,-12.78946 -4.1852,-14.49554 -6.9587,-11.15378 -0.7286,0.87792 -6.5212,5.79197 -12.8724,10.92012 -6.3512,5.12814 -16.5572,13.52234 -22.68,18.65377 -6.1228,5.13144 -15.6796,13.04198 -21.2375,17.57897 l -10.1051,8.24908 1.9197,4.25092 c 1.0558,2.33801 2.1729,5.06945 2.4825,6.06987 0.3569,1.15333 1.205,1.63753 2.3178,1.32317 0.9652,-0.27268 6.9299,-1.43955 13.2549,-2.59305 z m -152.91544,-10.58084 c 4.7878,-0.67432 7.76029,-1.95672 6.78836,-2.92865 -0.31304,-0.31303 -3.36925,-1.6665 -6.79157,-3.0077 l -6.2224,-2.43854 -1.49167,3.57006 c -1.73454,4.15135 -1.14589,6.69878 1.37779,5.96251 0.96521,-0.28159 3.81798,-0.80255 6.33949,-1.15768 z m 81.72252,-4.47058 4.30708,-5.00136 -17.80708,-34.49581 -17.80708,-34.4958 -3.5,0.62805 c -5.49123,0.98536 -5.6551,1.35762 -4.58281,10.41058 1.07321,9.06066 -0.48353,33.43712 -2.65349,41.55039 -1.48442,5.55006 -2.24745,4.79256 13.7363,13.6366 6.05,3.34755 13.46092,7.59019 16.46871,9.42808 3.00779,1.83789 5.93279,3.3414 6.5,3.34113 0.56721,-2.7e-4 2.96948,-2.25111 5.33837,-5.00186 z m 60.92302,-11.24765 c 8.0717,-6.7375 18.522,-15.3576 23.2229,-19.15578 4.7008,-3.79818 12.372,-10.10445 17.047,-14.01394 4.675,-3.90948 10.5919,-8.78213 13.1486,-10.8281 l 4.6486,-3.71994 -3.5026,-6.76612 c -4.8642,-9.3961 -13.4764,-22.0622 -18.0013,-26.47489 l -3.7933,-3.69915 -6.132,1.54731 c -6.7717,1.70872 -5.9274,0.66029 -12.3704,15.36061 -2.049,4.675 -5.7769,12.775 -8.2841,18 -8.4215,17.54997 -25.4426,54.47871 -26.13042,56.69234 -0.53921,1.73524 -0.0976,2.50877 2.11782,3.70997 1.5395,0.83469 2.9238,1.53563 3.0762,1.55765 0.1525,0.022 6.8813,-5.47246 14.953,-12.20996 z m -107.97321,9.21395 c 2.89129,-0.62295 5.00708,-1.53684 4.70176,-2.03086 -0.30533,-0.49403 -4.47093,-2.08625 -9.2569,-3.53827 -4.78596,-1.45203 -13.09829,-4.38487 -18.47185,-6.51743 -9.61222,-3.81473 -13.18128,-4.60898 -14.05329,-3.12739 -0.24278,0.4125 -0.74145,2.15039 -1.10815,3.86197 l -0.66674,3.11196 11.24493,4.19791 c 6.18471,2.30886 11.94432,4.6329 12.79914,5.16455 1.67373,1.04098 6.45009,0.67901 14.8111,-1.12244 z m 86.93374,-18.04664 c 3.95487,-8.47952 8.77587,-18.79231 10.71337,-22.91731 1.9375,-4.125 5.518,-11.775 7.9567,-17 15.85,-33.9588 15.2534,-32.23484 10.8893,-31.46471 -1.5125,0.26691 -9.725,1.79848 -18.25,3.40349 -8.525,1.605 -17.4125,3.21493 -19.75,3.5776 l -4.25,0.65942 v 39.33877 c 0,36.62699 0.12063,39.36988 1.75,39.78988 0.9625,0.24811 2.2,0.35639 2.75,0.24064 0.55,-0.11575 4.23578,-7.14825 8.19063,-15.62778 z m -19.92831,-25.16731 0.26232,-36.75 h -2.92522 c -1.60888,0 -9.97861,1.35 -18.59942,3 -8.62081,1.65 -16.985,3 -18.5871,3 -1.68126,0 -2.89894,0.52853 -2.87989,1.25 0.0182,0.6875 2.38066,5.7992 5.25,11.35934 2.86934,5.56013 10.39199,20.31543 16.71699,32.78955 l 11.5,22.68022 4.5,-0.28956 4.5,-0.28955 z m -66.30997,14.24363 c 1.59006,-9.80475 2.03292,-27.17405 0.90303,-35.41752 l -0.64463,-4.70304 -4.10537,0.63337 c -2.71512,0.41888 -5.03665,1.63097 -6.85538,3.57924 -2.67528,2.86583 -2.75021,3.26469 -2.75755,14.6801 -0.004,6.45382 -0.48256,14.65922 -1.06311,18.23422 -1.00061,6.16169 -0.94174,6.57807 1.13095,8 4.81063,3.30023 10.40479,5.93492 11.10812,5.23159 0.40938,-0.40938 1.43716,-5.01647 2.28394,-10.23796 z m -22.6871,8.75637 c -0.49672,-1.54675 -9.89845,-6.78571 -10.97902,-6.11788 -0.43243,0.26725 -0.78623,1.32186 -0.78623,2.34356 0,1.28283 1.31511,2.32317 4.25,3.36204 5.33503,1.88846 8.0369,2.03668 7.51525,0.41228 z m 2.70475,-15.5 c 0.34606,-3.7125 0.86362,-8.39132 1.15015,-10.39737 0.77498,-5.4258 -1.0664,-5.47061 -4.22559,-0.10284 -3.06279,5.20396 -6.39456,11.82972 -6.39456,12.7166 0,0.8136 6.28525,4.52545 7.67041,4.52987 0.71675,0.002 1.41428,-2.61256 1.79959,-6.74626 z m 190.477,-30.38102 c -2.5992,-5.12665 -8.1089,-13.04046 -8.6807,-12.46859 -0.2184,0.21839 1.7698,4.46793 4.4183,9.44344 2.6485,4.9755 5.1894,8.67461 5.6464,8.22025 0.4571,-0.45437 -0.1657,-2.79216 -1.384,-5.1951 z m -161.47994,-11.85646 c 2.53103,-0.96229 2.55753,-1.06429 1.03942,-4 -0.85681,-1.65688 -1.90496,-3.01252 -2.32921,-3.01252 -0.42426,0 -2.52903,1.8 -4.67727,4 l -3.9059,4 h 3.63785 c 2.00082,0 4.80662,-0.44436 6.23511,-0.98748 z m 35.03294,-6.11888 c 11,-1.78887 20.5625,-3.67685 21.25,-4.19551 0.89071,-0.67197 1.25,-4.78814 1.25,-14.32057 0,-11.50288 -0.22053,-13.37756 -1.57368,-13.37756 -4.72801,0 -27.74079,9.49692 -36.92632,15.23876 -6.30512,3.94131 -13.5,9.64449 -13.5,10.70107 0,0.44326 0.94081,2.93279 2.09069,5.53229 1.87496,4.23865 2.36511,4.67206 4.75,4.20018 1.46262,-0.2894 11.65931,-1.98979 22.65931,-3.77866 z m 45.5,-7.85658 c 6.325,-1.12897 16.4163,-2.84549 22.425,-3.81448 10.6627,-1.71951 10.9701,-1.8426 12.8052,-5.12728 1.034,-1.85101 1.6826,-3.8802 1.4412,-4.50932 -0.7448,-1.94091 -16.7855,-9.24208 -24.1714,-11.00198 -4.8292,-1.1507 -10.2562,-1.5774 -17.5,-1.37597 l -10.5,0.29197 -0.28135,12.94711 c -0.31102,14.31255 -0.041,15.93344 2.52642,15.16671 0.96521,-0.28824 6.92993,-1.44778 13.25493,-2.57676 z m -377.5,275.217199 c 9.99657,-4.91487 16.79897,-13.73439 20.04383,-25.987459 1.50832,-5.69562 1.18218,-15.2668 -0.52021,-15.2668 -0.43379,0 -2.64308,2.8125 -4.90955,6.25 -10.40406,15.779629 -17.95644,20.468479 -26.1468,16.233069 -7.88346,-4.076689 -7.8107,-15.050119 0.15921,-24.009959 0.99162,-1.11479 3.1433,-5.27729 4.78152,-9.25 l 2.97857,-7.22311 h -3.24694 c -4.78534,0 -12.82432,4.42096 -17.89357,9.84039 -6.11244,6.5347 -9.02681,14.39153 -9.15004,24.66749 -0.0853,7.115549 0.26568,8.744049 3.14989,14.614409 6.27736,12.77655 17.71258,16.5439 30.75409,10.13197 z m -38.82276,-10.65299 c -1.96774,-5.12784 -2.74205,-13.581809 -1.78395,-19.477339 2.93141,-18.03815 16.62747,-32.92384 33.10671,-35.98234 4.33814,-0.80515 4.39764,-0.86345 1.65423,-1.62084 -4.44586,-1.22738 -14.21314,0.21062 -19.94212,2.93602 -13.56886,6.45499 -23.21765,24.13628 -21.25307,38.94601 0.68687,5.177839 6.04474,16.597219 7.78727,16.597219 0.53222,0 0.72613,-0.62943 0.43093,-1.39873 z m 38.53177,-15.766809 c 4.25119,-3.367 13.44782,-16.54376 16.73816,-23.98212 3.21081,-7.25857 5.05388,-15.78789 5.03752,-23.31244 -0.02,-9.18375 -0.69681,-10.25725 -5.04836,-8.00697 -5.85312,3.02676 -16.6512,2.18522 -22.10251,-1.72255 -2.2709,-1.6279 -4.83964,0.53837 -4.81675,4.06206 0.0144,2.21889 0.85895,2.99192 5.43004,4.97026 7.15041,3.09464 8.74757,6.25323 7.41153,14.6573 -1.15913,7.29125 -4.3985,14.61465 -9.80281,22.16168 -4.64626,6.48843 -5.20971,10.4167 -1.83332,12.78162 3.15181,2.207609 4.46457,1.97259 8.9865,-1.60884 z m 240.73017,-17.98755 c -1.21019,-2.3908 -3.04278,-5.54305 -4.07242,-7.00501 -1.02963,-1.46195 -3.92679,-7.76195 -6.43811,-14 -19.23677,-47.78344 -17.40208,-103.85268 5.07326,-155.04164 8.0005,-18.22162 20.66903,-38.54914 32.283,-51.80026 3.13331,-3.575 6.15102,-7.06865 6.70601,-7.76367 2.35712,-2.95182 23.57709,-20.17577 30.00908,-24.35795 5.92164,-3.85034 15.63269,-8.84904 26.5,-13.64071 4.69362,-2.06953 -0.55219,-1.27083 -7.76422,1.18214 -30.15581,10.25665 -60.73172,36.03685 -81.47011,68.69184 -12.6134,19.86126 -23.49086,48.77187 -28.37312,75.41142 -2.27931,12.43678 -2.62175,49.36312 -0.57772,62.29613 2.69611,17.05882 10.51241,39.27843 19.58709,55.6808 3.89115,7.0332 9.82149,15.57214 10.41784,15.00038 0.17587,-0.16861 -0.67039,-2.26268 -1.88058,-4.65347 z m -68.02405,-37.28945 c 10.29526,-2.22067 23.50231,-6.81785 30.33478,-10.55911 l 5.74992,-3.14847 -0.6276,-5.67494 c -0.34518,-3.12122 -1.00097,-6.08327 -1.45731,-6.58233 -0.48235,-0.52752 -4.71997,1.02562 -10.12231,3.70997 -16.21737,8.05817 -37.81464,12.40047 -53.06017,10.66815 -26.37861,-2.99734 -50.82384,-17.49539 -66.97033,-39.71894 l -6.18304,-8.51016 -2.66788,3.19568 c -1.46733,1.75763 -3.47411,4.69277 -4.45951,6.52255 l -1.79163,3.32686 4.23788,5.35664 c 6.34935,8.02554 16.76604,18.43437 23.56216,23.54441 11.7244,8.81562 31.09419,16.90578 46.15359,19.27691 8.13958,1.28159 28.375,0.5182 37.30145,-1.40722 z m -158.13764,-5.11416 c 2.96488,-2.07669 2.80414,-2.95974 -0.81138,-4.45734 -3.93335,-1.62925 -6.96611,-5.54136 -6.96611,-8.98596 0,-3.43854 3.19531,-7.58122 6.48418,-8.40667 2.90277,-0.72855 3.35487,-3.61142 0.94439,-6.0219 -2.15389,-2.15389 -12.67911,-2.1794 -14.45877,-0.035 -0.90558,1.09116 -1.215,5.02093 -1.06774,13.56077 0.22807,13.22576 0.4894,14.58272 2.93308,15.22991 3.95907,1.04853 10.85599,0.57757 12.94235,-0.88377 z m 15.61103,-11.38933 c 2.5133,-1.21667 6.15814,-3.80063 8.09965,-5.74214 4.29238,-4.29238 12.91743,-17.24989 17.96023,-26.98186 4.5003,-8.68499 12.6275,-17.88734 20.90938,-23.67549 7.82704,-5.47026 13.42977,-7.60477 21.92451,-8.35277 3.73027,-0.32846 6.99105,-0.93496 7.24619,-1.34779 0.25514,-0.41282 -0.83994,-2.14633 -2.43351,-3.85225 -3.66816,-3.92678 -8.38077,-4.10611 -17.51864,-0.66662 -14.75491,5.55373 -25.90929,15.62139 -36.57633,33.01287 -14.15953,23.08561 -16.25648,25.88894 -21.52701,28.77872 -2.78945,1.52943 -6.5709,2.7369 -8.61221,2.75 -4.30391,0.0276 -8.26669,2.802 -7.36363,5.15533 1.64293,4.28142 10.05613,4.71497 17.89137,0.922 z m 134.14708,-2.25623 c 0.36091,-0.36091 0.89202,-8.50313 1.18025,-18.09382 0.39418,-13.11656 0.22175,-17.62445 -0.69586,-18.19156 -0.67094,-0.41467 -5.05586,-1.59221 -9.74425,-2.61676 -4.6884,-1.02454 -10.99779,-2.99518 -14.02089,-4.3792 -3.02309,-1.38402 -5.89233,-2.5164 -6.37608,-2.5164 -0.48375,0 -3.85654,6.1875 -7.49508,13.75 -9.67079,20.10015 -11.478,24.28838 -10.89055,25.2389 0.75201,1.21677 14.98755,5.80491 21.50686,6.93169 5.97226,1.03223 25.47079,0.94196 26.5356,-0.12285 z m 17.39762,-3.85395 c 6.49648,-2.13269 20.68884,-9.1516 22.73962,-11.246 0.87686,-0.89552 0.91682,-3.59519 0.15836,-10.69779 -0.55796,-5.225 -1.31074,-9.77846 -1.67284,-10.11881 -0.3621,-0.34034 -3.80836,-0.25404 -7.65836,0.19179 -3.85,0.44583 -10.7125,0.54541 -15.25,0.22128 l -8.25,-0.58931 v 17.14752 c 0,19.69177 -0.72503,18.59024 9.93322,15.09132 z m -189.56487,-17.82791 c -2.29841,-7.55091 -1.38689,-23.66525 1.98637,-35.11588 5.79985,-19.68774 7.24675,-37.58092 4.11368,-50.87185 -2.33088,-9.88793 -9.45875,-20.48822 -12.50908,-18.60301 -1.49188,0.92203 -1.1908,2.67411 2.17683,12.66796 5.14907,15.28048 5.06027,22.65503 -0.58765,48.8069 -6.04848,28.00662 -6.54529,34.28523 -3.48113,43.99408 1.36058,4.31101 3.60418,8.84012 5.38248,10.86549 l 3.04938,3.47305 0.75399,-4.91631 c 0.54131,-3.52949 0.2917,-6.43509 -0.88487,-10.30043 z m 36.37877,8.46457 c 3.50563,-3.19426 6.36841,-7.43076 14.8084,-21.91431 l 3.39956,-5.83386 -1.86921,-3.66614 c -3.15575,-6.18949 -9.92399,-29.21809 -11.05028,-37.59804 -0.58633,-4.36255 -1.20603,-8.07187 -1.3771,-8.24294 -0.17107,-0.17107 -2.54579,-0.73485 -5.27717,-1.25284 -2.73138,-0.518 -8.74569,-2.32118 -13.36513,-4.00707 -4.61945,-1.68589 -8.53787,-3.06525 -8.70759,-3.06525 -0.16973,0 -0.3086,3.4013 -0.3086,7.55845 0,9.89813 -1.41297,18.91726 -5.5836,35.64068 -3.79903,15.23341 -4.47029,26.34279 -1.95538,32.36182 1.32482,3.17075 1.72102,3.42412 4.25,2.71789 8.42476,-2.35266 16.61176,0.72875 18.47698,6.95432 1.43532,4.79065 3.58682,4.87795 8.55912,0.34729 z m 90.13575,-16.66145 9.33086,-19.08099 -2.325,-1.66901 c -1.27875,-0.91795 -4.68078,-3.02418 -7.56007,-4.68051 -5.10657,-2.93758 -5.46971,-2.99635 -14.79289,-2.39402 -8.03331,0.519 -10.55824,1.12528 -15.83001,3.80109 -3.44971,1.75098 -7.60087,4.24305 -9.22479,5.53792 -2.92544,2.33266 -2.93773,2.38517 -1.33614,5.71041 1.78897,3.71432 9.94382,14.16906 15.05981,19.30711 3.44293,3.45777 15.52789,12.549 16.68137,12.549 0.3663,0 4.86489,-8.58645 9.99686,-19.081 z m 84.11713,-13.89652 c 1.12991,-0.71327 1.5,-2.92542 1.5,-8.96611 v -8.01923 l -17.5,-0.35256 c -15.47504,-0.31177 -18.51054,-0.65998 -26.23322,-3.00933 -13.02588,-3.96266 -22.90482,-9.82352 -32.32133,-19.17525 -20.24688,-20.1076 -28.53626,-40.4315 -34.05659,-83.5 -1.26684,-9.88363 -1.77098,-28.4075 -2.40862,-88.5 -0.92443,-87.12057 -1.57889,-97.38312 -8.04875,-126.21197 -3.43779,-15.31833 -2.853,-13.38706 -8.717,-28.78803 -4.43561,-11.64952 -7.015,-16.47296 -15.50806,-29 -11.16064,-16.46164 -27.46551,-29.24728 -45.70643,-35.84121 -18.10185,-6.54365 -29.43939,-6.72294 -37.769,-0.59728 -9.34573,6.87293 -10.97144,20.78727 -3.40805,29.16923 4.55004,5.04248 8.52433,6.76926 15.57983,6.76926 7.01133,0 9.97953,-1.17592 15.26434,-6.04728 2.35851,-2.174 4.50637,-3.95272 4.77302,-3.95272 1.86891,0 12.96097,4.87129 17.13614,7.52565 14.9412,9.49889 28.09715,32.98612 34.43376,61.47435 2.59644,11.67315 6.63978,40.19241 7.58499,53.5 0.42972,6.05 0.83872,41.375 0.90888,78.5 0.15287,80.89215 0.70586,87.94235 9.52989,121.5 1.92741,7.3299 6.27037,18.23067 11.0709,27.78781 7.17511,14.28455 21.46069,30.32256 35.35014,39.68658 11.0249,7.43279 29.26753,14.68228 41.04516,16.31106 6.18832,0.85581 36.05954,0.64634 37.5,-0.26297 z m -142.59084,-14.4092 c 1.67935,-1.69909 1.75753,-2.30366 0.64946,-5.02244 -1.88674,-4.62935 -4.98558,-17.66797 -5.02447,-21.14084 -0.0188,-1.6775 -0.57415,-3.59 -1.23415,-4.25 -1.32699,-1.32699 -14.37966,-1.68914 -15.16359,-0.42072 -0.85561,1.3844 6.08025,29.53372 8.77951,35.63179 l 2.61649,5.91107 3.73379,-4.38863 c 2.05359,-2.41375 4.59292,-5.25786 5.64296,-6.32023 z m 12.61655,-9.72412 c 5.19215,-3.19476 17.108,-7.83051 20.22429,-7.86807 2.10349,-0.0254 2.30092,-2.31898 0.33972,-3.94663 -0.77565,-0.64373 -3.1234,-3.85947 -5.2172,-7.14608 -2.16182,-3.39337 -4.34053,-5.7709 -5.04173,-5.50182 -0.67915,0.26061 -5.9814,1.00795 -11.7828,1.66075 -12.12368,1.36422 -11.41788,0.28307 -8.57569,13.13623 1.7874,8.08315 3.45802,12.77646 4.54786,12.77646 0.24739,0 2.72489,-1.39988 5.50555,-3.11084 z m 122.60857,-4.13916 c -1.41285,-2.3375 -5.39604,-9.12648 -8.85155,-15.08663 l -6.28273,-10.83662 -3.3739,0.54386 c -1.85565,0.29912 -3.54454,0.7145 -3.7531,0.92306 -0.70319,0.70318 -1.32195,22.17675 -0.73353,25.45633 l 0.58311,3.25 h 12.49025 12.49025 z m 12.89874,-9.30883 c 1.34669,-6.49422 2.68714,-12.55947 2.97877,-13.47833 0.42407,-1.3361 -1.5864,-2.51373 -10.03955,-5.88068 -5.81339,-2.31551 -11.33535,-4.06415 -12.27102,-3.88587 -3.4248,0.65255 -2.22516,4.63998 5.38695,17.90537 9.83352,17.1366 10.47813,18.16537 11.03397,17.60953 0.25429,-0.25429 1.56418,-5.77579 2.91088,-12.27002 z m -42.53302,-2.32454 c 0,-13.55224 -0.0537,-13.89775 -2.25,-14.48634 -1.2375,-0.33164 -2.74328,-0.60913 -3.34618,-0.61664 -1.02123,-0.0127 -11.40382,19.85461 -11.40382,21.82148 0,0.74934 7.70328,4.58461 13,6.47237 3.90736,1.39259 4,1.0871 4,-13.19087 z m -17.50835,-8.09997 c 3.02959,-6.04084 5.50835,-11.44084 5.50835,-12 0,-1.48658 -3.97985,-1.24287 -9.29863,0.56943 -4.01137,1.36681 -4.79559,2.09261 -5.67256,5.25 -2.23238,8.03732 -0.57453,17.16391 3.11782,17.16391 0.46017,0 3.31542,-4.9425 6.34502,-10.98334 z m -14.66829,-7.24445 c 1.55717,-8.40061 3.84464,-12.49653 11.14038,-19.94791 7.73417,-7.89916 10.50022,-8.75889 22.11293,-6.87303 5.48604,0.89092 8.2488,0.94491 9.66156,0.18882 2.27153,-1.21568 5.6932,-6.042 4.86833,-6.86686 -0.30428,-0.30428 -6.07773,0.18592 -12.8299,1.08933 -6.75216,0.90341 -15.55844,1.64141 -19.5695,1.64 -7.25948,-0.003 -7.31473,0.0179 -12.07797,4.47337 -5.64255,5.27794 -10.00051,12.84101 -11.75958,20.40828 -1.40156,6.02931 -0.94029,7.67074 3.48967,12.41799 3.03456,3.25189 3.18838,3.04954 4.96408,-6.52999 z m -61.48135,1.06274 c 8.92844,-1.24322 8.71971,-0.73172 4.49188,-11.0075 l -2.33389,-5.67256 -15.5,0.54905 c -24.0604,0.85228 -37.64618,-2.56722 -52.60266,-13.23995 -3.44065,-2.45519 -6.51259,-4.46399 -6.82653,-4.46399 -1.37932,0 -0.38984,10.38509 1.42919,15 1.1,2.79072 2,5.87045 2,6.84383 0,2.28652 10.66305,7.39331 21.5,10.29687 14.18309,3.8001 28.96016,4.3234 47.84201,1.69425 z m 107.77519,-7.50771 2.03952,-2.03952 -4.77866,-2.39386 c -3.67431,-1.84064 -5.0403,-3.19807 -5.91081,-5.87376 -0.94793,-2.91366 -1.85095,-3.69262 -5.5497,-4.78728 -2.42965,-0.71906 -5.76755,-1.05456 -7.41755,-0.74555 -2.90568,0.54416 -11.5,7.64511 -11.5,9.50174 0,0.50819 2.15407,0.66164 4.83338,0.34432 4.25877,-0.50439 5.06123,-0.28897 6.75,1.81207 4.34617,5.40716 7.53844,6.93694 13.70546,6.56783 4.16709,-0.2494 6.36022,-0.91784 7.82836,-2.38599 z m 35.16463,-1.67273 c 1.39236,-4.17708 0.41321,-5.26093 -6.95998,-7.70421 -3.75202,-1.24332 -10.35567,-3.76853 -14.67479,-5.61157 l -7.85294,-3.35099 -3.89706,2.19027 c -2.14338,1.20465 -3.89706,2.72699 -3.89706,3.38299 0,1.3279 5.08733,3.65777 18.5,8.47255 4.95,1.77692 10.575,3.82544 12.5,4.55227 4.40683,1.6639 5.16068,1.43213 6.28183,-1.93131 z m -93.47467,-5.19728 c 0.85279,-2.17648 2.56949,-5.59529 3.81488,-7.59737 1.24539,-2.00208 2.05544,-3.84904 1.80011,-4.10437 -0.25532,-0.25533 -3.71726,0.2941 -7.69319,1.22096 -5.14489,1.19936 -7.14294,2.09433 -6.93058,3.10437 0.59879,2.84803 5.7262,11.90588 6.57993,11.62382 0.48308,-0.1596 1.57606,-2.07094 2.42885,-4.24741 z m 99.82085,-11.20723 c 1.38487,-3.1625 3.79919,-8.3375 5.36516,-11.5 2.06461,-4.16953 2.46885,-5.75 1.4707,-5.75 -3.44292,0 -33.05111,5.18724 -33.78242,5.91855 -0.45152,0.45152 -0.52177,2.4157 -0.15611,4.36483 0.61047,3.2541 1.16813,3.72999 6.81975,5.81973 3.3852,1.25171 8.40491,3.31118 11.15491,4.5766 2.75,1.26541 5.36226,2.30515 5.80503,2.31052 0.44276,0.005 1.93811,-2.57773 3.32298,-5.74023 z m -168.26507,2.97176 c 0.26454,-0.42803 0.98745,-4.4773 1.60647,-8.99838 0.61903,-4.52107 1.98211,-11.4829 3.02908,-15.47072 1.04697,-3.98783 1.58811,-7.53298 1.20254,-7.87813 -1.62209,-1.45204 -12.57366,-4.89731 -13.25136,-4.16877 -1.29842,1.39585 -5.89734,23.57292 -6.17851,29.79424 l -0.27116,6 4.5,0.59981 c 7.02584,0.93647 8.8449,0.96017 9.36294,0.12195 z m 18.14723,-1.23822 c 0.34552,-0.55905 -0.50678,-4.94655 -1.89399,-9.75 -1.38721,-4.80345 -2.82473,-10.45465 -3.19449,-12.55824 -0.36977,-2.10358 -1.03096,-3.45358 -1.46932,-3 -0.87301,0.90332 -3.38498,12.77271 -4.46014,21.0747 l -0.67991,5.25 h 5.53483 c 3.04415,0 5.81751,-0.45741 6.16302,-1.01646 z m -39.07925,-2.23354 c 0.20248,-0.6875 0.93816,-5.3 1.63484,-10.25 0.69668,-4.95 2.28976,-12.57437 3.54017,-16.94305 1.25042,-4.36868 2.06028,-8.28802 1.7997,-8.70964 -0.26058,-0.42163 -2.95258,-1.54797 -5.98224,-2.50298 -4.63106,-1.45982 -6.21245,-1.5481 -9.92831,-0.55426 -9.36939,2.50593 -17.60636,9.44533 -21.08021,17.75944 -1.36783,3.27368 -1.33412,3.73769 0.43499,5.98674 3.39939,4.32163 14.18897,11.72794 20.50569,14.07576 7.16201,2.66199 8.57436,2.83909 9.07537,1.13799 z m -52.7443,-3.5 c 0.34312,-0.9625 1.11649,-2.3765 1.71861,-3.14223 0.60213,-0.76572 1.56941,-5.04072 2.14953,-9.5 l 1.05476,-8.10777 -5.19395,-10 c -13.8513,-26.66814 -19.78049,-54.22126 -28.85892,-134.10827 -4.22801,-37.20508 -8.37957,-63.09138 -13.05333,-81.39173 -4.10998,-16.09284 -7.95726,-29.11117 -9.39969,-31.80637 -0.57554,-1.07541 -1.78051,-4.14641 -2.67771,-6.82446 -1.80455,-5.38641 -10.03053,-21.33028 -14.66997,-28.43385 l -2.98126,-4.56468 -12.13734,-1.54623 c -6.67554,-0.85042 -12.46591,-1.36278 -12.86749,-1.13858 -0.40157,0.22421 1.62343,3.34611 4.5,6.93757 7.41548,9.25835 9.98693,13.39604 16.13087,25.95603 14.09298,28.8101 21.1853,62.85522 30.60665,146.92057 3.74022,33.37335 4.43645,38.23716 8.64663,60.40456 5.3251,28.0376 14.57506,53.74644 24.32326,67.60273 6.69739,9.51981 10.52577,14.41486 11.30411,14.45371 0.42977,0.0214 1.06212,-0.7485 1.40524,-1.711 z m 140.64269,-2.28805 c 3.20611,-0.62517 5.6419,-1.32407 5.41285,-1.55312 -0.44468,-0.44468 -14.22959,-4.29862 -16.74216,-4.68072 -1.60572,-0.24419 -1.79104,2.06275 -0.48786,6.0728 0.59476,1.83014 1.28383,2.19829 3.36781,1.79931 1.44103,-0.27588 5.24324,-1.01311 8.44936,-1.63827 z m -125.37632,-7.38855 c 1.73653,-8.10703 4.10178,-13.27262 8.46211,-18.48086 3.47452,-4.15018 11.49359,-10.09254 13.61963,-10.09254 1.87587,0 0.93218,-1.69405 -1.58178,-2.83948 -3.75409,-1.71048 -6.06244,-1.43507 -10.22282,1.2197 -9.88931,6.31042 -15.62107,15.56555 -16.747,27.04156 -0.63667,6.48926 -0.53239,7.03266 1.66888,8.69601 1.29139,0.97583 2.61428,1.46102 2.93975,1.07822 0.32546,-0.38281 1.16302,-3.36298 1.86123,-6.62261 z m 196.04701,-4.9724 c 29.01804,-4.85061 42.83881,-7.38335 43.91323,-8.04737 0.35722,-0.22078 2.40793,-3.02317 4.55712,-6.22752 2.14919,-3.20436 4.98447,-7.01425 6.30063,-8.46642 1.35619,-1.49633 1.96697,-2.90361 1.4097,-3.24802 -0.98257,-0.60726 -26.70024,3.28169 -52.18068,7.8906 -40.71441,7.36445 -61.77981,7.39251 -84,0.1119 -4.125,-1.35159 -7.78554,-2.1552 -8.13454,-1.7858 -0.61736,0.65345 0.65421,13.46739 1.57526,15.87438 0.54244,1.41755 15.08417,6.00477 25.05928,7.905 12.36378,2.35528 30.51429,1.17276 61.5,-4.00675 z m -190.45495,-27.632 4.36665,-3.00433 -2.14546,-3.63629 c -1.90108,-3.22209 -2.12281,-4.95808 -1.94659,-15.24017 0.225,-13.12803 1.02894,-10.09218 -13.79366,-52.08821 -4.56191,-12.925 -10.64163,-30.25 -13.51049,-38.5 -12.78999,-36.78022 -15.72477,-45.27924 -17.09278,-49.5 -1.86875,-5.76571 -4.3378,-10.1662 -4.38728,-7.81925 -0.031,1.47225 2.07705,18.41106 5.01787,40.31925 0.51681,3.85 2.29267,19.15 3.94637,34 1.6537,14.85 3.92018,31.725 5.03663,37.5 5.3456,27.65095 6.41725,32.23931 9.92619,42.5 3.71587,10.86577 9.2675,23.76156 11.32844,26.31463 0.83231,1.03105 1.90531,0.32713 4.97434,-3.26333 2.15222,-2.51788 5.87811,-5.92991 8.27977,-7.5823 z m 63.45495,9.07185 c 0,-0.52754 -0.499,-4.31422 -1.1089,-8.41487 l -1.1089,-7.45571 -25.1411,-8.42264 c -13.8276,-4.63246 -25.8161,-8.60827 -26.6411,-8.83514 -1.22907,-0.33799 -1.4721,0.72179 -1.34554,5.86734 0.085,3.45391 0.41714,6.96437 0.73819,7.80101 0.32105,0.83664 2.72654,2.43003 5.34554,3.54086 2.61899,1.11083 6.11181,2.63035 7.76181,3.37673 1.65,0.74637 7.5,2.76378 13,4.48312 5.5,1.71935 13.6,4.43251 18,6.02926 8.67808,3.14924 10.5,3.50149 10.5,2.03004 z m 108.97288,-3.49188 c 7.98992,-1.34806 20.82712,-3.41279 28.52712,-4.58829 13.93174,-2.12685 19.18292,-3.00734 41.93596,-7.03157 l 11.93596,-2.11106 10.88867,-10.29918 c 21.83891,-20.65661 45.64942,-33.55449 72.23941,-39.13128 24.14834,-5.06469 60.1777,-0.0377 83.8269,11.69587 3.2331,1.6041 6.416,2.91654 7.073,2.91654 1.3047,0 1.3458,-0.11931 27.0411,-78.5 21.7688,-66.40341 20.8594,-63.53296 20.3053,-64.08706 -0.512,-0.51201 -18.2951,1.35614 -48.2463,5.06834 -11,1.36336 -28.1,3.40172 -38,4.52968 -24.98156,2.8463 -57.22889,6.61622 -81.5,9.52789 -11.275,1.35259 -32.2,3.78882 -46.5,5.41383 -14.3,1.62501 -31.625,3.63472 -38.5,4.46602 -6.875,0.83131 -22.85,2.65792 -35.5,4.05915 -12.65,1.40123 -28.4,3.20291 -35,4.00373 -12.69883,1.54083 -39.41216,1.88294 -48.29798,0.61854 -2.91389,-0.41463 -5.53584,-0.369 -5.82656,0.10139 -0.29072,0.4704 -0.46931,9.50499 -0.39686,20.07688 0.57741,84.25686 0.85054,104.67823 1.53692,114.91234 0.90144,13.44069 -0.70204,11.68876 14.98448,16.37171 11.7035,3.49388 16.5018,4.16202 30.97288,4.3128 8.5793,0.0894 16.09044,-0.56996 26.5,-2.32627 z m -111.62698,-26.13494 c -0.0847,-2.70271 -0.11333,-24.48903 -0.0635,-48.41403 0.10725,-51.50026 -0.12743,-72.44865 -0.89833,-80.1906 -0.54103,-5.43334 -0.70944,-5.71762 -3.72535,-6.28857 -1.73729,-0.32889 -4.95871,-1.01906 -7.15871,-1.5337 -2.2,-0.51464 -10.3,-2.32873 -18,-4.03131 -7.7,-1.70258 -21.875,-4.83675 -31.5,-6.96483 -9.625,-2.12807 -22.35059,-4.95747 -28.27909,-6.28755 -5.9285,-1.33008 -11.00303,-2.05597 -11.27675,-1.61309 -0.52127,0.84344 2.30091,9.64329 10.07334,31.40965 2.55316,7.15 5.93006,16.825 7.50422,21.5 5.29487,15.72485 12.76417,37.40951 17.22255,50 2.43448,6.875 6.58991,18.91329 9.23428,26.75175 l 4.80795,14.25174 7.60675,2.43373 c 4.18371,1.33856 15.48175,5.15102 25.10675,8.47215 9.625,3.32112 17.95,5.89897 18.5,5.72855 0.55,-0.17042 0.93066,-2.52117 0.8459,-5.22389 z m 122.6541,-138.72721 c 15.125,-1.94565 34.925,-4.26111 44,-5.14546 9.075,-0.88436 26.175,-2.93349 38,-4.55363 11.825,-1.62014 30.725,-3.8758 42,-5.01258 11.275,-1.13678 25.225,-2.7204 31,-3.51915 5.775,-0.79875 23.21033,-2.80234 38.7452,-4.45242 15.5348,-1.65009 32.6348,-3.64126 38,-4.42483 5.3651,-0.78358 18.5298,-2.36306 29.2548,-3.50996 10.725,-1.1469 23.1,-2.5086 27.5,-3.026 8.4369,-0.9921 15.8408,-3.88258 16.8797,-6.58977 0.3411,-0.88913 0.6203,-6.70665 0.6203,-12.92782 0,-9.02226 -0.2971,-11.42522 -1.468,-11.87454 -0.8074,-0.30982 -1.7264,-0.14519 -2.0422,0.36584 -1.0322,1.67021 -7.7055,2.83676 -25.4898,4.45585 -9.625,0.87626 -26.5,2.69635 -37.5,4.04465 -11,1.3483 -29.9,3.38639 -42,4.5291 -12.1,1.14271 -26.95,2.73766 -33,3.54434 -6.05,0.80668 -24.5,2.81748 -41,4.46844 -16.5,1.65097 -34.95,3.64451 -41,4.43009 -6.05,0.78558 -24.725,2.81096 -41.5,4.50083 -16.775,1.68988 -37.25,3.93733 -45.5,4.99434 -26.93377,3.45081 -41.13122,4.30817 -62.74724,3.7892 l -20.88282,-0.50137 0.71372,6.61401 c 0.39254,3.63771 0.9843,10.21402 1.31503,14.61402 l 0.60131,8 4,0.66642 c 2.2,0.36653 15.25,0.52951 29,0.36218 21.60604,-0.26293 28.73336,-0.78449 52.5,-3.84178 z m -125.00282,-7.43682 c -0.003,-3.90777 -1.71957,-20.1586 -2.5256,-23.90901 -0.39239,-1.82578 -1.5836,-2.34102 -7.7178,-3.33824 -3.98958,-0.64858 -11.97878,-2.21989 -17.75378,-3.49181 -5.775,-1.27191 -18.2902,-3.72887 -27.81156,-5.45991 -9.52136,-1.73104 -18.34884,-3.54172 -19.61664,-4.02373 -1.26779,-0.48202 -9.22759,-2.05567 -17.68844,-3.49701 -8.46085,-1.44135 -16.83455,-3.13661 -18.60823,-3.76726 -1.77367,-0.63065 -3.46811,-0.90339 -3.7654,-0.60609 -0.46224,0.46224 3.5424,20.98995 5.086,26.07076 0.5914,1.94661 2.6929,2.59942 21.56499,6.69897 17.75542,3.85698 33.7429,7.37964 48.33928,10.65101 29.46944,6.60476 37.11251,8.24825 38.75,8.33239 1.37201,0.0705 1.74939,-0.72006 1.74718,-3.66007 z m 88.83671,-26.26785 c 5.13363,-0.54075 10.53363,-1.19235 12,-1.44801 1.46636,-0.25565 14.14111,-1.60573 28.16611,-3.00018 14.025,-1.39444 47.55,-5.0187 74.5,-8.05391 26.95,-3.03521 60.025,-6.62599 73.5,-7.97951 13.475,-1.35351 32.375,-3.36286 42,-4.46521 9.625,-1.10234 22.45,-2.49469 28.5,-3.0941 6.05,-0.59941 20.675,-2.17311 32.5,-3.49712 11.825,-1.324 24.5501,-2.704 28.2781,-3.06667 7.0213,-0.68305 9.494,-1.94832 5.5128,-2.82093 -4.8221,-1.05694 -27.9247,-4.63861 -42.2909,-6.55651 -8.25,-1.10138 -20.4,-2.8987 -27,-3.99404 -6.6,-1.09534 -21.675,-3.33477 -33.5,-4.97651 -11.825,-1.64173 -27.575,-3.9129 -35,-5.04704 -21.12829,-3.22724 -35.26522,-3.48549 -60,-1.09604 -18.17213,1.75547 -57.21189,5.46583 -142,13.49575 -8.525,0.80737 -22.25,2.02282 -30.5,2.70101 -8.25,0.67819 -15.35407,1.5385 -15.78682,1.91179 -0.43275,0.3733 0.57125,5.58965 2.23111,11.5919 1.65986,6.00225 3.65482,14.65407 4.43324,19.22626 0.77841,4.5722 1.6197,8.51749 1.86952,8.76731 2.15083,2.15082 36.72602,3.07247 52.58684,1.40176 z m -93.41391,-7.85268 c 0.29591,-0.47879 -0.0938,-3.29129 -0.8661,-6.25 -4.33872,-16.62251 -5.77436,-21.47283 -6.60555,-22.31686 -1.47556,-1.49838 -90.94833,6.8669 -90.94833,8.50323 0,0.92651 11.70486,3.51495 49.5,10.94654 17.05,3.35251 34.6,6.91847 39,7.92434 4.4,1.00588 8.31094,1.88161 8.69098,1.94608 0.38004,0.0645 0.93309,-0.27454 1.229,-0.75333 z m -112.41998,-24.02089 c 0,-2.14879 9.09199,-4.20967 24.78112,-5.61712 9.19539,-0.8249 20.99388,-1.93978 26.21888,-2.47751 5.225,-0.53773 16.925,-1.66924 26,-2.51447 21.52863,-2.00514 24,-2.41476 24,-3.97794 0,-2.45137 -11.6766,-19.0888 -16.0911,-22.92744 -4.84247,-4.21078 -13.22147,-8.56903 -16.50391,-8.58433 -1.15226,-0.005 -2.87185,0.84862 -3.82131,1.89776 -0.94946,1.04914 -4.0567,2.91291 -6.90498,4.1417 -10.73727,4.63222 -25.05374,1.82347 -32.40822,-6.35817 -2.06929,-2.30203 -4.5841,-3.87985 -7,-4.39191 -4.49915,-0.95359 -40.93506,-0.9679 -41.88651,-0.0164 -0.3646,0.36459 2.55789,6.94242 6.49442,14.61739 3.93653,7.67497 8.73625,18.77455 10.66606,24.66572 1.9298,5.89118 3.74833,11.09889 4.04116,11.57271 0.69902,1.13103 2.41439,1.10976 2.41439,-0.0299 z m 20.42723,-74.68989 0.75529,-3.08131 -7.84126,-1.11888 c -4.31269,-0.61538 -12.34126,-2.51729 -17.84126,-4.22645 -29.65904,-9.21677 -47.06881,-11.69985 -73.42911,-10.47288 -23.20432,1.08007 -28.65515,1.08907 -40.72967,0.0672 -10.10997,-0.85559 -10.17124,-0.84727 -12.75,1.73149 -1.82615,1.82616 -2.59122,3.65146 -2.59122,6.18214 0,5.15389 3.28978,8.08397 10.08849,8.98541 10.8318,1.43619 23.67193,4.511 35.36474,8.46875 22.98324,7.77929 43.97161,10.43186 75.54677,9.54782 12.375,-0.34648 24.525,-0.24882 27,0.21701 l 4.5,0.84698 0.58597,-7.03299 c 0.32229,-3.86814 0.92585,-8.41957 1.34126,-10.11429 z m -144.42723,6.68105 c 0,-0.49514 -2.23492,-1.43641 -4.96648,-2.0917 -10.50426,-2.51993 -15.42506,-13.54884 -10.38967,-23.28621 1.98457,-3.83774 7.04288,-6.71048 11.85615,-6.7334 2.2,-0.0105 4.65975,-0.43633 5.46612,-0.94633 2.11596,-1.33828 -2.80598,-3.04253 -8.78122,-3.04055 -5.88447,0.002 -10.66912,2.40544 -14.6138,7.34099 -2.79035,3.49126 -3.0711,4.50317 -3.0711,11.06929 0,6.05883 0.40403,7.82252 2.5,10.91316 3.38958,4.99815 9.05402,7.67323 16.25,7.67422 3.1625,4.4e-4 5.75,-0.40433 5.75,-0.89947 z"
       id="path1" />
  </g>
</svg>
