<?xml version="1.0" encoding="UTF-8" standalone="no"?>
<!-- Created with Inkscape (http://www.inkscape.org/) -->

<svg
   version="1.1"
   id="svg1"
   width="195.26093"
   height="515.30145"
   viewBox="0 0 195.26093 515.30145"
   xmlns="http://www.w3.org/2000/svg"
   xmlns:svg="http://www.w3.org/2000/svg">
  <defs
     id="defs1" />
  <g
     id="g1"
     transform="translate(863.22599,116.01602)">
    <path
       style="fill:#000000"
       d="m -766.34573,397.40774 c -0.77974,-1.45695 -0.64867,-2.31509 0.53426,-3.49802 1.18293,-1.18293 2.04107,-1.314 3.49802,-0.53426 2.05763,1.10121 2.28868,1.86598 1.32356,4.38104 -0.84206,2.19439 -4.10863,1.98167 -5.35584,-0.34876 z m 3.96283,-1.06945 c 0,-0.55 -0.45,-1 -1,-1 -0.55,0 -1,0.45 -1,1 0,0.55 0.45,1 1,1 0.55,0 1,-0.45 1,-1 z m -67.60746,-9.41944 c -0.35704,-0.93042 -0.37544,-3.68867 -0.0409,-6.12943 l 0.60827,-4.43776 -4.97996,-2.52353 c -2.73897,-1.38794 -4.97995,-2.95338 -4.97995,-3.47875 0,-0.52537 2.4481,-1.6669 5.44023,-2.53674 l 5.44022,-1.58151 1.17083,-5.69642 c 0.64395,-3.13303 1.36026,-6.01427 1.5918,-6.40275 0.88345,-1.48229 3.01731,0.42537 5.39099,4.81951 l 2.46593,4.56493 5.66616,-0.62923 c 7.07037,-0.78516 7.98015,0.38151 3.91127,5.01571 -3.58503,4.08312 -3.62942,4.42292 -1.393,10.6627 0.93188,2.60001 1.3828,5.03882 1.00204,5.41957 -0.38076,0.38076 -2.88011,-0.33243 -5.55411,-1.58486 -4.99141,-2.33786 -7.79203,-1.99623 -9.83953,1.20026 -0.43606,0.68076 -1.79595,2.08649 -3.02198,3.12386 -2.05808,1.74137 -2.27897,1.75629 -2.87831,0.19444 z m 7.60746,-7.54167 c 0,-1.88538 3.37178,-1.88987 7.05785,-0.009 2.16818,1.10613 3.94215,1.7861 3.94215,1.51105 0,-0.27505 -0.72543,-2.31311 -1.61206,-4.52902 -1.59117,-3.97674 -1.57646,-4.07559 1.13594,-7.63174 l 2.748,-3.60281 -4.80349,0.38204 c -4.7282,0.37605 -4.84712,0.31324 -7.58708,-4.00724 l -2.7836,-4.38928 -0.63633,2.86875 c -1.57718,7.11041 -2.07772,7.85828 -6.2393,9.32236 l -4.13184,1.45362 3.70488,2.09719 c 3.45696,1.95686 3.70096,2.40708 3.64631,6.72816 l -0.0586,4.63097 2.80857,-1.99987 c 1.54474,-1.10031 2.8086,-2.37147 2.8086,-2.82518 z m 83.57143,4.38968 c -2.90141,-2.90141 -1.76705,-6.15621 2.70125,-7.75065 1.97401,-0.7044 5.72732,2.40888 5.72732,4.75065 0,2.01453 -2.79661,4.57143 -5,4.57143 -1.02143,0 -2.56429,-0.70714 -3.42857,-1.57143 z m 5.15043,-1.55043 c 1.53626,-1.53626 0.46752,-3.87814 -1.76983,-3.87814 -2.45743,0 -3.40381,1.75071 -1.91568,3.5438 1.45206,1.74963 2.20217,1.81768 3.68551,0.33434 z m -43.84241,-24.12661 c -7.85957,-2.75024 -12.55718,-6.13757 -17.9193,-12.92116 -5.33315,-6.74694 -7.31284,-13.8891 -6.7615,-24.39354 0.55332,-10.54212 4.52342,-19.20344 11.80189,-25.7474 14.70205,-13.21841 34.62161,-13.53996 50.73995,-0.81908 11.89631,9.38879 15.79971,30.46489 8.41894,45.45736 -8.14319,16.54117 -28.50043,24.64528 -46.27998,18.42382 z m 23.9167,-3.84006 c 7.57913,-2.55952 15.21236,-9.10668 19.00839,-16.30387 2.4049,-4.55962 2.694,-6.18046 2.69469,-15.1076 9.4e-4,-12.16734 -1.90533,-17.10331 -9.43935,-24.44167 -13.09981,-12.75961 -33.58353,-12.65372 -46.89407,0.24242 -6.48679,6.28484 -9.40255,12.6874 -9.95251,21.85416 -0.61413,10.23626 1.60887,17.31875 7.48845,23.85826 10.0647,11.19437 23.01987,14.65134 37.0944,9.8983 z m 58.5611,-2.74413 c 0.52289,-3.27 0.24202,-4.1551 -1.91324,-6.02907 -3.00888,-2.61619 -2.41777,-4.13827 1.60714,-4.13827 2.38468,0 3.26179,-0.68035 4.69098,-3.63869 2.12863,-4.40614 3.46236,-4.52783 4.65593,-0.42478 0.75227,2.586 1.527,3.18776 4.77216,3.70668 4.93589,0.78928 5.46379,1.71135 2.203,3.8479 -2.27001,1.48737 -2.54154,2.2173 -2.08659,5.60919 0.64504,4.80915 -0.46188,5.62316 -4.1121,3.02398 -2.785,-1.9831 -2.83977,-1.98376 -5.74317,-0.0698 -4.15409,2.7384 -4.76827,2.45392 -4.07411,-1.88711 z m 9.35123,-0.6227 c 2.56057,1.67775 2.5666,1.67467 2.04624,-1.04738 -0.35781,-1.87181 0.0768,-3.3288 1.38253,-4.63451 1.87256,-1.87256 1.85462,-1.91438 -1.07177,-2.49965 -2.04502,-0.40901 -3.2526,-1.41934 -3.85964,-3.22917 l -0.88344,-2.63393 -1.68688,3.25 c -1.2697,2.44625 -2.35383,3.25 -4.38371,3.25 h -2.69682 l 2.3222,1.62653 c 1.85543,1.2996 2.20212,2.22692 1.7248,4.61351 l -0.59739,2.98697 2.56787,-1.68254 c 2.40639,-1.57672 2.72938,-1.57671 5.13601,1.7e-4 z m -176.6628,-16.9896 c -1.55377,-1.87218 -0.98651,-5.57461 1.04954,-6.85017 2.26366,-1.41814 6.57202,-0.0854 7.17475,2.2195 1.17536,4.49457 -5.30776,8.14488 -8.22429,4.63067 z m 5.76674,-2.81955 c 0.41122,-2.13526 -2.69907,-3.53694 -3.82082,-1.72189 -1.15356,1.86649 -0.0256,4.1396 1.87274,3.77401 0.88698,-0.17082 1.76362,-1.09427 1.94808,-2.05212 z m 30.19815,-1.22276 c -1.6616,-2.00209 -0.55479,-4.51273 1.98943,-4.51273 1.13452,0 2.32399,0.68073 2.64326,1.51273 0.57462,1.49745 -1.18656,4.48727 -2.64326,4.48727 -0.41531,0 -1.31055,-0.66927 -1.98943,-1.48727 z m 154,-12 c -1.62381,-1.95656 -0.57531,-4.51273 1.85106,-4.51273 2.55991,0 3.43347,2.56204 1.52445,4.47106 -1.87288,1.87289 -1.85591,1.87268 -3.37551,0.0417 z m -36.7011,-2.14865 c -0.66815,-1.74117 0.63364,-4.51178 2.3959,-5.0992 0.58437,-0.19479 1.78883,0.37217 2.67658,1.25992 1.22412,1.22413 1.36446,2.08052 0.58088,3.54465 -1.26042,2.35511 -4.79205,2.53917 -5.65336,0.29463 z m 3.76553,-1.63908 c -0.12369,-1.1957 -1.49529,-0.96414 -1.925,0.325 -0.22,0.66 0.14,1.02 0.8,0.8 0.66,-0.22 1.16625,-0.72625 1.125,-1.125 z m -136.71677,-23.5638 c 0.51849,-3.24243 0.22764,-4.20163 -1.87219,-6.17431 -3.27073,-3.07269 -3.13809,-3.7973 0.76396,-4.17353 2.62704,-0.2533 3.60123,-1.03216 5.08236,-4.06336 1.00779,-2.0625 2.26826,-3.75 2.80102,-3.75 0.53277,0 1.62675,1.575 2.43107,3.5 1.32457,3.17015 1.8381,3.5 5.44897,3.5 4.63574,0 5.01098,1.04905 1.39317,3.89481 -2.2927,1.80344 -2.51441,2.50756 -1.9121,6.07258 0.76022,4.49969 0.0854,4.90095 -4.36881,2.5976 -2.50007,-1.29284 -3.06483,-1.24395 -5.70034,0.49341 -4.14867,2.73486 -4.76205,2.44873 -4.06711,-1.8972 z m 9.22979,-1.30305 c 3.28289,1.49579 3.20966,1.53429 2.65003,-1.39319 -0.30334,-1.58682 0.18055,-3.27003 1.29366,-4.5 1.72561,-1.90678 1.69901,-1.96496 -0.89816,-1.96496 -1.88444,0 -3.0135,-0.73978 -3.8155,-2.5 -0.6265,-1.375 -1.46806,-2.5 -1.87016,-2.5 -0.40209,0 -1.01343,1.125 -1.35853,2.5 -0.50345,2.00587 -1.2511,2.5 -3.78273,2.5 h -3.15526 l 2.29662,2.44464 c 1.70792,1.81799 2.12948,3.11056 1.64459,5.04253 -0.64875,2.58482 -0.6391,2.58942 1.91866,0.91351 2.08192,-1.36413 3.04718,-1.46728 5.07678,-0.54253 z m 145.41198,0.64185 c -3.95968,-4.08535 -4.72323,-4.19201 -10.15882,-1.41898 -5.65821,2.88661 -6.96362,1.40899 -4.0512,-4.58564 l 2.189,-4.50561 -3.56097,-4.66513 c -4.18714,-5.48545 -3.44955,-6.50124 3.89642,-5.3661 l 4.81443,0.74395 3.42315,-5.35125 c 1.88273,-2.94318 3.84298,-5.35124 4.35611,-5.35124 0.51313,0 1.19372,1.35 1.51242,3 0.31871,1.65 0.83745,4.3374 1.15277,5.97201 0.49519,2.56708 1.31544,3.20594 6.02032,4.68903 2.99586,0.94436 5.29232,2.19445 5.10324,2.77799 -0.18909,0.58353 -2.22323,2.10719 -4.52033,3.38589 -4.17053,2.32159 -4.17654,2.33345 -4.17654,8.25 0,7.05497 -1.08679,7.49423 -6,2.42508 z m 7.79502,-11.97269 3.70498,-1.80018 -4.5,-1.50047 c -2.475,-0.82526 -4.64351,-1.61987 -4.81892,-1.76581 -0.1754,-0.14594 -0.63164,-2.44684 -1.01386,-5.1131 l -0.69494,-4.84775 -3.05709,4.5 c -2.97165,4.37422 -3.19085,4.49292 -7.84249,4.24686 l -4.78539,-0.25313 3.10797,3.53978 3.10797,3.53979 -2.00162,3.92351 c -1.1009,2.15793 -2.00163,4.14114 -2.00163,4.40712 0,0.26599 2.0832,-0.43789 4.62933,-1.56416 l 4.62933,-2.04778 3.62067,3.62873 3.62067,3.62872 0.29502,-5.36098 c 0.2798,-5.08447 0.4861,-5.45382 4,-7.16115 z m -50.09378,-3.15941 c -1.2932,-1.29319 -0.71803,-4.14748 0.96598,-4.79369 2.10762,-0.80877 3.62704,0.65929 3.16508,3.05809 -0.36719,1.90665 -2.89711,2.96956 -4.13106,1.7356 z m -44.69724,-16.46732 c -6.21612,-1.21707 -12.07957,-3.66543 -14.76524,-6.16542 -3.01085,-2.80269 -3.86824,-6.46904 -5.66746,-24.23516 -2.34276,-23.13317 -9.99328,-115.64611 -13.02474,-157.5 -3.92112,-54.13704 -7.73906,-128.06643 -7.7585,-150.23321 -0.0155,-17.70178 0.11374,-18.99566 2.34775,-23.5 4.79867,-9.67531 16.56481,-12.62387 50.36419,-12.6211 20.5221,0.002 23.85147,0.23615 30.90341,2.17642 15.40791,4.23932 17.59659,8.26004 17.59659,32.32575 0,13.84398 -0.46051,24.08061 -3.05241,67.85214 -0.87271,14.7380302 -5.0141,69.86227 -8.94027,119 -0.54933,6.875 -1.88262,25.775 -2.96287,42 -1.08026,16.225 -2.67513,40.075 -3.54416,53 -2.03994,30.33971 -3.93152,45.34179 -6.20836,49.23829 -4.28798,7.3383 -21.04327,11.4513 -35.28793,8.66229 z m 20.20751,-4.27597 c 7.16959,-1.6873 10.5916,-3.90445 12.27389,-7.95239 1.63844,-3.94242 3.11088,-16.24284 4.50962,-37.67222 2.04814,-31.37873 8.02031,-115.54302 9.01172,-127 5.81992,-67.25656 10.29832,-142.63273 9.82682,-165.39594 -0.28764,-13.88707 -0.60508,-16.55303 -2.30586,-19.36538 -4.19127,-6.93055 -19.86356,-9.81377 -48.5277,-8.92759 -25.77778,0.79694 -35.33327,3.08097 -39.63687,9.47431 -4.21827,6.26658 -4.23561,9.934 -0.39566,83.7146 3.44657,66.22238 4.76517,84.88116 13.07375,185 5.67675,68.4051 6.54733,76.89325 8.23984,80.33871 3.66031,7.45136 19.70639,11.13339 33.93045,7.7859 z"
       id="path1" />
  </g>
</svg>
