<?xml version="1.0" encoding="UTF-8" standalone="no"?>
<!-- Created with Inkscape (http://www.inkscape.org/) -->

<svg
   version="1.1"
   id="svg1"
   width="537.74622"
   height="535.77954"
   viewBox="0 0 537.74622 535.77954"
   sodipodi:docname="viber_image_2026-06-13_03-56-14-992.jpg"
   xmlns:inkscape="http://www.inkscape.org/namespaces/inkscape"
   xmlns:sodipodi="http://sodipodi.sourceforge.net/DTD/sodipodi-0.dtd"
   xmlns="http://www.w3.org/2000/svg"
   xmlns:svg="http://www.w3.org/2000/svg">
  <defs
     id="defs1" />
  <sodipodi:namedview
     id="namedview1"
     pagecolor="#ffffff"
     bordercolor="#000000"
     borderopacity="0.25"
     inkscape:showpageshadow="2"
     inkscape:pageopacity="0.0"
     inkscape:pagecheckerboard="0"
     inkscape:deskcolor="#d1d1d1">
    <inkscape:page
       x="0"
       y="0"
       width="537.74622"
       height="535.77954"
       id="page2"
       margin="0"
       bleed="0" />
  </sodipodi:namedview>
  <g
     inkscape:groupmode="layer"
     inkscape:label="Image"
     id="g1"
     transform="translate(1037.4756,-381.22272)">
    <path
       style="fill:#000000"
       d="m -517.62878,913.18465 c -1.2197,-4.52957 -1.5778,-4.69222 -5.6522,-2.56728 -4.5341,2.3647 -11.2577,1.88503 -17.435,-1.24384 -6.9395,-3.51492 -10.8703,-9.99364 -10.9059,-17.97525 l -0.023,-5.22525 -2.75,1.08619 c -4.3815,1.73057 -15.1622,1.43107 -21.25,-0.59034 -25.268,-8.39008 -42.5373,-24.77373 -74.8857,-71.04535 -17.7555,-25.39768 -33.1114,-42.33968 -43.9595,-48.5 -3.3898,-1.925 -7.5227,-4.28776 -9.1842,-5.25057 -1.94,-1.12426 -3.2384,-2.83886 -3.6291,-4.79235 -0.444,-2.21968 -1.5003,-3.41444 -3.9085,-4.42065 -3.7481,-1.56606 -5.8547,-5.07826 -6.8189,-11.36907 -1.045,-6.81726 -5.0953,-13.79649 -9.8151,-16.91279 -3.642,-2.40463 -5.0222,-2.72548 -10.8645,-2.5256 -6.0809,0.20805 -7.0836,-0.0544 -10.9729,-2.87179 l -4.2805,-3.10076 -4.0905,2.08389 c -2.2498,1.14614 -8.5906,4.4921 -14.0906,7.43548 -16.5272,8.84469 -35.0816,15.30378 -55.1658,19.20406 -11.0681,2.1494 -34.3213,2.95977 -45.3342,1.5799 -40.787,-5.11045 -64.6161,-14.75226 -95.4371,-38.61611 -7.4559,-5.77291 -24.0992,-21.91935 -29.8343,-28.94364 -13.00482,-15.92817 -28.91902,-48.19368 -34.22592,-69.39171 -4.4899,-17.9347 -5.8096,-30.80484 -5.1893,-50.60829 0.6777,-21.63933 3.2604,-35.44208 10.8516,-57.99532 7.6447,-22.71198 18.8758,-41.36434 37.91702,-62.97167 26.0231,-29.53003 67.8485,-51.0997 107.8279,-55.60752 15.0927,-1.70176 46.7926,-0.64543 59.5219,1.98342 21.2542,4.38941 41.8763,12.97248 63.4636,26.41398 17.0511,10.61703 39.5444,32.29592 50.5886,48.75693 13.9467,20.78717 25.3374,49.73723 30.6586,77.92018 1.6838,8.91797 1.6548,42.27011 -0.047,53.45994 -2.7613,18.16189 -17.3209,55.54575 -27.0833,69.54006 -0.9592,1.375 -2.4874,3.95547 -3.396,5.73437 -1.6235,3.17865 -1.5995,3.3068 1.3942,7.43948 2.6987,3.72549 3.0264,4.92469 2.8726,10.51391 -0.1485,5.3994 0.2472,6.98928 2.7451,11.02959 4.2258,6.8351 9.622,10.30336 16.5744,10.65266 6.5554,0.32935 9.9817,2.24773 11.7835,6.5976 0.7996,1.93028 2.5404,3.64357 4.5594,4.48715 2.3335,0.97499 4.8814,3.8176 8.9237,9.95577 10.2716,15.59721 24.0881,28.42717 49.6337,46.08947 22.5509,15.59181 44.3971,32.9521 52.4079,41.64644 14.6418,15.89128 22.4816,32.0331 22.4939,46.31366 l 0.01,6.0399 6.8708,0.0281 c 8.8829,0.0363 13.8337,3.14604 17.7492,11.1489 2.3532,4.80983 2.586,6.20188 2.0688,12.37135 -0.5631,6.71575 -0.5064,6.95169 1.6679,6.95169 5.5288,0 7.6947,6.37608 2.8829,8.48713 -1.4175,0.6219 -2.25,1.859 -2.25,3.34362 0,2.14625 -2.3311,3.73576 -4.7215,3.2194 -0.4282,-0.0925 -1.0213,0.87087 -1.318,2.14083 -0.3687,1.57768 -1.3807,2.40756 -3.195,2.62014 -2.3473,0.275 -2.7824,-0.16027 -3.749,-3.75 z m -6.6584,-6.56083 c 3.6275,-1.72136 6.8779,-5.81892 3.8773,-4.88778 -1.6252,0.50431 -1.6243,0.46707 0.015,-0.58669 0.9625,-0.61886 1.75,-1.58498 1.75,-2.14694 0,-1.71052 2.9656,-4.10604 4.4012,-3.55515 1.7842,0.68463 3.5988,-3.42941 3.5988,-8.15889 0,-9.91627 -8.5485,-17.73341 -18.4364,-16.85909 -3.4701,0.30683 -5.4485,1.06888 -6.6603,2.56537 -0.9481,1.17088 -2.106,2.12888 -2.573,2.12888 -1.149,0 -3.6138,4.04981 -2.8996,4.76405 0.3131,0.3131 0.5693,0.0443 0.5693,-0.59738 0,-2.03471 1.6362,-1.26056 2.818,1.33333 0.8118,1.78153 0.8248,2.5 0.046,2.5 -0.6463,0 -0.4235,1.02266 0.5444,2.5 1.691,2.58067 0.9115,3.41948 -1.208,1.3 -1.9728,-1.97283 -1.3596,0.34331 1.0043,3.79319 2.2819,3.33025 6.0842,6.05291 11.2849,8.08073 2.5231,0.98376 2.6569,1.18625 0.8259,1.25 -3.3372,0.1162 -6.7071,-1.45717 -10.9382,-5.10693 l -3.8454,-3.31699 3.2752,4.19561 c 3.4421,4.40937 5.244,5.38273 10.2272,5.52442 5.3044,0.15081 4.1348,2.63426 -1.5339,3.2568 -1.1,0.12081 -2.8656,0.59107 -3.9236,1.04502 -1.4573,0.62528 -1.7912,0.48025 -1.3776,-0.59824 0.3784,-0.98644 -0.2498,-1.47209 -2.0457,-1.58148 -1.4254,-0.0868 -2.7555,-0.64932 -2.9557,-1.25 -0.2002,-0.60067 -1.2378,-1.09213 -2.3057,-1.09213 -1.3574,0 -2.1222,-0.90272 -2.5417,-3 -0.33,-1.65 -0.9937,-3 -1.475,-3 -0.4812,0 -0.7625,-0.50625 -0.625,-1.125 0.1375,-0.61875 -0.3125,-1.33125 -1,-1.58333 -1.9399,-0.71131 -1.4852,1.63122 1.209,6.22861 4.6814,7.98815 13.6585,11.41592 20.8991,7.98001 z m 5.3284,-26.85596 c -2.0477,-3.12517 -8.3211,-6.99852 -10.1799,-6.28525 -0.7934,0.30446 -1.7085,0.12323 -2.0336,-0.40275 -0.8712,-1.40968 3.0981,-1.16239 6.9105,0.43053 3.1269,1.3065 8.391,7.17196 7.361,8.20192 -0.2604,0.2605 -1.1866,-0.6145 -2.058,-1.94445 z m -7.6865,-2.2072 c -3.2369,-1.22471 -3.3025,-1.32849 -0.8724,-1.38069 1.4451,-0.031 3.1877,0.61856 3.8724,1.44356 0.6847,0.825 1.0773,1.44631 0.8724,1.38069 -0.2048,-0.0656 -1.9474,-0.71522 -3.8724,-1.44356 z m -9,-1.43713 c 1.9759,-1.2769 5.2892,-1.2769 4.5,0 -0.3399,0.55 -1.829,0.99311 -3.309,0.98469 -2.1048,-0.012 -2.3642,-0.22649 -1.191,-0.98469 z m 25.5269,29.02971 c -0.9868,-1.0904 -2.2453,-1.70377 -2.7966,-1.36304 -0.5627,0.34779 0.038,1.40396 1.3687,2.40803 2.9596,2.23242 3.8224,1.60096 1.4279,-1.04499 z m 6.4731,-2.91308 c 0,-0.94487 -3.5265,-2.13317 -6,-2.02176 -0.825,0.0372 -0.15,0.68572 1.5,1.44124 3.5806,1.63954 4.5,1.75814 4.5,0.58052 z m -37.3169,-4.30413 c -0.3192,-0.79773 -0.5562,-0.56078 -0.6042,0.60417 -0.043,1.05416 0.193,1.64479 0.5253,1.3125 0.3323,-0.33229 0.3678,-1.1948 0.079,-1.91667 z m -4.6984,-13.0625 c -0.012,-1.81944 -0.2008,-1.96296 -0.9847,-0.75 -1.2529,1.93876 -1.2529,3 0,3 0.55,0 0.9931,-1.0125 0.9847,-2.25 z m -7.4847,-4.11615 c 9.4568,-4.43827 13.4632,-10.5963 13.6182,-20.93189 0.2582,-17.20839 -11.8411,-36.69649 -34.5315,-55.61911 -9.8246,-8.19324 -28.0636,-21.66575 -39.5867,-29.2414 -25.2913,-16.6273 -46.0391,-36.42976 -51.2631,-48.92738 -0.7849,-1.87774 -2.2063,-4.06031 -3.1586,-4.85017 -2.7149,-2.25155 -7.5064,0.89493 -19.9644,13.11006 -8.1166,7.95834 -10.719,11.10955 -10.2292,12.38612 0.6169,1.6075 0.7765,1.60408 2.6107,-0.0558 1.0745,-0.97241 2.2204,-2.60866 2.5465,-3.63612 0.7494,-2.361 2.2819,-2.44732 2.097,-0.11812 -0.076,0.9625 0.4236,1.6375 1.1111,1.5 0.6875,-0.1375 1.25,0.65 1.25,1.75 0,1.1 0.4327,2 0.9614,2 0.5287,0 2.7962,1.85331 5.0389,4.11847 3.4921,3.52722 4.0903,4.75878 4.167,8.57859 0.069,3.43666 0.6801,5.00769 2.663,6.84635 2.8898,2.67963 3.6553,2.56183 2.7099,-0.41702 -0.3933,-1.23897 -1.2046,-1.80864 -2.0913,-1.46837 -1.6327,0.62651 -1.8519,-1.89288 -0.4489,-5.15802 0.8235,-1.91623 0.8624,-1.91952 0.9298,-0.0787 0.039,1.05669 0.765,2.68899 1.6142,3.62733 0.8492,0.93835 1.7563,2.87671 2.0157,4.30747 0.4855,2.67745 5.3605,10.62416 5.5417,9.03349 0.056,-0.48925 0.055,-2.46455 -8e-4,-4.38955 l -0.1021,-3.5 1.415,3.5 c 0.7782,1.925 1.6917,4.7559 2.03,6.2909 0.3544,1.60782 1.0636,2.51377 1.673,2.13714 0.5818,-0.35957 0.8487,-1.45316 0.5932,-2.4302 -0.2555,-0.97704 -0.077,-2.38876 0.3976,-3.13714 0.629,-0.99269 0.8663,-0.7411 0.8774,0.9302 0.01,1.26 0.9632,5.22469 2.1216,8.81043 1.1584,3.58574 1.8527,6.77304 1.5428,7.0829 -0.526,0.52605 -2.8174,-3.96883 -4.0447,-7.93423 -0.2979,-0.9625 -1.0608,-1.75 -1.6954,-1.75 -0.8313,0 -0.8059,0.41929 0.091,1.5 1.0196,1.22851 0.9512,1.5 -0.3776,1.5 -0.8923,0 -1.6227,-0.5625 -1.6229,-1.25 -6e-4,-1.35902 -14.0096,-16.00625 -18.4112,-19.25 -1.4926,-1.1 -3.4607,-2.7875 -4.3733,-3.75 -0.9127,-0.9625 -2.0008,-1.75 -2.4178,-1.75 -0.4171,0 -3.2421,-1.58883 -6.2778,-3.53073 -5.2397,-3.35177 -5.9733,-4.29859 -5.5941,-7.21927 0.2587,-1.99199 -1.7496,-1.44683 -2.9529,0.80158 -1.9231,3.59333 -0.7472,6.14182 4.0276,8.72898 9.4756,5.13427 16.703,10.35106 22.0691,15.92972 7.314,7.60377 14.7783,16.58709 18.936,22.78972 5.502,8.208 31.8075,43.41454 38.6231,51.69203 3.4834,4.23061 8.6386,9.85561 11.4559,12.5 5.2076,4.88785 17.7548,14.20397 19.2208,14.27111 0.4426,0.0203 2.795,0.94349 5.2274,2.05159 11.7257,5.34167 22.2136,6.2583 29.9677,2.61912 z m -14,-1.70692 c -1.65,-0.33603 -4.35,-0.38115 -6,-0.10029 -2.5762,0.43853 -2.8258,0.29865 -1.7669,-0.99013 1.0531,-1.28167 0.4948,-1.67124 -3.8241,-2.66815 -7.1891,-1.65944 -23.909,-13.01912 -23.909,-16.24401 0,-1.50718 3.8104,0.8194 7.6807,4.68972 2.1043,2.10423 4.366,3.38593 5.9751,3.38593 2.188,0 2.3963,-0.23235 1.3442,-1.5 -0.6847,-0.825 -1.8877,-1.5 -2.6734,-1.5 -0.7857,0 -2.9286,-1.6374 -4.762,-3.63867 -2.6537,-2.89661 -3.8727,-3.5356 -5.9773,-3.13326 -2.1323,0.40761 -3.6242,-0.41504 -7.7105,-4.2515 l -5.0668,-4.75689 4.595,0.30978 c 3.6457,0.24579 4.595,-0.0155 4.595,-1.26482 0,-1.37144 0.2499,-1.34843 1.937,0.17833 1.0653,0.96413 2.4153,1.45731 3,1.09597 0.5846,-0.36133 1.063,-0.18042 1.063,0.40204 0,0.58246 -0.675,1.05902 -1.5,1.05902 -2.0466,0 -1.8831,1.34333 0.4168,3.42472 1.5372,1.3911 2.3335,1.51167 4.0207,0.60874 1.1571,-0.61927 2.5134,-0.8728 3.0141,-0.56339 0.5006,0.3094 1.1929,0.10521 1.5383,-0.45376 0.9794,-1.58472 3.5101,-1.19345 3.5101,0.54271 0,0.85746 -0.4035,1.30963 -0.8967,1.00483 -0.4932,-0.3048 -2.2985,0.0352 -4.0118,0.75561 l -3.115,1.3098 2.2886,2.15009 c 2.2908,2.15211 6.7349,2.15015 6.7349,-0.003 0,-0.5447 0.675,-0.73134 1.5,-0.41475 0.825,0.31658 1.5,0.15385 1.5,-0.36163 0,-0.51548 0.675,-0.67821 1.5,-0.36163 0.825,0.31659 1.5,1.17032 1.5,1.89719 0,2.10215 2.8967,4.42994 4.7789,3.84032 1.4302,-0.44803 1.393,-0.27183 -0.22,1.04248 -1.0677,0.8699 -2.7552,1.58164 -3.75,1.58164 -0.9949,0 -1.8089,0.40186 -1.8089,0.89301 0,1.36934 3.4124,2.3699 3.8282,1.12248 0.2658,-0.79738 0.7312,-0.79608 1.6962,0.005 1.3493,1.11986 7.7345,-0.0358 11.7256,-2.12232 0.9625,-0.50317 1.7472,-0.57354 1.7437,-0.15638 -0.01,1.01244 -5.7823,4.25847 -7.5747,4.25847 -1.9562,0 -1.786,1.64519 0.2511,2.42688 0.9185,0.35247 1.9932,0.11797 2.3881,-0.52113 0.395,-0.63909 1.2286,-0.84651 1.8525,-0.46094 0.6239,0.38557 3.2058,-0.45678 5.7377,-1.87189 5.1639,-2.88615 5.3516,-2.94367 5.3516,-1.64031 0,0.51294 -0.9,1.21826 -2,1.56739 -1.1,0.34913 -2,1.27945 -2,2.06739 0,1.62127 3.5542,1.96296 4.5,0.43261 0.3399,-0.55 1.1112,-1 1.714,-1 0.6028,0 0.3512,0.82293 -0.559,1.82874 -2.355,2.60222 -2.0585,3.30136 1.095,2.58239 2.6205,-0.59746 2.6558,-0.55762 0.75,0.84625 -3.9112,2.88104 -9.9852,3.89446 -16,2.66955 z m 11.5,-3.00253 c 0,-0.4739 -0.675,-0.60261 -1.5,-0.28603 -0.825,0.31659 -1.5,0.96334 -1.5,1.43723 0,0.4739 0.675,0.60261 1.5,0.28603 0.825,-0.31659 1.5,-0.96334 1.5,-1.43723 z m -5.4023,0.0384 c 1.9774,-0.75179 2.4265,-1.33862 1.6324,-2.13278 -0.658,-0.65795 -1.8216,-0.76581 -2.9129,-0.26999 -2.0715,0.94119 -3.0049,1.15616 -5.8172,1.33989 -1.6673,0.10893 -1.7505,0.29192 -0.5,1.10004 1.9474,1.25851 4.2191,1.2474 7.5977,-0.0372 z m -11.4253,-2.68881 c -2.5737,-1.79241 -7.1724,-2.61897 -7.1724,-1.28914 0,1.02775 4.7316,2.84704 7.5,2.88371 1.8608,0.0246 1.838,-0.0863 -0.3276,-1.59457 z m -10.2463,-3.86306 c -1.2266,-1.47795 -4.9261,-1.96467 -4.9261,-0.6481 0,0.99708 4.2661,2.97739 5.2986,2.45957 0.4392,-0.22027 0.2716,-1.03543 -0.3725,-1.81147 z m 2.0739,-6.44231 c 0,-2.5764 -2.2204,-3.45623 -4.9864,-1.97588 -1.7168,0.91876 -1.9068,1.43107 -0.9557,2.577 1.8663,2.2488 5.9421,1.83648 5.9421,-0.60112 z m -21.2262,-9.14718 c -0.548,-1.64414 -3.5342,-3.39432 -4.3683,-2.56024 -0.9514,0.95136 1.5091,3.7388 3.3003,3.7388 0.8035,0 1.2841,-0.53035 1.068,-1.17856 z m 27.7023,8.1032 c -0.3623,-1.14145 -0.3926,-2.34145 -0.067,-2.66667 0.3252,-0.32522 0.5913,0.1587 0.5913,1.07536 0,0.91667 0.45,1.66667 1,1.66667 0.55,0 1,0.45 1,1 0,1.82455 -1.8543,1.03451 -2.5239,-1.07536 z m -22.8932,-12.79043 c -0.4307,-0.697 -0.5131,-1.53733 -0.183,-1.86741 0.8949,-0.89496 1.8707,0.4213 1.3874,1.87145 -0.3388,1.01617 -0.5743,1.01538 -1.2044,-0.004 z m -18.1662,-4.05088 c -0.2292,-0.22916 -0.4167,-1.17192 -0.4167,-2.09501 0,-1.78763 -3.8449,-5.82885 -4.746,-4.98832 -0.8128,0.75823 -2.7861,-2.80117 -1.9928,-3.59454 0.3798,-0.37975 1.3363,-0.15448 2.1257,0.5006 0.9781,0.81182 1.6414,0.8572 2.0831,0.1425 1.0993,-1.77862 -0.529,-3.18203 -3.3155,-2.85761 -2.3407,0.27252 -2.6915,-0.0751 -2.9678,-2.94095 -0.2475,-2.5667 -0.7731,-3.25745 -2.5,-3.28544 -3.4812,-0.0564 -6.1867,-2.22746 -6.1867,-4.96456 0,-1.80516 -0.5384,-2.50099 -1.9373,-2.50355 -1.3493,-0.002 -2.1958,-1.00082 -2.7887,-3.28908 -0.5031,-1.94127 -1.8068,-3.72087 -3.1866,-4.34954 -2.2053,-1.0048 -3.6032,-4.07533 -5.057,-11.10783 -0.9584,-4.63627 -2.8754,-3.3091 -2.1124,1.46246 0.9123,5.70513 0.2775,4.70923 -2.9107,-4.56628 -1.8409,-5.3555 -2.3741,-8.17937 -1.6762,-8.87721 0.6978,-0.69784 1.3733,0.27607 2.1233,3.0616 1.3214,4.90738 3.0456,6.35766 3.0456,2.56178 0,-3.66129 1.2612,-2.21 2.5437,2.9272 0.785,3.14433 1.5905,4.25965 3.25,4.5 1.2713,0.18413 2.2729,-0.23967 2.3634,-1 0.086,-0.72575 0.424,0.93045 0.75,3.68045 0.4989,4.20674 0.9499,5.0507 2.8429,5.31955 1.5859,0.22522 2.2964,-0.21757 2.4071,-1.5 0.086,-1.00075 0.424,0.43045 0.75,3.18045 0.4989,4.20674 0.9499,5.0507 2.8429,5.31955 2.494,0.3542 3.1222,2.18045 0.75,2.18045 -0.9333,0 -1.5,0.94444 -1.5,2.5 0,1.9818 0.5045,2.5 2.4336,2.5 1.9016,0 2.5117,-0.60118 2.7907,-2.75 0.2669,-2.05471 0.6032,-1.35942 1.3305,2.75 0.9212,5.20541 1.1329,5.50195 3.9526,5.53639 2.1782,0.0266 3.0588,0.56437 3.2749,2 0.8531,5.6664 1.2985,6.46361 3.6118,6.46361 1.8177,0 2.493,0.68536 2.9559,3 0.6379,3.18904 3.2111,4.03893 5.45,1.8 1.323,-1.32297 1.5184,-0.79343 0.5952,1.61247 -0.3326,0.86682 -1.0076,1.32707 -1.5,1.02277 -0.4924,-0.3043 -1.4577,-0.19611 -2.1452,0.24043 -1.3091,0.83123 -6.6148,1.12618 -7.3333,0.40766 z m 3.5833,-4.08333 c 0,-1.33333 -0.6666,-2 -2,-2 -2.2667,0 -2.5629,1.03701 -0.8,2.8 1.763,1.76299 2.8,1.46671 2.8,-0.8 z m -22,-27.96862 c 0,-2.22792 -0.3742,-2.82499 -1.5,-2.39301 -1.5275,0.58618 -2.0422,3.48603 -0.8333,4.69496 1.4294,1.42936 2.3333,0.53754 2.3333,-2.30195 z m -6.0153,-6.3404 c -0.01,-1.20504 -0.4342,-2.85337 -0.9462,-3.66295 -0.7972,-1.26069 -1.0258,-1.22448 -1.5925,0.25223 -0.8673,2.26012 0.3359,6.97261 1.5834,6.20162 0.5338,-0.32995 0.9638,-1.58586 0.9553,-2.7909 z m 88.2675,35.80902 c 0.011,-2.2 0.2159,-2.98225 0.4551,-1.73834 0.2392,1.24391 0.2301,3.04391 -0.02,4 -0.2503,0.95609 -0.446,-0.0617 -0.4349,-2.26166 z m -47.7933,-0.56653 c -0.3626,-0.58659 -0.4447,-1.281 -0.1826,-1.54313 0.2622,-0.26213 0.7431,0.21781 1.0688,1.06653 0.6762,1.76211 0.1,2.07206 -0.8862,0.4766 z m 41.62,-2.5168 c 0.048,-1.16495 0.285,-1.4019 0.6042,-0.60417 0.2889,0.72187 0.2534,1.58438 -0.079,1.91667 -0.3323,0.33229 -0.5687,-0.25834 -0.5253,-1.3125 z m -70.62,-8.4832 c -0.3625,-0.58659 -0.419,-1.30665 -0.1255,-1.60014 0.7163,-0.71631 2.6666,0.54583 2.6666,1.72569 0,1.27797 -1.7264,1.19267 -2.5411,-0.12555 z m 2.7361,-16.43347 c 0.02,-1.65 0.2445,-2.20394 0.498,-1.23097 0.2536,0.97297 0.2369,2.32297 -0.037,3 -0.2739,0.67703 -0.4813,-0.11903 -0.461,-1.76903 z m 42.805,-4.5 c -0.9013,-0.58246 -1.0246,-0.97549 -0.309,-0.98469 0.655,-0.008 1.4691,0.43469 1.809,0.98469 0.7673,1.24153 0.4211,1.24153 -1.5,0 z m -7.5,-8 c -0.3399,-0.55 -0.168,-1 0.382,-1 0.55,0 1.2781,0.45 1.618,1 0.3399,0.55 0.168,1 -0.382,1 -0.55,0 -1.2781,-0.45 -1.618,-1 z m -78.8437,-32.20633 c -0.3173,-1.21348 -0.3453,-2.43795 -0.062,-2.72104 0.6467,-0.64669 2.3702,2.00441 2.3907,3.67737 0.026,2.10339 -1.7153,1.38831 -2.3284,-0.95633 z m -16.1563,-24.79367 c -0.3399,-0.55 -0.1414,-1 0.441,-1 0.5825,0 1.059,0.45 1.059,1 0,0.55 -0.1984,1 -0.4409,1 -0.2426,0 -0.7191,-0.45 -1.0591,-1 z m -3.5,-3.5 c 0,-0.825 0.4019,-1.5 0.8931,-1.5 0.4911,0 1.152,0.675 1.4686,1.5 0.3506,0.91371 0,1.5 -0.893,1.5 -0.8078,0 -1.4687,-0.675 -1.4687,-1.5 z m 8,0.44098 c 0,-0.58246 0.45,-0.7809 1,-0.44098 0.55,0.33992 1,0.81648 1,1.05902 0,0.24254 -0.45,0.44098 -1,0.44098 -0.55,0 -1,-0.47656 -1,-1.05902 z m -5,-4.82295 c 0,-0.55 0.45,-1.27811 1,-1.61803 0.55,-0.33992 1,-0.16803 1,0.38197 0,0.55 -0.45,1.27811 -1,1.61803 -0.55,0.33992 -1,0.16803 -1,-0.38197 z m 19.3421,-4.68207 c -1.401,-3.06022 -2.3728,-5.73854 -2.1595,-5.95182 0.2133,-0.21328 1.5715,2.29053 3.0183,5.56404 1.4468,3.2735 2.4186,5.95182 2.1595,5.95182 -0.259,0 -1.6173,-2.50382 -3.0183,-5.56404 z m -15.2129,28.29321 c -1.6649,-1.66487 -2.6078,-0.0108 -1.0582,1.85632 0.9372,1.12923 1.4792,1.26409 1.755,0.43666 0.2195,-0.65843 -0.094,-1.69027 -0.6968,-2.29298 z m -3.6292,-2.72917 c -0.3399,-0.55 -1.0414,-1 -1.559,-1 -0.5175,0 -0.941,0.45 -0.941,1 0,0.55 0.7016,1 1.5591,1 0.8574,0 1.2809,-0.45 0.9409,-1 z m 4.4101,-2.16805 c -0.7748,-1.44769 -1.407,-1.73499 -2.1603,-0.98169 -0.7533,0.7533 -0.693,1.51314 0.2059,2.59635 1.7755,2.13925 3.2926,0.88581 1.9544,-1.61466 z m -8.4101,-0.83195 c -0.4504,-1.41932 -0.1797,-2 0.9327,-2 0.862,0 1.5673,0.45 1.5673,1 0,0.55 0.675,1 1.5,1 2.1653,0 1.8472,-2.09646 -0.4075,-2.68607 -1.0492,-0.27436 -2.1439,-1.40251 -2.4327,-2.507 -0.6204,-2.37238 -2.887,-1.43048 -2.4826,1.03166 0.1501,0.91378 -0.111,2.27422 -0.5802,3.02321 -0.5388,0.86 -0.3454,1.68345 0.5249,2.23469 1.9625,1.24303 2.0888,1.14257 1.3781,-1.09649 z m -4,-3 c -0.3399,-0.55 -1.2664,-1 -2.059,-1 -0.7925,0 -1.441,0.45 -1.441,1 0,0.55 0.9266,1 2.0591,1 1.1324,0 1.7809,-0.45 1.4409,-1 z m -4,-2 c 0.34,-0.55 0.1415,-1 -0.4409,-1 -0.5825,0 -1.0591,0.45 -1.0591,1 0,0.55 0.1985,1 0.441,1 0.2426,0 0.7191,-0.45 1.059,-1 z m 6.5,-2.55902 c 0,-0.79254 -0.675,-1.44098 -1.5,-1.44098 -1.5062,0 -2.0556,2.11099 -0.8605,3.30615 0.9333,0.93324 2.3605,-0.19452 2.3605,-1.86517 z m -15,-0.23063 c 0,-2.10323 23.4081,-26.21035 25.4504,-26.21035 2.2418,0 5.4004,-3.85455 4.8581,-5.92843 -0.8105,-3.09931 -3.2314,-4.56305 -7.7117,-4.66258 -2.2532,-0.05 -6.1218,-0.99329 -8.5968,-2.09608 -5.2334,-2.33188 -12.7579,-9.50022 -13.6333,-12.9881 -0.7549,-3.00786 -0.8555,-2.95719 -6.7498,3.40062 -4.3964,4.74207 -4.8654,5.71333 -5.0699,10.5 -0.3115,7.29255 -1.6081,13.11345 -2.6818,12.03977 -0.5122,-0.51227 -0.2646,-2.94278 0.5887,-5.77804 0.81,-2.69161 1.2942,-5.0724 1.076,-5.29063 -1.0194,-1.01938 -2.326,1.12727 -2.9103,4.78131 -0.6826,4.26844 -2.6091,5.56417 -2.6349,1.77216 -0.012,-1.82735 -0.2002,-1.96823 -1,-0.75 -0.764,1.16386 -1.1659,1.2199 -1.7936,0.25007 -0.6428,-0.9931 -1.1819,-0.97722 -2.6241,0.0773 -1.6919,1.23713 -1.6119,1.41136 1.1777,2.56686 5.3465,2.2146 13.2553,12.52591 13.2553,17.28194 0,2.01222 1.6082,3.26685 2.4473,1.90924 0.3219,-0.52097 0.1264,-1.23089 -0.4346,-1.5776 -1.068,-0.66005 -0.3504,-5.22273 1.1166,-7.09982 0.4693,-0.6006 0.591,-1.35435 0.2704,-1.675 -0.3206,-0.32064 -0.1054,-1.40424 0.4783,-2.40799 0.8798,-1.51297 1.0725,-1.1411 1.1271,2.175 0.064,3.87612 0.107,3.92563 1.3966,1.59861 0.9365,-1.69002 1.4683,-1.98874 1.7951,-1.00842 0.3154,0.94642 2.9229,-0.8075 8.1338,-5.47118 4.2182,-3.77528 7.6694,-6.46032 7.6694,-5.96675 0,0.49356 -2.4326,3.46985 -5.4058,6.61396 -5.0132,5.30139 -5.3772,6.01317 -5.0124,9.80052 0.2163,2.24618 0.6978,4.57652 1.0698,5.17855 0.4376,0.70795 0.07,0.86199 -1.0394,0.4361 -1.0193,-0.39113 -1.468,-0.25712 -1.1051,0.33006 0.336,0.5437 0.3032,1.48659 -0.073,2.09531 -0.4768,0.77153 -0.9444,0.69581 -1.5437,-0.25 -1.3138,-2.07346 -1.0547,-4.83518 0.6097,-6.49962 1.5915,-1.59149 2.0014,-3.39511 0.75,-3.30034 -0.4125,0.0312 -2.9469,2.75949 -5.6319,6.06277 -4.3682,5.37399 -4.7651,6.26243 -3.7714,8.4432 0.7494,1.64496 1.9301,2.43723 3.6319,2.43723 1.3868,0 2.5214,-0.35534 2.5214,-0.78965 z m -1.428,-4.88331 c -0.3506,-0.91381 -0.1065,-2.14873 0.5424,-2.74426 0.8784,-0.80599 1.0289,-0.65194 0.589,0.60261 -0.3251,0.92697 -0.076,1.85708 0.5536,2.06692 0.818,0.27266 0.8318,0.57479 0.049,1.05886 -0.6028,0.37254 -1.3829,-0.0703 -1.7336,-0.98413 z m -7.5061,-14.32704 c 0,-2.475 0.6047,-5.58221 1.3377,-6.90492 1.2099,-2.18352 1.2873,-1.90734 0.8398,3 -0.6532,7.16367 -2.1842,9.90927 -2.1775,3.90492 z m -2.4829,-6.75 c 0.9743,-5.42468 2.6926,-7.79512 1.9934,-2.75 -0.3049,2.2 -0.5593,4.5625 -0.5653,5.25 -0.01,0.6875 -0.4814,1.25 -1.0564,1.25 -0.661,0 -0.7976,-1.37873 -0.3717,-3.75 z m 1.417,-13.19098 c 0,-0.51754 0.4449,-1.21592 0.9886,-1.55194 0.5669,-0.35034 0.7345,0.0511 0.393,0.94098 -0.6648,1.73242 -1.3816,2.04939 -1.3816,0.61096 z m -118.6653,33.39982 c 6.4634,-0.84764 12.8554,-1.96082 14.2045,-2.47372 1.349,-0.51291 6.0474,-1.82722 10.4409,-2.92068 14.1117,-3.51222 33.0976,-12.02581 46.2699,-20.74831 6.4793,-4.29043 8.4875,-6.19682 5.1981,-4.93457 -0.9233,0.35432 -1.2943,0.17866 -0.9158,-0.43369 0.3498,-0.56607 1.4511,-0.77055 2.4472,-0.45439 3.3455,1.06183 32.0313,-28.19081 43.1409,-43.99348 5.0312,-7.15653 15.8796,-25.58176 15.8796,-26.97031 0,-2.50255 5.4033,-14.39851 6.2908,-13.84998 0.6106,0.37738 0.8046,-0.40076 0.4987,-2.00082 -0.2753,-1.4401 -0.1554,-2.40507 0.2664,-2.14438 0.4218,0.26069 1.0827,-1.44042 1.4686,-3.78026 0.3859,-2.33984 1.1348,-4.79137 1.6642,-5.44785 1.0596,-1.31382 2.9232,-7.81402 5.5352,-19.3064 1.3193,-5.80477 1.7127,-12.47267 1.7404,-29.5 0.032,-19.51222 -0.2295,-23.18735 -2.3101,-32.5 -10.6116,-47.49668 -39.5368,-91.91082 -75.1542,-115.39773 -22.0347,-14.53021 -51.3027,-25.28379 -78,-28.65858 -17.7289,-2.2411 -44.3745,-0.26197 -66.1003,4.9097 -35.185,8.37555 -66.8896,29.53289 -92.3783,61.64661 -9.86232,12.42578 -13.47462,17.72966 -18.59002,27.29575 -0.9693,1.81267 -2.2652,3.90163 -2.8798,4.64215 -1.961,2.36288 -9.1487,23.46462 -13.135,38.5621 -6.1773,23.39554 -6.3034,55.40541 -0.319,81 2.099,8.97713 6.2845,21.95671 8.0564,24.98337 0.8104,1.38415 1.2249,1.70576 0.9212,0.71469 -0.334,-1.0898 -0.1455,-1.55055 0.477,-1.16584 0.5661,0.34985 0.7662,1.46469 0.4448,2.47743 -0.7724,2.43374 5.078,15.3711 6.5418,14.46637 0.6736,-0.41626 0.973,0.0354 0.7781,1.17363 -0.1743,1.01769 0.203,1.75208 0.8383,1.63197 0.6353,-0.12011 1.4177,0.46576 1.7385,1.30194 0.332,0.86499 0.1573,1.25697 -0.4051,0.90936 -0.5437,-0.33602 -0.9886,-0.1344 -0.9886,0.44806 0,0.58246 0.6269,1.05902 1.3931,1.05902 0.7661,0 1.661,0.69837 1.9885,1.55194 0.3415,0.88992 0.1739,1.29132 -0.393,0.94098 -1.2729,-0.78667 -1.2561,0.13866 0.047,2.57282 0.5693,1.06384 1.4909,1.93426 2.048,1.93426 1.2434,0 5.84162,5.10686 5.88522,6.53624 0.017,0.56992 1.8188,3.04492 4.0032,5.5 2.1844,2.45507 3.9844,5.27782 4,6.27278 0.016,0.99496 0.4784,1.5309 1.0284,1.19098 0.55,-0.33992 1,0.0835 1,0.94098 0,0.85746 0.675,1.55902 1.5,1.55902 0.825,0 1.5,0.70156 1.5,1.55902 0,0.92379 0.4704,1.26829 1.1545,0.84549 0.7424,-0.45883 0.8819,-0.2724 0.3908,0.52224 -0.9375,1.51695 4.3539,7.32591 6.0725,6.66642 0.6569,-0.25206 1.9813,0.41136 2.9432,1.47427 1.0122,1.11842 1.2625,1.93256 0.594,1.93256 -0.6352,0 -1.155,-0.45 -1.155,-1 0,-0.55 -0.5413,-1 -1.2029,-1 -0.6616,0 0.564,1.80953 2.7236,4.02118 2.1596,2.21164 4.5243,3.7918 5.2549,3.51145 0.7306,-0.28035 1.0933,-0.12946 0.8061,0.33531 -0.562,0.90925 6.6593,7.13206 8.2764,7.13206 0.5364,0 1.1253,0.3375 1.3086,0.75 1.3468,3.03022 24.7742,17.10877 35.3333,21.23331 3.3,1.28903 6.4573,2.68783 7.0161,3.10846 0.5588,0.42062 7.5338,2.41591 15.5,4.43397 24.8195,6.28748 45.4587,7.79992 67.3186,4.9331 z m -40.2443,-5.60943 c -25.3437,-2.82876 -57.4002,-15.50459 -80.0001,-31.63382 -17.2638,-12.32098 -36.2898,-32.81747 -47.32672,-50.98453 -20.4898,-33.72682 -29.2023,-74.23564 -23.8338,-110.81463 3.6717,-25.0181 7.7204,-38.46953 17.131,-56.91643 21.62122,-42.38258 53.99512,-70.87755 96.52442,-84.95933 5.778,-1.91317 13.9727,-4.19877 18.2102,-5.0791 18.3804,-3.81846 47.2125,-4.24455 67.9787,-1.00461 20.2459,3.15876 46.7117,13.87452 66.7259,27.01675 11.5582,7.5896 31.8898,27.73887 40.893,40.52629 13.3303,18.93329 23.0163,42.57624 28.8171,70.34063 2.8244,13.51871 3.1597,16.89101 3.0981,31.15937 -0.06,13.92164 -0.4821,17.99616 -3.249,31.3672 -7.5807,36.63388 -21.963,63.47656 -49.0274,91.50348 -25.7904,26.70748 -66.015,46.15565 -101.5318,49.08954 -12.8896,1.06475 -26.9338,1.2236 -34.4096,0.38919 z m 36.9498,-3.41246 c 22.0988,-3.01414 48.8696,-12.63737 64.8773,-23.32125 2.9795,-1.98863 6.9001,-4.4735 8.7124,-5.52193 1.8123,-1.04843 3.0174,-2.35545 2.6781,-2.90451 -0.3615,-0.58491 -0.1072,-0.68322 0.6141,-0.23742 1.2957,0.80075 5.7979,-3.23774 5.3032,-4.75686 -0.1512,-0.464 0.1661,-0.57116 0.7049,-0.23812 1.769,1.09329 19.0698,-15.41617 19.0698,-18.19753 0,-0.75755 0.402,-1.12892 0.8934,-0.82526 0.4913,0.30366 1.1749,-0.56978 1.519,-1.94098 0.3442,-1.3712 1.0672,-2.49309 1.6067,-2.49309 0.5395,0 0.9809,-0.675 0.9809,-1.5 0,-0.825 0.675,-1.5 1.5,-1.5 0.825,0 1.5,-0.70156 1.5,-1.55902 0,-0.85746 0.4449,-1.28408 0.9886,-0.94806 0.5437,0.33603 0.7588,0.0122 0.4779,-0.71968 -0.2808,-0.73184 0.1754,-2.21772 1.0139,-3.30193 1.5136,-1.95718 1.5203,-1.95698 0.9278,0.0287 -0.455,1.5247 -0.3587,1.66507 0.405,0.59068 0.551,-0.77512 0.7703,-2.01262 0.4873,-2.75 -0.3313,-0.86333 0.2469,-1.34069 1.6239,-1.34069 1.1761,0 2.4364,-0.7875 2.8006,-1.75 0.3642,-0.9625 2.0914,-3.775 3.8381,-6.25 3.8804,-5.49826 8.9112,-14.61583 9.9319,-18 0.4353,-1.44293 -0.8468,-0.17445 -3.0321,3 -2.0823,3.025 -4.1006,5.725 -4.4849,6 -0.3844,0.275 -1.4111,1.85 -2.2816,3.5 -2.0523,3.89011 -9.5982,12.35313 -9.6537,10.82692 -0.024,-0.64519 1.1948,-2.44519 2.7073,-4 1.5125,-1.5548 3.3998,-4.08533 4.1939,-5.62339 0.7941,-1.53806 3.018,-4.63557 4.9421,-6.88336 1.924,-2.24778 4.2142,-5.48937 5.0893,-7.20352 0.8752,-1.71416 2.1387,-3.00415 2.808,-2.86665 0.6692,0.1375 1.2167,-0.36832 1.2167,-1.12405 0,-0.75572 1.1123,-3.36409 2.4717,-5.79636 2.8941,-5.17814 9.0189,-28.6478 10.6381,-40.76446 1.4435,-10.80108 0.6277,-34.70251 -1.6064,-47.06513 -1.8486,-10.22991 -8.0485,-31.8954 -9.5722,-33.45 -0.5796,-0.59134 -0.9312,0.0471 -0.9312,1.69098 0,1.45254 0.4535,2.92123 1.0077,3.26376 0.6247,0.38609 0.4347,1.19577 -0.5,2.13045 -2.6867,2.68673 -2.311,10.65937 0.9513,20.18832 1.2572,3.67207 2.5244,8.92649 2.8161,11.67649 l 0.5303,5 -1.4305,-5 c -1.7943,-6.27188 -4.196,-11.3456 -6.7434,-14.24606 -1.085,-1.23533 -1.6709,-2.54783 -1.3021,-2.91666 0.3689,-0.36884 0.6706,-0.14561 0.6706,0.49605 0,0.64167 0.4988,1.16667 1.1085,1.16667 1.2003,0 0.8532,-2.12082 -1.738,-10.61701 -1.2655,-4.1495 -2.521,-5.84945 -6.6403,-8.99083 -5.7152,-4.3585 -10.7302,-11.51398 -10.7302,-15.31016 v -2.52644 l 2.25,2.25514 c 1.8183,1.82242 1.9846,2.4199 0.8665,3.1138 -1.1143,0.69151 -0.8579,1.54798 1.3173,4.39975 1.4855,1.9476 4.2952,4.75712 6.2438,6.24338 l 3.5429,2.7023 -0.6989,-2.38497 c -2.6318,-8.98142 -14.2545,-25.88496 -17.7983,-25.88496 -0.4627,0 -0.5962,-0.39648 -0.2968,-0.88108 0.2995,-0.48459 -0.7917,-2.39709 -2.425,-4.25 -1.6332,-1.8529 -2.9767,-3.79642 -2.9855,-4.31892 -0.018,-1.09869 0.1707,-0.9132 5.8734,5.76082 5.6063,6.56122 5.1957,4.33077 -0.6293,-3.41817 -5.3026,-7.05401 -10.8386,-12.54082 -13.5824,-13.46171 -1.1139,-0.37385 -1.597,-1.19869 -1.2428,-2.12173 0.3468,-0.9039 -0.4033,-2.28312 -1.8686,-3.43574 -1.3464,-1.0591 -2.7233,-2.79296 -3.0598,-3.85301 -1.2453,-3.92365 -10.3222,-9.21075 -22.3017,-12.99028 -6.3848,-2.01439 -11.1554,-3.94268 -10.6013,-4.28509 0.554,-0.34241 4.7858,0.69987 9.4039,2.31617 9.9512,3.48288 9.7737,3.45928 7.5514,1.00361 -2.2126,-2.44484 -9.822,-6.06003 -12.7979,-6.08018 -1.7959,-0.0122 -1.9561,-0.20804 -0.7788,-0.95242 1.1386,-0.71994 0.096,-1.55733 -4.5,-3.61352 -5.6161,-2.51267 -8.6849,-3.53985 -20.95,-7.01226 -5.8096,-1.64479 -11.1551,-1.82538 -12.0321,-0.40649 -0.3605,0.58342 0.6563,1 2.441,1 1.6825,0 3.059,0.45857 3.059,1.01905 0,0.56048 -1.125,0.78548 -2.5,0.5 -1.375,-0.28548 -3.625,-0.75262 -5,-1.0381 -3.8723,-0.80399 -2.9692,-2.17051 2.25,-3.40462 6.7968,-1.60711 16.1353,-0.64706 21.9016,2.25161 2.6667,1.34048 7.0984,3.49544 9.8484,4.7888 2.75,1.29336 7.6511,3.83267 10.8912,5.64291 3.2402,1.81024 6.0886,3.09391 6.3299,2.85261 0.8466,-0.84658 -2.9675,-5.61226 -4.4917,-5.61226 -2.7792,0 -11.844,-7.71871 -10.5658,-8.99686 0.275,-0.275 1.0257,0.20218 1.6682,1.0604 1.5034,2.00808 4.6682,3.21661 4.6682,1.78263 0,-0.73972 0.4639,-0.70607 1.4406,0.1045 0.7923,0.65756 1.1999,1.95016 0.9057,2.87244 -0.4602,1.44269 -0.3794,1.46739 0.5784,0.17689 0.9683,-1.30454 1.3088,-1.23939 2.6133,0.5 0.825,1.1 2.0993,2.71418 2.8317,3.58706 0.7325,0.87288 1.6252,2.75629 1.9839,4.18537 0.3586,1.42907 2.7611,4.31489 5.3388,6.41294 2.5777,2.09805 6.2889,5.27498 8.2472,7.05985 1.9582,1.78487 3.8495,3.24737 4.2029,3.25 0.3533,0.003 2.3507,2.24487 4.4387,4.98276 2.0879,2.73788 3.9846,4.78958 4.2149,4.55933 0.2302,-0.23026 -0.9782,-2.86006 -2.6855,-5.84401 -2.7031,-4.72466 -8.1273,-10.30302 -17.1106,-17.5969 -1.375,-1.11642 -1.9696,-2.04483 -1.3214,-2.06313 0.6482,-0.0183 1.7732,0.52923 2.5,1.21673 0.7268,0.6875 4.0214,3.23778 7.3214,5.66728 6.6621,4.90472 22.1744,20.03938 24.9719,24.36393 0.9895,1.52966 2.0259,2.55441 2.3031,2.27722 0.2771,-0.2772 -0.7869,-2.20374 -2.3646,-4.28121 -10.0225,-13.19712 -24.5433,-26.84901 -38.1684,-35.88439 -6.2071,-4.11616 -11.7257,-7.21187 -12.2638,-6.87936 -0.538,0.33251 -0.9782,0.19952 -0.9782,-0.29552 0,-2.98234 -26.3942,-13.37309 -42.5,-16.73118 -17.2726,-3.60139 -26.0621,-4.41009 -43,-3.95633 -34.5368,0.92523 -57.6083,8.23847 -88.7152,28.12113 -8.1057,5.18093 -36.0786,32.33003 -34.0602,33.05706 0.8582,0.3091 0.5589,1.38321 -1,3.58925 -3.6358,5.14534 -4.4769,5.87312 -5.135,4.44319 -0.3141,-0.68259 -0.3192,-0.22635 -0.011,1.01386 0.3932,1.58393 0.031,2.45794 -1.2182,2.93717 -0.9778,0.37524 -2.7764,1.83553 -3.9969,3.24508 -2.1213,2.45 -11.94332,21.3152 -16.29682,31.30137 -3.0245,6.93781 -7.9574,24.92495 -9.6623,35.23245 -1.4947,9.03666 -1.9634,31.222 -0.8628,40.84006 1.3223,11.55578 5.8521,32.65887 8.5039,39.61745 3.9589,10.38842 8.4607,20.7862 10.4221,24.07149 1.1493,1.925 2.9244,5.10912 3.9448,7.07582 2.42712,4.67793 7.82232,11.1566 7.01542,8.42418 -0.5247,-1.77675 -0.442,-1.82247 0.741,-0.40962 3.331,3.97824 18.8316,15.89764 18.8316,14.48082 0,-1.80623 -10.8576,-13.44558 -14.9918,-16.0712 -6.2918,-3.99586 -10.3115,-7.50738 -12.61252,-11.01785 -2.4191,-3.69067 -7.5083,-15.7028 -6.9075,-16.30367 0.2508,-0.25072 0.8658,0.61905 1.3668,1.93283 0.501,1.31378 3.4386,5.65799 6.528,9.65379 3.08942,3.99581 5.63122,7.82081 5.64852,8.5 0.041,1.61868 4.9061,5.14635 5.7869,4.19627 0.3749,-0.40435 0.183,-0.9148 -0.4265,-1.13434 -0.6095,-0.21954 -1.9595,-1.09466 -3,-1.94473 -1.6383,-1.33843 -1.6593,-1.47259 -0.1568,-1.00105 3.2942,1.03383 -7.61562,-17.87087 -15.22442,-26.38125 -1.7211,-1.925 -3.9681,-5.10199 -4.9933,-7.05998 -2.1044,-4.01893 -5.3971,-15.89357 -4.6221,-16.66864 0.2791,-0.27906 0.7949,0.63816 1.1463,2.03826 0.3514,1.40011 1.2841,2.79323 2.0727,3.09584 1.9422,0.74528 3.4402,4.89979 2.0789,5.76537 -1.4164,0.90064 2.9263,9.07923 6.6995,12.617 l 2.8926,2.71215 -0.7014,-2.5 c -0.3859,-1.375 -1.7904,-7.675 -3.1212,-14 -1.3309,-6.325 -3.3568,-14.58509 -4.5021,-18.35576 -2.1757,-7.16316 -2.0785,-10.37774 0.1293,-4.27235 0.7004,1.9369 1.6417,3.29403 2.0918,3.01585 0.4501,-0.27817 0.8442,0.53328 0.8757,1.80324 0.1457,5.86013 1.0687,11.33914 1.9614,11.64235 0.5397,0.18334 0.9882,1.53334 0.9966,3 0.014,2.35349 2.9135,15.1903 4.66882,20.66667 0.561,1.75026 0.7422,1.6289 1.4513,-0.97187 0.5274,-1.93441 0.2961,-4.70323 -0.6626,-7.9315 -1.73322,-5.83619 -1.70712,-5.59663 -0.6095,-5.59663 1.1637,0 2.9971,10.29488 2.9463,16.54435 -0.029,3.61277 0.84,6.92866 3.0633,11.68395 1.7074,3.65177 3.5872,6.93803 4.1773,7.30279 0.5902,0.36475 1.5449,1.85698 2.1216,3.31605 0.9616,2.43315 1.1083,2.49133 1.7717,0.70248 0.9403,-2.53575 -3.1113,-14.20459 -5.5817,-16.07578 -1.8758,-1.42081 -0.7715,-2.07623 1.1938,-0.70853 1.7298,1.20375 5.5085,10.13153 7.3388,17.33898 1.2546,4.94016 3.0783,8.57367 6.847,13.64175 6.0149,8.08894 8.2585,10.26576 8.2585,8.01277 0,-1.58768 -4.6949,-6.75881 -6.1363,-6.75881 -0.475,0 -0.8637,-0.45 -0.8637,-1 0,-1.70455 1.3717,-1.11104 4.75,2.05531 1.8634,1.74642 3.25,4.03915 3.25,5.37364 0,1.48262 2.4064,4.92668 6.6288,9.48724 3.6458,3.93781 6.8295,6.95888 7.0749,6.71349 0.2454,-0.24539 -0.6688,-2.17496 -2.0315,-4.28792 -2.5847,-4.0077 -4.2459,-8.34176 -3.1973,-8.34176 1.4463,0 3.1864,2.57919 2.7824,4.12407 -0.2767,1.05821 0.3175,1.92356 1.6003,2.33072 1.1689,0.37101 1.8195,1.22318 1.5232,1.99525 -0.2844,0.74121 -0.036,1.64473 0.5511,2.00783 0.5875,0.36309 1.0681,1.47851 1.0681,2.4787 0,1.0002 0.675,2.37874 1.5,3.06343 0.9459,0.78502 1.5,0.85205 1.5,0.18146 0,-0.58488 -0.3956,-1.30797 -0.8792,-1.60686 -1.1128,-0.68773 -2.1687,-4.5746 -1.2427,-4.5746 1.1105,0 4.2901,5.91896 3.6959,6.8803 -0.2978,0.48191 0.8012,1.14473 2.4423,1.47295 1.641,0.32821 2.9979,1.1705 3.0152,1.87175 0.041,1.64864 3.7191,4.27148 7.1919,5.12803 2.1784,0.53729 2.6072,0.36908 2.143,-0.84066 -0.3192,-0.83181 -0.1347,-1.51237 0.41,-1.51237 0.5447,0 1.217,0.86665 1.494,1.92589 0.6696,2.5606 10.7105,7.72319 11.7499,6.04133 0.5685,-0.91987 1.9801,-0.79568 5.9523,0.52367 3.7279,1.2382 4.9003,2.03624 4.1273,2.80929 -0.7731,0.77306 -2.0866,0.59972 -4.6238,-0.61019 -4.334,-2.06677 -6.6799,-2.15874 -4.0349,-0.15819 1.6005,1.2106 1.659,1.4682 0.3333,1.4682 -0.8843,0 -1.7578,-0.4274 -1.9411,-0.94978 -0.1834,-0.52238 -2.2747,-1.06206 -4.6475,-1.19929 -2.3728,-0.13723 -4.5368,-0.60983 -4.809,-1.05022 -0.2722,-0.44039 -1.7634,-0.80071 -3.3137,-0.80071 -3.423,0 -10.0632,-2.64827 -10.0632,-4.01342 0,-1.47373 1.2134,-1.16632 4,1.01342 1.375,1.07554 3.4,1.94389 4.5,1.92966 1.2506,-0.0162 -0.061,-1.15079 -3.5,-3.02789 -10.7818,-5.885 -13.4339,-7.83685 -23.7956,-17.51275 -6.3109,-5.89326 -12.5259,-10.73662 -15.5977,-12.15545 -2.8087,-1.29726 -6.0067,-3.41034 -7.1067,-4.69575 -1.1,-1.28541 -3.35,-3.11726 -5,-4.07078 -2.8633,-1.65468 -2.8366,-1.57953 0.5859,1.64965 4.6796,4.41538 7.5663,8.445 3.4982,4.88331 l -2.8555,-2.5 1.2881,2.5 c 1.8154,3.52333 18.2691,19.41648 27.0842,26.16154 23.1162,17.68768 50.2481,29.39453 79.5161,34.3096 10.9148,1.83294 26.8326,1.81948 40.4232,-0.0342 z m -23.2785,-1.14421 c 1.2439,-0.23919 3.0439,-0.23011 4,0.0202 0.9561,0.25029 -0.062,0.446 -2.2617,0.4349 -2.2,-0.0111 -2.9822,-0.21589 -1.7383,-0.45508 z m 8.5074,0.0143 c 0.9729,-0.25354 2.3229,-0.23687 3,0.0371 0.677,0.27393 -0.1191,0.48137 -1.7691,0.46099 -1.65,-0.0204 -2.2039,-0.2445 -1.2309,-0.49804 z m -29.2691,-1.58301 c -5.7142,-0.89767 -6.1566,-1.1165 -3.66,-1.81015 1.562,-0.43396 3.812,-0.40855 5,0.0565 1.188,0.46503 3.735,1.291 5.66,1.83549 4.4696,1.26423 1.3351,1.2276 -7,-0.0818 z m -12,-2.72403 c -1.3333,-0.86167 -1.3333,-0.96327 0,-0.9144 0.825,0.0302 2.4,0.44171 3.5,0.9144 l 2,0.85943 -2,0.055 c -1.1,0.0302 -2.675,-0.38124 -3.5,-0.9144 z m 24,0 c -0.9012,-0.58246 -1.0246,-0.97549 -0.309,-0.98469 0.6551,-0.008 1.4691,0.43469 1.809,0.98469 0.7673,1.24153 0.4212,1.24153 -1.5,0 z m 3.75,0.33772 c 0.6875,-0.27741 1.8125,-0.27741 2.5,0 0.6875,0.27741 0.125,0.50439 -1.25,0.50439 -1.375,0 -1.9375,-0.22698 -1.25,-0.50439 z m 15.5191,-0.0307 c 0.9729,-0.25354 2.3229,-0.23687 3,0.0371 0.677,0.27393 -0.1191,0.48137 -1.7691,0.46099 -1.65,-0.0204 -2.2039,-0.2445 -1.2309,-0.49804 z m -29.4669,-2.68864 c -8.3425,-2.29577 -11.5554,-3.96772 -4.59,-2.38862 7.4532,1.6897 11.8713,3.09629 12.397,3.94685 0.2799,0.45287 0.3698,0.76417 0.1999,0.69177 -0.17,-0.0724 -3.7731,-1.08489 -8.0069,-2.25 z m -20.8022,0.38162 c -1.8279,-1.18132 -0.249,-1.18132 2.5,0 1.3188,0.56668 1.4891,0.87815 0.5,0.9144 -0.825,0.0302 -2.175,-0.38124 -3,-0.9144 z m 89,-1.38337 c 0,-0.21085 0.9007,-0.61888 2.0014,-0.90674 1.1008,-0.28785 1.7492,-0.11534 1.441,0.38337 -0.5382,0.87091 -3.4424,1.31244 -3.4424,0.52337 z m -94.1875,-1.29974 c 0.7219,-0.28887 1.5844,-0.25335 1.9167,0.0789 0.3323,0.33229 -0.2583,0.56864 -1.3125,0.52522 -1.1649,-0.048 -1.4019,-0.28494 -0.6042,-0.60416 z m 10.1875,-1.89748 -3.5,-1.42843 4,0.58233 c 2.2,0.32028 4.4275,0.9973 4.95,1.50451 1.3914,1.35061 -1.3342,1.02134 -5.45,-0.65841 z m -25.5602,-2.322 c 0.3068,-0.49642 -0.7916,-1.37301 -2.4409,-1.94798 -1.6494,-0.57496 -2.9989,-1.26239 -2.9989,-1.5276 0,-0.26522 1.4625,0.0134 3.25,0.61924 4.0039,1.35695 10.3779,1.31268 12.0605,-0.0838 1.6489,-1.36846 9.4923,-0.77521 11.0038,0.83229 0.9433,1.00316 0.5722,1.15174 -1.8143,0.72651 -1.65,-0.294 -6.6,0.099 -11,0.87331 -9.4887,1.66983 -8.7494,1.62324 -8.0602,0.50799 z m 34.0602,-3.09741 c -1.3187,-0.56668 -1.489,-0.87815 -0.5,-0.9144 0.825,-0.0302 2.175,0.38124 3,0.9144 1.828,1.18132 0.2491,1.18132 -2.5,0 z m -7.0588,-1.55178 c -1.8655,-1.49132 -1.8438,-1.5259 0.5588,-0.8876 3.0854,0.81968 5.005,2.43938 2.8912,2.43938 -0.8299,0 -2.3824,-0.6983 -3.45,-1.55178 z m -36.9412,-0.44822 c -0.3399,-0.55 -0.168,-1 0.382,-1 0.55,0 1.2781,0.45 1.618,1 0.34,0.55 0.1681,1 -0.3819,1 -0.55,0 -1.2781,-0.45 -1.6181,-1 z m 51,-3.12766 c -19.518,-3.47229 -32.6794,-8.29584 -50.1359,-18.3745 -12.0206,-6.94017 -19.7164,-13.00434 -29.5028,-23.24761 -15.9804,-16.72651 -26.4006,-33.64063 -33.3935,-54.20439 -3.8993,-11.46658 -6.2955,-23.52028 -7.06602,-35.54584 -0.282,-4.4 -0.672,-8.79293 -0.8667,-9.76206 -0.1948,-0.96913 0.05,-6.59413 0.5431,-12.5 2.62002,-31.35553 10.40162,-54.37591 26.27782,-77.73794 7.4683,-10.98968 25.5372,-29.27364 35.394,-35.81526 24.1829,-16.04939 58.3678,-25.6882 86.3933,-24.35961 24.9653,1.18352 42.0459,5.245 60.1367,14.29957 20.0896,10.05497 34.2667,21.528 48.5609,39.29871 17.3048,21.51344 27.7542,48.66686 31.16,80.97071 1.5716,14.90692 0.1473,30.10187 -4.6832,49.96236 -5.5634,22.87387 -17.1945,44.2498 -34.9554,64.24232 -14.7292,16.57986 -35.2263,29.65526 -59.8623,38.18713 -19.6789,6.81515 -45.6323,8.56564 -68,4.58641 z m 45.5,-3.29432 c 1.375,-0.31369 4.075,-0.8341 6,-1.15647 1.925,-0.32237 7.775,-1.96544 13,-3.65126 28.8228,-9.29955 51.6703,-25.6583 69.8901,-50.04107 15.99,-21.39863 25.3358,-45.54535 28.2528,-72.99681 1.0686,-10.0557 1.0159,-13.91077 -0.3624,-26.5 -1.836,-16.77058 -1.8161,-16.66144 -5.183,-28.54205 -4.0075,-14.14139 -13.6826,-32.92651 -25.5925,-49.69036 -5.305,-7.46699 -17.6161,-18.90923 -28.505,-26.49323 -31.8733,-22.1994 -65.983,-29.91266 -104,-23.51758 -18.2133,3.0638 -32.7409,8.56083 -46.7688,17.69659 -44.1699,28.76614 -70.7923,78.42112 -69.0635,128.81422 0.6194,18.05511 5.7266,40.00461 12.8406,55.18649 9.4624,20.19325 30.1767,45.24215 46.9208,56.73916 18.8515,12.94402 40.2687,21.51402 61.5709,24.63733 5.8079,0.85155 36.7458,0.4856 41,-0.48496 z m -71.5,-18.57802 c -0.3399,-0.55 -0.168,-1 0.382,-1 0.55,0 1.2781,0.45 1.618,1 0.34,0.55 0.1681,1 -0.3819,1 -0.55,0 -1.2781,-0.45 -1.6181,-1 z m -23.6875,-12.68311 c 0.7219,-0.28887 1.5844,-0.25335 1.9167,0.0789 0.3323,0.33229 -0.2583,0.56864 -1.3125,0.52522 -1.1649,-0.048 -1.4019,-0.28494 -0.6042,-0.60416 z m 4.1875,-4.31689 c 0,-0.55 0.4766,-1 1.0591,-1 0.5824,0 0.7809,0.45 0.4409,1 -0.3399,0.55 -0.8164,1 -1.059,1 -0.2425,0 -0.441,-0.45 -0.441,-1 z m 14,0 c 0,-0.55 0.4766,-1 1.0591,-1 0.5824,0 0.7809,0.45 0.4409,1 -0.3399,0.55 -0.8164,1 -1.059,1 -0.2425,0 -0.441,-0.45 -0.441,-1 z m 165,-121.5 c 0,-0.825 0.45,-1.5 1,-1.5 0.55,0 1,0.675 1,1.5 0,0.825 -0.45,1.5 -1,1.5 -0.55,0 -1,-0.675 -1,-1.5 z m -30.4411,159.0318 c 1.0676,-0.8075 2.6161,-1.46656 3.4411,-1.46456 0.87,0.002 0.4499,0.60392 -1,1.43276 -3.2865,1.87878 -4.911,1.89995 -2.4411,0.0318 z m -12.5589,-2.45199 c 0,-0.57536 2.1375,-2.12958 4.75,-3.45382 5.0479,-2.55866 18.4126,-10.62582 24.8454,-14.99696 2.1279,-1.44597 4.4395,-2.62903 5.1368,-2.62903 0.6973,0 1.2678,-0.35782 1.2678,-0.79516 0,-0.43733 3.1485,-4.32097 6.9966,-8.63031 4.6971,-5.26006 7.3585,-9.18913 8.0979,-11.95484 0.6057,-2.26583 2.8821,-7.71969 5.0587,-12.11969 3.0089,-6.08258 3.8188,-7.16395 3.3795,-4.51176 -0.3179,1.91853 -1.9444,6.11372 -3.6144,9.32264 -3.6764,7.06385 -3.3848,9.86723 0.3614,3.47485 1.467,-2.50328 3.3828,-4.82595 4.2572,-5.16151 0.8745,-0.33555 1.3414,-1.01211 1.0378,-1.50347 -0.3037,-0.49135 0.2788,-1.11066 1.2943,-1.37624 2.8221,-0.73799 9.8804,-14.42224 11.5618,-22.41541 0.8099,-3.85025 1.2775,-9.08214 1.039,-11.62643 -0.2385,-2.54429 -0.02,-5.65574 0.4849,-6.91433 0.7505,-1.86966 0.953,-1.32779 1.107,2.96166 0.2218,6.18296 0.2568,6.41702 1.1747,7.85763 0.3881,0.60919 0.3001,2.52169 -0.1955,4.25 -1.18,4.11444 -0.087,3.96546 4.4581,-0.60763 2.0498,-2.0625 3.2631,-2.85 2.6961,-1.75 -0.567,1.1 -2.6836,3.575 -4.7035,5.5 -2.0199,1.925 -5.0435,6.2 -6.7189,9.5 -6.6053,13.00953 -17.1098,26.68715 -31.9919,41.65545 -8.1725,8.21974 -11.9278,11.1879 -18.2829,14.45036 -4.3988,2.2582 -11.4854,5.99903 -15.7479,8.31297 -4.2625,2.31393 -7.75,3.7364 -7.75,3.16103 z m -156.25,-4.81269 c -2.0625,-0.84618 -3.75,-1.9178 -3.75,-2.38138 0,-1.01719 4.9155,0.95823 6.9643,2.79881 1.7539,1.57555 1.5923,1.55458 -3.2143,-0.41743 z m -6.75,-3.26712 c -0.7931,-0.49019 -1.217,-1.11625 -0.942,-1.39125 0.275,-0.275 1.1489,-0.0989 1.942,0.39125 0.7932,0.49019 1.2171,1.11625 0.9421,1.39125 -0.275,0.275 -1.1489,0.0989 -1.9421,-0.39125 z m 17.5,-1 c -0.9954,-1.1 -1.4856,-2 -1.0892,-2 1.4274,0 4.5892,2.09113 4.5892,3.03518 0,1.5692 -1.5608,1.10755 -3.5,-1.03518 z m -24.2679,-5 c -0.6869,-1.1 -1.9202,-2 -2.7405,-2 -0.8204,0 -1.4916,-0.45 -1.4916,-1 0,-1.84103 2.4692,-0.99528 5.8856,2.01597 2.728,2.40451 3.0174,2.98403 1.4905,2.98403 -1.0422,0 -2.457,-0.9 -3.144,-2 z m 19.5197,0.15857 c -1.5115,-0.91221 -2.749,-1.98089 -2.75,-2.37484 -0.001,-0.39396 1.5732,0.21299 3.4982,1.34877 3.3632,1.98428 4.3394,2.96982 2.75,2.77607 -0.4125,-0.0503 -1.9867,-0.83778 -3.4982,-1.75 z m -26.8794,-3.40857 c -0.07,-0.1375 -0.2339,-1.26678 -0.3639,-2.50951 -0.1888,-1.80561 0.038,-2.03212 1.1276,-1.12755 1.5851,1.31549 1.8259,3.88706 0.3639,3.88706 -0.55,0 -1.0574,-0.1125 -1.1276,-0.25 z m -7.948,-7.40631 -2.4244,-2.65631 3.25,1.87192 c 1.7875,1.02955 3.25,2.22489 3.25,2.65631 0,1.52429 -1.6805,0.75243 -4.0756,-1.87192 z m 248.6719,-37.09369 c 0.7768,-2.6125 2.1552,-7.45 3.0631,-10.75 0.9078,-3.3 1.851,-5.41463 2.0959,-4.69918 0.2449,0.71544 -0.012,2.51544 -0.5702,4 -0.5585,1.48455 -1.7954,5.73668 -2.7487,9.44918 -0.9533,3.7125 -2.075,6.75 -2.4928,6.75 -0.4178,0 -0.1241,-2.1375 0.6527,-4.75 z m 16.4037,-18.50571 c 0,-0.32398 2.4762,-5.68648 5.5026,-11.91667 3.0264,-6.23019 5.9581,-13.78681 6.5149,-16.79248 1.4291,-7.71511 3.0106,-8.71318 2.262,-1.42759 -0.3329,3.24085 -1.5975,7.69245 -2.8101,9.89245 -1.2126,2.2 -4.1218,7.6 -6.465,12 -4.3859,8.23572 -5.0044,9.25463 -5.0044,8.24429 z m -1,-4.60898 c 0,-2.35433 2.4092,-11.13531 3.0552,-11.13531 0.3914,0 1.0368,-1.0125 1.4342,-2.25 0.5881,-1.83125 0.8072,-1.9368 1.177,-0.56713 0.25,0.92557 -0.1935,2.95057 -0.9855,4.5 -0.792,1.54942 -1.7538,4.27447 -2.1374,6.05566 -0.6535,3.03501 -2.5435,5.55899 -2.5435,3.39678 z m 8,-1.07629 c 0,-0.51754 0.4449,-1.21592 0.9886,-1.55194 0.5669,-0.35034 0.7345,0.0511 0.393,0.94098 -0.6648,1.73242 -1.3816,2.04939 -1.3816,0.61096 z m 2.0307,-3.55902 c 0,-0.55 0.4362,-1.675 0.9693,-2.5 0.5332,-0.825 0.9694,-1.05 0.9694,-0.5 0,0.55 -0.4362,1.675 -0.9694,2.5 -0.5331,0.825 -0.9693,1.05 -0.9693,0.5 z m -308.81852,-2.53191 c -1.7909,-2.8677 -1.4731,-3.78563 0.3898,-1.12593 0.8811,1.25795 1.4266,2.46261 1.2122,2.67703 -0.2144,0.21442 -0.9353,-0.48358 -1.602,-1.5511 z m 303.46392,-15.82076 c -0.7239,-6.89624 0.01,-13.83455 1.5624,-14.79472 0.5808,-0.35892 0.73,0.25734 0.3687,1.52216 -0.3339,1.16888 -0.8505,2.98736 -1.1478,4.04107 -0.7741,2.74274 1.2258,3.54104 2.5715,1.02652 1.6115,-3.0111 2.2487,-1.77378 0.8595,1.66895 -0.6411,1.58878 -1.7016,5.13869 -2.3566,7.88869 l -1.1909,5 z m -5.9617,1.83709 c 0.5631,-2.15355 2.2856,-3.75514 2.2856,-2.12522 0,1.7055 -1.1841,4.1408 -2.0133,4.1408 -0.4397,0 -0.5622,-0.90701 -0.2723,-2.01558 z m -291.63542,-4.56775 c 0.048,-1.16495 0.2849,-1.4019 0.6042,-0.60417 0.2888,0.72187 0.2533,1.58438 -0.079,1.91667 -0.3323,0.33229 -0.5687,-0.25834 -0.5253,-1.3125 z m -1.8463,-6.41579 c -0.6554,-1.04949 -0.8021,-2.14896 -0.3259,-2.44327 0.4762,-0.29431 1.1242,0.45267 1.4399,1.65997 0.751,2.8719 0.3614,3.14584 -1.114,0.7833 z m -11.0377,-4.50088 c 0.02,-1.65 0.2445,-2.20394 0.498,-1.23097 0.2536,0.97297 0.2369,2.32297 -0.037,3 -0.2739,0.67703 -0.4813,-0.11903 -0.4609,-1.76903 z m 312.80502,-3.88922 c 0,-1.4601 3.9092,-6.69418 3.9668,-5.31112 0.044,1.0688 -2.8909,6.70034 -3.4924,6.70034 -0.2609,0 -0.4744,-0.62515 -0.4744,-1.38922 z m -307.00002,-3.61078 c 0,-0.55 0.45,-1 1,-1 0.55,0 1,0.45 1,1 0,0.55 -0.45,1 -1,1 -0.55,0 -1,-0.45 -1,-1 z m -1.6901,-2.4358 c 1.1437,-0.86718 1.4198,-1.61327 0.75,-2.02722 -1.3087,-0.80882 -1.3954,-2.53698 -0.1272,-2.53698 1.6357,0 2.3919,4.17965 0.9244,5.10953 -2.2139,1.40275 -3.5128,0.94493 -1.5472,-0.54533 z m 319.76912,-10.14753 c 0.048,-1.16495 0.2849,-1.4019 0.6042,-0.60417 0.2888,0.72187 0.2533,1.58438 -0.079,1.91667 -0.3323,0.33229 -0.5687,-0.25834 -0.5253,-1.3125 z m 0.116,-6.91667 c 0.02,-1.65 0.2445,-2.20394 0.498,-1.23097 0.2536,0.97297 0.2369,2.32297 -0.037,3 -0.2739,0.67703 -0.4813,-0.11903 -0.461,-1.76903 z m -1.5586,-12.13636 c -0.3536,-2.57974 -0.4502,-4.88315 -0.2146,-5.11869 0.2355,-0.23554 0.7412,1.65878 1.1237,4.2096 0.3825,2.55081 0.4791,4.85422 0.2146,5.11868 -0.2644,0.26447 -0.7701,-1.62985 -1.1237,-4.20959 z m -1.5211,-8.61364 c -0.8995,-2.42273 -2.3553,-10.90935 -1.5869,-9.25 0.2548,0.55 1.0741,3.3625 1.8209,6.25 1.39,5.37464 1.2611,7.02734 -0.234,3 z m -323.60972,-5.75 c 1.0963,-5.19151 4.5803,-16.24746 4.9906,-15.83715 0.5317,0.5317 -4.0471,17.72675 -4.9506,18.59146 -0.4285,0.41013 -0.4466,-0.82931 -0.04,-2.75431 z m 320.48082,-6.75 c -0.01,-0.9625 -0.3034,-2.83287 -0.6575,-4.15637 -0.4171,-1.55884 -0.2751,-2.17846 0.4031,-1.75927 1.253,0.77439 2.2124,7.66564 1.0672,7.66564 -0.4395,0 -0.8053,-0.7875 -0.8128,-1.75 z m -12.0221,-4.41435 c -1.1452,-2.23286 -1.1183,-2.25968 0.6094,-0.60946 0.994,0.94941 1.533,2.00045 1.1978,2.33565 -0.3352,0.3352 -1.1484,-0.44159 -1.8072,-1.72619 z m 10.7024,-4.50232 c -0.3667,-0.36666 -0.628,-1.82916 -0.5807,-3.25 0.084,-2.5366 0.1019,-2.52997 0.9669,0.3664 0.909,3.04353 0.7749,4.04472 -0.3862,2.8836 z m -290.235,-26.91712 c 0.4614,-1.83826 0.311,-2.37518 -0.5213,-1.8608 -0.7359,0.45479 -0.9826,0.20766 -0.6651,-0.66621 0.2776,-0.76406 0.9836,-1.28584 1.5688,-1.15951 1.3516,0.29175 2.5469,-3.33663 1.6026,-4.86459 -3.0304,-4.90324 1.5202,-17.42687 9.3333,-25.68653 2.1005,-2.22046 1.4147,-0.5503 -2.267,5.52135 -3.643,6.00775 -6.483,13.91079 -6.483,18.0406 0,3.76037 1.9386,1.67547 5.2314,-5.62636 1.6404,-3.63779 4.4204,-8.41416 6.1778,-10.61416 3.1265,-3.91413 5.3307,-7.42562 10.3574,-16.5 1.371,-2.475 3.1094,-5.21043 3.8631,-6.07874 0.7537,-0.86831 1.3703,-1.88715 1.3703,-2.2641 0,-1.02321 6.3446,-6.59957 7.5,-6.59188 0.55,0.004 -0.1609,1.00296 -1.5799,2.22068 -2.5782,2.21247 -7.4812,9.11137 -11.1679,15.71404 l -1.9543,3.5 2.9058,-2.75 c 4.7879,-4.53127 4.9004,-3.10569 0.1578,2 -8.1772,8.80324 -13.5027,16.69089 -19.2423,28.5 -5.6033,11.52859 -7.4771,14.30445 -6.1875,9.16621 z m 252.8183,-16.99216 c -4.2182,-4.5408 -5.1709,-6.42405 -3.25,-6.42405 0.55,0 1,0.38664 1,0.85921 0,0.47257 1.8383,2.94757 4.085,5.5 5.2841,6.00302 3.7323,6.05785 -1.835,0.0648 z m -227.25,-16.42405 c 3.9498,-3.3 7.6656,-6 8.2574,-6 0.5918,0 0.8885,0.16237 0.6593,0.36082 -0.2292,0.19844 -3.2859,2.89844 -6.7928,6 -3.5069,3.10155 -7.0352,5.63918 -7.8407,5.63918 -0.8055,0 1.7671,-2.7 5.7168,-6 z m -18.3913,-0.42268 c 0.3003,-0.78248 1.1796,-1.66583 1.954,-1.963 1.1606,-0.44536 1.1926,-0.19534 0.1822,1.42268 -1.4137,2.26359 -2.9462,2.65123 -2.1362,0.54032 z m 231.3913,-1.70863 -3.5,-1.91483 3.5,0.62351 c 3.6259,0.64593 7.9537,3.53536 4.9643,3.31439 -0.8053,-0.0595 -3.0393,-0.96991 -4.9643,-2.02307 z m -8.8508,-5.1078 c -2.318,-1.78151 -3.6992,-3.41088 -3.0693,-3.62083 0.6298,-0.20995 2.7745,1.24765 4.766,3.23911 4.4877,4.4877 3.8363,4.63425 -1.6967,0.38172 z m -199.0237,-3.60306 c 0.5883,-1.71097 11.5446,-10.54589 20.8745,-16.83282 4.675,-3.15022 11.2,-7.79969 14.5,-10.33215 7.2524,-5.56557 8.5093,-6.3524 8.4691,-5.30188 -0.017,0.44496 -2.042,2.32408 -4.5,4.17581 -2.458,1.85174 -4.4691,3.81934 -4.4691,4.37245 0,0.66325 0.4256,0.65626 1.25,-0.0205 1.7795,-1.46085 10.75,-6.14847 10.75,-5.61749 0,0.24355 -2.0937,1.77065 -4.6528,3.39355 -5.5013,3.48886 -4.1368,4.78801 2.6528,2.52579 2.475,-0.82463 3.4869,-1.32107 2.2487,-1.1032 -1.2785,0.22494 -1.9936,-0.021 -1.6548,-0.56916 0.3281,-0.53091 1.8609,-0.6876 3.4061,-0.3482 1.5806,0.34715 3.0958,0.15404 3.4639,-0.44145 0.3598,-0.5822 1.6401,-1.01993 2.8452,-0.97273 1.4524,0.0569 0.1684,1.03183 -3.8091,2.89216 -4.0699,1.90358 -8.4519,3.02039 -13.6222,3.47176 -4.6744,0.40807 -9.1219,1.46493 -11.5,2.73271 -4.9504,2.63914 -14.5521,8.97801 -14.1695,9.35449 0.6056,0.59591 12.3761,-2.83307 14.2643,-4.15547 2.2698,-1.58968 3.5274,-1.76632 3.5274,-0.49541 0,1.44005 -6.0274,3.84914 -13,5.19596 -4.7614,0.91973 -7.9374,2.31329 -11.8745,5.21028 -2.9559,2.17511 -5.2059,3.4646 -5,2.86553 z m -7.9149,-3.55697 c 0.7092,-0.76953 1.447,-1.24947 1.6396,-1.06653 0.5931,0.56346 -0.9102,2.46567 -1.9486,2.46567 -0.5392,0 -0.4002,-0.62961 0.309,-1.39914 z m 16.3537,-13.89399 c 0.3756,-0.98622 0.9347,-1.54122 1.2426,-1.23333 0.3079,0.30789 7e-4,1.11479 -0.6828,1.79313 -0.9876,0.98026 -1.1024,0.8654 -0.5598,-0.5598 z m 160.4357,0.29313 c 0,-0.55 0.4766,-1 1.0591,-1 0.5824,0 0.7809,0.45 0.4409,1 -0.3399,0.55 -0.8164,1 -1.059,1 -0.2425,0 -0.441,-0.45 -0.441,-1 z m 4.7617,-0.70726 c 1.2439,-0.23919 3.0439,-0.23011 4,0.0202 0.9561,0.25029 -0.062,0.446 -2.2617,0.4349 -2.2,-0.0111 -2.9822,-0.21589 -1.7383,-0.45508 z m -151.2617,-6.29274 c 0.34,-0.55 0.8165,-1 1.0591,-1 0.2425,0 0.4409,0.45 0.4409,1 0,0.55 -0.4765,1 -1.059,1 -0.5824,0 -0.7809,-0.45 -0.441,-1 z m 129.5,-2 c 0,-0.55 0.4766,-1 1.0591,-1 0.5824,0 0.7809,0.45 0.4409,1 -0.3399,0.55 -0.8164,1 -1.059,1 -0.2425,0 -0.441,-0.45 -0.441,-1 z m -122,-2.5 c 1.8638,-1.375 3.6387,-2.48382 3.9443,-2.46404 0.9293,0.0601 -5.375,4.95374 -6.3885,4.95907 -0.5194,0.003 0.5805,-1.12003 2.4442,-2.49503 z m 5.5,-3.5 c 0.34,-0.55 0.8165,-1 1.0591,-1 0.2425,0 0.4409,0.45 0.4409,1 0,0.55 -0.4765,1 -1.059,1 -0.5824,0 -0.7809,-0.45 -0.441,-1 z m 118.5,-1.3737 c -3.9203,-2.32375 -7.3027,-5.96154 -5.9867,-6.4388 0.474,-0.17188 1.6821,0.50312 2.6848,1.5 1.0027,0.99687 3.1246,2.8313 4.7152,4.0765 3.8091,2.98193 2.9978,3.47695 -1.4133,0.8623 z m -34,0.31468 c 0,-0.58246 0.4698,-0.76867 1.044,-0.4138 0.5742,0.35487 2.2387,-0.13759 3.6989,-1.09435 1.7131,-1.12249 2.7846,-1.35036 3.0206,-0.64237 0.2012,0.60345 1.1242,0.85502 2.0512,0.55903 1.4385,-0.45933 1.4656,-0.38122 0.1853,0.53335 -0.825,0.58933 -2.3438,0.80857 -3.3752,0.4872 -1.2222,-0.38083 -1.6369,-0.19876 -1.191,0.52283 0.4434,0.71735 -0.3927,1.10713 -2.3747,1.10713 -1.6825,0 -3.0591,-0.47656 -3.0591,-1.05902 z m 22.3524,0.0657 c -1.1812,-0.47659 -2.4859,-1.4137 -2.8992,-2.08246 -0.9799,-1.58549 4.0221,-0.40518 6.9379,1.63713 2.0019,1.40218 2.004,1.43703 0.082,1.37525 -1.0849,-0.0349 -2.939,-0.45332 -4.1202,-0.92992 z m -93.9769,-1.49045 c 1.0593,-0.80215 1.6222,-2.07987 1.2936,-2.93617 -0.3199,-0.83381 -0.2028,-1.75019 0.2603,-2.03639 0.4631,-0.2862 1.059,0.61532 1.3244,2.00338 0.3348,1.75157 -0.069,2.81889 -1.3199,3.48835 -2.692,1.44068 -3.7022,1.10415 -1.5584,-0.51917 z m -8.3755,0.0908 c 0,-0.21616 0.6984,-0.661 1.552,-0.98855 0.8899,-0.34149 1.2913,-0.17385 0.941,0.39301 -0.5873,0.95021 -2.493,1.40545 -2.493,0.59554 z m 69.75,-0.76927 c -1.5125,-0.55241 -2.75,-1.47199 -2.75,-2.0435 0,-0.71518 0.3897,-0.7173 1.25,-0.007 0.6875,0.56776 2.825,1.48228 4.75,2.03226 1.925,0.54997 2.6,1.00501 1.5,1.01119 -1.1,0.006 -3.2375,-0.44073 -4.75,-0.99314 z m 24.75,-0.83772 c -1.7722,-0.76156 -1.6868,-0.86743 0.75,-0.92971 1.5125,-0.0387 2.75,0.37971 2.75,0.92971 0,1.17371 -0.7686,1.17371 -3.5,0 z m -6.25,-0.77974 c -2.3435,-0.37431 -3.1859,-2.23173 -1,-2.20495 1.5069,0.0185 4.3845,1.73538 3.7211,2.22013 -0.2591,0.1893 -1.4836,0.18247 -2.7211,-0.0152 z m -19.25,-2.23979 c 0,-0.53926 1.65,-0.98047 3.6667,-0.98047 4.2556,0 3.8314,1.08792 -0.6265,1.60697 -1.6721,0.19468 -3.0402,-0.0872 -3.0402,-0.6265 z m -149.50002,237.01953 c -0.3399,-0.55 -1.068,-1 -1.618,-1 -0.55,0 -0.7219,0.45 -0.382,1 0.34,0.55 1.0681,1 1.6181,1 0.55002,0 0.72192,-0.45 0.3819,-1 z m 294.86992,-136.75 c -0.3562,-3.1625 -0.7943,-5.92167 -0.9736,-6.13148 -0.1792,-0.20982 0.1241,-1.22232 0.6741,-2.25 0.735,-1.37335 0.6594,-1.87258 -0.2852,-1.88383 -0.9703,-0.0116 -0.9919,-0.20175 -0.088,-0.7764 0.697,-0.44307 0.8594,-1.30767 0.3888,-2.06922 -0.5928,-0.95918 -1.0128,-0.68537 -1.5742,1.0264 l -0.7657,2.33453 -0.4577,-2.5 c -0.2517,-1.375 -0.8696,-2.9275 -1.373,-3.45 -1.2355,-1.2823 -1.1716,-4.82638 0.073,-4.05708 0.5777,0.35708 0.7277,-0.0688 0.3608,-1.02483 -0.5033,-1.31146 -0.7984,-1.37133 -1.4885,-0.30194 -0.7051,1.09248 -1.0537,1.06242 -1.9264,-0.16615 -0.8711,-1.22637 -0.971,-1.13516 -0.5475,0.5 0.2849,1.1 0.8035,3.35 1.1523,5 l 0.6343,3 -1.6813,-3 c -0.9247,-1.65 -1.7512,-5.02484 -1.8367,-7.49965 -0.1111,-3.21404 -0.5842,-4.52767 -1.6556,-4.59769 -3.0966,-0.20238 -3.4596,-0.45977 -2,-1.41797 0.9946,-0.65291 1.1438,-1.23739 0.4429,-1.73469 -0.5814,-0.4125 -4.2329,-5.025 -8.1144,-10.25 -6.2501,-8.41346 -14.2609,-17.2125 -13.2009,-14.5 1.6283,4.16694 8.4899,16.65176 10.7172,19.5 3.4095,4.36019 13.1552,19.63291 13.1552,20.61593 0,0.39962 0.6113,1.43702 1.3584,2.30533 0.7471,0.86831 2.8846,5.51461 4.75,10.32513 1.8654,4.81051 3.733,8.74801 4.1504,8.75 0.4173,0.002 0.4673,-2.58389 0.1111,-5.74639 z m -12.3699,-25.30902 c 0,-0.58246 0.45,-0.7809 1,-0.44098 0.55,0.33992 1,0.81648 1,1.05902 0,0.24254 -0.45,0.44098 -1,0.44098 -0.55,0 -1,-0.47656 -1,-1.05902 z m 10.3451,8.51589 c -0.3257,-0.84872 -0.8066,-1.32866 -1.0687,-1.06653 -0.2622,0.26213 -0.18,0.95654 0.1825,1.54313 0.9861,1.59546 1.5624,1.28551 0.8862,-0.4766 z m -8.3451,-15.45687 c -0.5887,-1.1 -1.2374,-2 -1.4415,-2 -0.2042,0 -0.1359,0.9 0.1518,2 0.2877,1.1 0.9364,2 1.4416,2 0.5074,0 0.4395,-0.89508 -0.1519,-2 z m -272.5,-11 c 0.34,-0.55 0.1415,-1 -0.4409,-1 -0.5825,0 -1.0591,0.45 -1.0591,1 0,0.55 0.1985,1 0.441,1 0.2426,0 0.7191,-0.45 1.059,-1 z m 2,-3 c 0.34,-0.55 0.1415,-1 -0.4409,-1 -0.5825,0 -1.0591,0.45 -1.0591,1 0,0.55 0.1985,1 0.441,1 0.2426,0 0.7191,-0.45 1.059,-1 z m 194.5,268.15884 c 1.925,-1.04765 4.625,-2.2013 6,-2.56367 1.8093,-0.4768 1.533,-0.13254 -1,1.24599 -1.925,1.04765 -4.625,2.2013 -6,2.56367 -1.8092,0.4768 -1.5329,0.13254 1,-1.24599 z m 18.0834,-8.53166 c 1.029,-0.92077 6.9166,-3.62641 6.9166,-3.17854 0,0.57598 -5.5438,3.55136 -6.617,3.55136 -0.3939,0 -0.5288,-0.16777 -0.2996,-0.37282 z m -243.12922,-81.71287 c -0.6139,-1.1471 -0.9278,-2.274 -0.6976,-2.50422 0.2302,-0.23022 0.932,0.70832 1.5596,2.08564 1.378,3.02454 0.7071,3.35038 -0.862,0.41858 z m -7.8381,-21.08256 c -0.064,-0.91752 -0.375,-2.49252 -0.6916,-3.5 -0.5454,-1.73622 -0.5158,-1.73885 0.5673,-0.0504 0.6286,0.97978 0.9397,2.55478 0.6915,3.5 -0.4065,1.54825 -0.4627,1.55325 -0.5672,0.0504 z m 68.38392,-197.83179 c 0.34,-0.55 1.0681,-1 1.6181,-1 0.55,0 0.7219,0.45 0.3819,1 -0.3399,0.55 -1.068,1 -1.618,1 -0.55,0 -0.7219,-0.45 -0.382,-1 z m 246.5,316 c 0,-0.55 -0.1984,-1 -0.4409,-1 -0.2426,0 -0.7191,0.45 -1.0591,1 -0.3399,0.55 -0.1414,1 0.441,1 0.5825,0 1.059,-0.45 1.059,-1 z m -26.3895,-19.62047 c 4.3566,-2.93514 15.6182,-12.55399 19.1769,-16.37953 4.9007,-5.26818 9.2126,-12.8905 9.2126,-16.2853 0,-4.48909 -1.0379,-5.3058 -3.1894,-2.50975 -0.9714,1.26228 -1.7761,1.78765 -1.7883,1.16749 -0.012,-0.62015 0.6527,-1.68775 1.4777,-2.37244 1.843,-1.5295 1.9437,-3 0.2055,-3 -0.712,0 -3.0427,2.3625 -5.1794,5.25 -2.1367,2.8875 -6.1667,7.67593 -8.9555,10.64095 -2.7888,2.96502 -4.4385,5.03299 -3.666,4.59549 1.6087,-0.91113 1.0631,0.20165 -2.4582,5.01356 -1.2075,1.65 -2.7468,4.0668 -3.4206,5.37068 -1.3376,2.588 -0.3325,2.37672 3.2242,-0.67777 2.9111,-2.49998 1.9591,0.24646 -1,2.88507 -7.8157,6.96928 -16.4608,8.03318 -10.0793,1.24041 3.4704,-3.69412 1.6763,-3.49758 -2.5707,0.28161 -2.1342,1.89913 -3.7047,3.59027 -3.4901,3.75808 5.5445,4.33566 7.361,4.48409 12.5006,1.02145 z m 21.3895,-31.37953 c 0,-0.55 0.4766,-1 1.0591,-1 0.5824,0 0.7809,0.45 0.4409,1 -0.3399,0.55 -0.8164,1 -1.059,1 -0.2425,0 -0.441,-0.45 -0.441,-1 z m -24.1931,25.47354 c -0.3079,-0.30789 -0.867,0.24711 -1.2426,1.23333 -0.5426,1.4252 -0.4278,1.54006 0.5598,0.5598 0.6835,-0.67834 0.9907,-1.48524 0.6828,-1.79313 z m 5.1894,-7.9696 c 1.2897,-1.37283 2.1229,-2.71813 1.8515,-2.98957 -0.2715,-0.27143 -1.7824,0.8518 -3.3577,2.49606 -1.5754,1.64426 -2.4085,2.98957 -1.8515,2.98957 0.5571,0 2.068,-1.12323 3.3577,-2.49606 z"
       id="path1" />
  </g>
</svg>
