<?xml version="1.0" encoding="UTF-8" standalone="no"?>
<!-- Created with Inkscape (http://www.inkscape.org/) -->

<svg
   version="1.1"
   id="svg1"
   width="1407.9998"
   height="604.91925"
   viewBox="0 0 1407.9998 604.91925"
   sodipodi:docname="Gemini_Generated_Image_jk1sfnjk1sfnjk1s.png"
   xmlns:inkscape="http://www.inkscape.org/namespaces/inkscape"
   xmlns:sodipodi="http://sodipodi.sourceforge.net/DTD/sodipodi-0.dtd"
   xmlns="http://www.w3.org/2000/svg"
   xmlns:svg="http://www.w3.org/2000/svg">
  <defs
     id="defs1" />
  <sodipodi:namedview
     id="namedview1"
     pagecolor="#ffffff"
     bordercolor="#000000"
     borderopacity="0.25"
     inkscape:showpageshadow="2"
     inkscape:pageopacity="0.0"
     inkscape:pagecheckerboard="0"
     inkscape:deskcolor="#d1d1d1">
    <inkscape:page
       x="0"
       y="0"
       width="1407.9998"
       height="604.91925"
       id="page2"
       margin="0"
       bleed="0" />
  </sodipodi:namedview>
  <g
     inkscape:groupmode="layer"
     inkscape:label="Image"
     id="g1"
     transform="translate(1595.0036,122.21886)">
    <path
       style="fill:#000000"
       d="m -1171.6985,481.29443 c -4.571,-1.98787 -11.6849,-8.85114 -16.2315,-15.65977 l -3.9142,-5.86165 -1.8298,3.6803 c -1.0063,2.02416 -3.559,5.0592 -5.6726,6.74453 -3.4615,2.76018 -4.553,3.06894 -11,3.11165 -4.9112,0.0325 -8.2273,0.61576 -10.5675,1.8586 -4.9417,2.62446 -13.6107,1.83847 -18.9906,-1.72182 -5.6255,-3.72278 -9.2864,-9.57947 -9.8856,-15.81485 -0.425,-4.42384 -1.0457,-5.59536 -4.7957,-9.05196 -4.9986,-4.60753 -9.4308,-11.31985 -11.93,-18.06738 l -1.7594,-4.75 h -163.3641 -163.3642 v -2.5 -2.5 h 76.3907 76.3907 l 0.032,-14.75 c 0.02,-9.12956 0.5845,-17.20853 1.4815,-21.20205 l 1.4492,-6.45206 -2.3362,2.71602 c -1.2849,1.49381 -4.1191,5.76883 -6.2983,9.50004 -4.7087,8.06245 -7.7015,11.92313 -8.5715,11.05698 -0.3486,-0.34709 -1.1202,-3.72209 -1.7147,-7.5 -2.2979,-14.60283 0.8787,-43.32289 6.6773,-60.37161 1.3697,-4.02705 2.1548,-6.98933 1.7447,-6.58285 -0.4101,0.40649 -4.1206,5.7395 -8.2456,11.85115 -4.125,6.11165 -8.0373,11.28121 -8.694,11.48792 -2.2121,0.69625 -3.549,-7.64771 -2.8418,-17.73702 1.157,-16.50614 7.1671,-38.41915 14.547,-53.03866 1.7158,-3.39913 2.9262,-6.37377 2.6897,-6.61031 -0.2366,-0.23654 -4.9842,4.3398 -10.5502,10.16964 -6.108,6.39741 -10.5748,10.31872 -11.267,9.89097 -1.5482,-0.95685 -0.5683,-10.88626 2.1294,-21.57729 2.7536,-10.91275 11.1007,-28.22411 19.9332,-41.34023 l 7.067,-10.49433 -5.7566,3.64851 c -3.1662,2.00668 -8.2909,5.55865 -11.3882,7.89326 -6.8043,5.12865 -9.8272,6.81652 -10.6804,5.96333 -1.2952,-1.29515 3.7487,-17.32077 8.662,-27.52141 5.8025,-12.04685 9.6526,-18.42678 16.4722,-27.29611 1.6053,-2.08787 2.7424,-3.97254 2.5267,-4.18817 -0.2156,-0.21563 -4.5947,2.98024 -9.7314,7.10193 -5.1366,4.12168 -9.5561,7.27723 -9.821,7.01231 -0.83,-0.83007 2.739,-11.75548 5.9056,-18.07768 4.4604,-8.90541 10.8547,-18.22112 18.8884,-27.51793 8.385,-9.70335 7.8219,-9.72838 -9.3904,-0.41743 -10.8788,5.88483 -14.7002,7.38026 -14.7002,5.75261 0,-2.43509 11.8081,-21.2024 17.7827,-28.26301 9.0042,-10.64098 24.5285,-24.786822 31.7173,-28.901082 1.1,-0.62954 1.5318,-1.15831 0.9595,-1.17503 -1.6257,-0.0475 -18.7551,5.64777 -25.4061,8.447142 -3.2962,1.38735 -6.4567,2.52245 -7.0233,2.52245 -2.1431,0 -0.8602,-2.76463 4.2199,-9.093422 6.069,-7.56079 13.9171,-14.83983 22.6082,-20.96897 3.3585,-2.3685 5.9752,-4.43759 5.8148,-4.59799 -0.1604,-0.1604 -5.3466,0.65344 -11.5248,1.80853 -6.1783,1.15509 -11.5148,1.81854 -11.859,1.47434 -0.697,-0.69697 3.9921,-7.59025 10.1644,-14.94231 6.5416,-7.79195 18.4761,-16.95955 38.5464,-29.60993 l 3.5,-2.20606 -6,0.61794 c -9.8034,1.00965 -24.5243,3.61518 -28.6507,5.07104 -4.466,1.57572 -4.8708,0.69019 -1.7122,-3.74572 4.5934,-6.45086 20.7433,-17.77298 34.3629,-24.0906403 l 6,-2.7832 -8.5,0.2832 c -5.0553,0.16842 -8.6182,-0.12207 -8.7917,-0.71681 -0.5043,-1.72854001 11.9736,-10.36465 19.5511,-13.5316657 3.9927,-1.66873 11.5918,-4.25173 16.8868,-5.74001 l 9.6273,-2.70595 -4.3867,-1.28232 c -2.4127,-0.70528 -9.3368,-2.17856 -15.3868,-3.27396 -17.7268,-3.20956 -17.8,-3.32918 -5.9206,-9.67122 12.4711,-6.65787 27.3386,-11.09452 49.9206,-14.8969 l 4,-0.67352 -4.5,-1.26541 c -25.9246,-7.29008 -28.1703,-8.75504 -18.7966,-12.26217 11.4502,-4.28408 28.7576,-7.44874 44.2966,-8.09965 l 15,-0.62833 -11.75,-5.964333 c -6.4625,-3.28037 -11.75,-6.48709 -11.75,-7.12603 0,-1.85443 4.2307,-2.441 17.8021,-2.46822 7.8234,-0.0157 14.6989,0.51249 17.9104,1.37589 2.8668,0.77074 4.9906,1.04239 4.7194,0.60365 -0.2711,-0.43874 -4.4167,-3.60992 -9.2124,-7.04706 -4.7957,-3.43714 -9.0382,-6.716609 -9.4278,-7.287709 -1.6467,-2.41385 1.873,-3.05295 16.5092,-2.9977 20.3283,0.0767 35.0506,3.31487 54.126,11.904889 3.2598,1.46794 5.4705,2.07695 4.9126,1.35336 -0.5578,-0.7236 -3.8999,-5.05411 -7.4269,-9.623359 -3.5269,-4.56925 -7.4544,-9.74425 -8.7278,-11.5 -1.2734,-1.75575 -3.2643,-4.20477 -4.4243,-5.44227 l -2.1091,-2.25 h 4.5648 c 6.1084,0 21.4166,4.06266 31.3848,8.32924 9.1111,3.8997 21.8223,11.288779 28.0673,16.315549 5.058,4.07138 5.6525,4.16522 3.8338,0.60521 -3.4229,-6.700049 -12.5021,-26.578739 -12.5021,-27.372949 0,-1.93023 4.3019,-0.63527 13.9725,4.20602 14.4529,7.23536 28.0179,18.523649 36.2512,30.166929 2.2363,3.1625 4.1288,5.75 4.2056,5.75 0.2462,0 -2.3463,-22.434309 -2.8022,-24.248999 -0.7011,-2.79066 1.3131,-3.15578 3.9165,-0.70997 4.2407,3.98385 12.1678,17.236479 15.0789,25.208969 1.5565,4.262503 3.0956,7.750003 3.4202,7.750003 1.0002,0 2.8538,-11.967983 3.5357,-22.828373 l 0.6485,-10.328369 2.9536,2.82837 c 6.7031,6.418869 15.0135,24.912449 18.2479,40.607962 2.1696,10.52857 2.2934,10.80629 3.5084,7.87282 2.4293,-5.86482 14.8739,-22.152413 16.9256,-22.152413 3.1238,0 2.9161,18.952853 -0.3987,36.393083 l -0.74,3.89308 4.4846,-3.0855 c 5.0131,-3.4491 8.6699,-4.62788 10.5453,-3.39936 0.9571,0.62696 0.3066,3.33429 -2.75,11.44552 -2.202,5.84338 -4.0036,11.0719 -4.0036,11.61895 0,0.64625 1.136,0.66882 3.2434,0.0644 16.1149,-4.6217 32.626,9.967626 35.6791,31.526336 2.7233,19.23012 -6.211,39.90867 -20.865,48.29208 -2.5066,1.43403 -4.7154,2.7226 -4.9083,2.8635 -1.0097,0.73728 3.79,16.7594 6.8348,22.81566 2.8988,5.76589 5.2714,8.55997 13.516,15.917172 13.3923,11.95081 14.0226,13.22052 6.4125,12.91705 l -3.9994,-0.15949 2.8634,3.69875 c 1.5749,2.03431 3.8016,5.27375 4.9481,7.19875 2.0346,3.41593 5.2754,13.04944 5.2754,15.6815 0,2.13085 -2.6042,1.52197 -6.1225,-1.4315 -2.1383,-1.79499 -3.0576,-2.17743 -2.647,-1.10127 2.0383,5.34294 2.8504,13.73264 1.897,19.59813 -1.6224,9.98156 -5.0681,15.16146 -6.6907,10.05819 -0.6813,-2.14288 -0.8244,-2.04109 -2.0331,1.44672 -0.7152,2.06348 -2.4599,6.06063 -3.8773,8.88256 -2.8721,5.71824 -2.7133,7.09723 1.4161,12.29339 8.5529,10.76246 25.00855,45.5723 21.5433,45.5723 -0.2827,0 -2.8702,-1.91656 -5.75,-4.25902 -2.8797,-2.34246 -6.789,-5.36267 -8.6873,-6.71158 l -3.4515,-2.45256 4.559,6.46158 c 2.5074,3.55387 5.8248,8.65699 7.3719,11.34027 l 2.813,4.87869 6.07952,-0.58617 c 9.56501,-0.92223 20.05663,-4.00756 39.27151,-11.54879 21.07306,-8.2705 33.11308,-11.90445 42.25785,-12.75437 14.26386,-1.32569 34.11021,5.54393 49.51799,17.14017 9.45916,7.11916 13.71282,12.07216 18.2588,21.2607 3.11008,6.28622 3.60024,8.24652 3.62568,14.5 0.0302,7.4181 -2.1264,13.63889 -5.77918,16.67042 -0.8652,0.71805 -1.57309,2.15535 -1.57309,3.194 0,3.45864 -4.22976,10.94662 -7.94568,14.06633 l -3.66953,3.08076 2.48343,12.10978 c 2.89449,14.11416 2.52442,18.37099 -1.98951,22.88492 -2.61677,2.61677 -3.4983,2.91514 -7.33512,2.48267 -9.30491,-1.0488 -14.53921,-7.83996 -20.60893,-26.73874 -2.21141,-6.88548 -4.27288,-13.19406 -4.58105,-14.01906 -0.33325,-0.89215 -1.0442,0.34835 -1.75443,3.06121 -2.33511,8.91938 -7.88598,13.93879 -15.41466,13.93879 -7.67924,0 -11.18452,-6.05731 -11.18452,-19.32743 0,-3.94004 -0.88207,-7.06958 -3.57839,-12.69584 -1.96811,-4.10676 -3.76393,-7.65238 -3.9907,-7.87915 -0.22677,-0.22678 -4.30449,3.49741 -9.0616,8.27598 -10.09106,10.13657 -22.09355,19.4411 -30.74789,23.83627 l -6.12142,3.10881 3.37406,1.39417 3.37406,1.39417 -2.25305,2.39827 c -2.31012,2.45901 -12.62974,6.49475 -16.60745,6.49475 -4.89254,0 -5.50356,0.84666 -3.4973,4.846 2.56783,5.11878 7.78525,21.48481 9.14523,28.68683 1.24772,6.60745 1.0245,11.65136 -0.53555,12.10144 -0.55,0.15867 -3.46949,-3.26213 -6.48776,-7.60179 -3.01827,-4.33966 -5.57772,-7.80033 -5.68766,-7.69039 -0.10995,0.10994 1.07006,3.79045 2.62223,8.1789 3.95499,11.18193 6.27264,23.44095 6.42396,33.97901 0.14713,10.24638 -1.10944,11.61777 -5.03951,5.5 -5.01819,-7.81162 -4.9025,-7.88358 -3.89454,2.42242 l 0.93671,9.57758 h 404.81327 404.8133 v 2.5 2.5 h -486.31271 -486.31287 l -2.8956,3.02232 c -1.5926,1.66227 -4.6018,3.5335 -6.6871,4.15829 -2.0853,0.62478 -3.7915,1.27777 -3.7915,1.45109 0,0.17332 2.9995,5.16459 6.6656,11.09171 9.856,15.93459 12.7053,22.47459 12.0195,27.58873 -1.0926,8.14764 -8.9746,11.87558 -17.3799,8.22021 z m 11.0615,-6.73969 c 0.7564,-1.20782 0.7589,-2.8701 0.01,-5.68155 -1.2583,-4.71427 -19.7617,-35.82102 -28.9156,-48.61111 -3.5428,-4.95 -6.4455,-9.36294 -6.4505,-9.80654 -0.024,-2.11736 6.9236,3.58817 12.6412,10.38145 5.9194,7.03289 6.6072,7.54119 9.6126,7.10374 4.4517,-0.64796 7.4005,-2.77439 8.5937,-6.19701 0.8157,-2.33999 0.6482,-3.34146 -0.8847,-5.29029 -1.4921,-1.89679 -3.5315,-2.66854 -9.668,-3.65846 -6.2634,-1.0104 -10.3215,-2.57856 -20.851,-8.05741 -7.1907,-3.74156 -16.2038,-7.75346 -20.029,-8.91533 -10.8609,-3.29893 -13.4458,-5.59154 -23.1807,-20.56015 -11.6513,-17.91528 -15.3593,-29.94796 -13.4874,-43.76726 1.201,-8.86654 9.5631,-36.19373 11.4278,-37.34621 1.1519,-0.71189 0.6489,8.26879 -0.8059,14.38887 -0.5413,2.27741 -0.02,1.91442 3.1753,-2.21156 2.1026,-2.71488 3.9896,-4.436 4.1934,-3.8247 0.4983,1.495 -2.8512,7.88767 -6.5896,12.57623 -3.6897,4.62751 -5.4786,12.18462 -5.4882,23.18463 -0.01,9.7025 3.1512,18.38008 11.76,32.29737 8.4354,13.63671 12.7948,17.92985 20.0714,19.76584 6.5806,1.6604 17.0015,6.23359 21.4944,9.43278 4.0991,2.91882 14.8873,6.79118 21.1495,7.59149 8.7977,1.12433 13.0435,4.13659 14.3243,10.16252 l 0.6907,3.25 h 68.921 68.9206 v -7.94878 c 0,-22.45594 -6.1821,-51.9664 -19.4467,-92.8291 -7.7639,-23.91747 -12.5533,-40.15202 -12.5533,-42.55178 0,-1.79998 0.5518,-1.55027 4.1474,1.87671 2.281,2.17412 3.884,3.27795 3.5621,2.45295 -0.3218,-0.825 -2.4368,-5.72469 -4.7,-10.88819 -2.2631,-5.16351 -4.3661,-10.78851 -4.6732,-12.5 -0.5279,-2.94245 -0.4775,-3.00296 0.9269,-1.11181 0.8169,1.1 4.9569,8.75 9.2,17 7.1915,13.98275 7.5691,15.02218 5.5679,15.32713 -1.1807,0.17992 -3.2882,-0.42077 -4.6833,-1.33486 -2.491,-1.63217 -2.5236,-1.6201 -1.8215,0.67288 0.3932,1.28417 2.9106,8.29863 5.5943,15.58769 2.6836,7.28907 4.8794,13.87672 4.8794,14.63922 0,2.90311 3.6449,5.61274 9.5,7.06229 6.5652,1.62535 17.5,3.44166 17.5,2.90681 0,-0.18484 -1.8,-1.47236 -4,-2.86116 -2.2,-1.3888 -4,-2.88204 -4,-3.31832 0,-0.43628 3.9375,0.0383 8.75,1.05471 9.10541,1.92301 19.56432,1.84927 21.56564,-0.15205 0.77912,-0.77912 0.42737,-1.08434 -1.24964,-1.08434 -2.95561,0 -10.06602,-2.10194 -10.06602,-2.97567 0,-0.36249 2.5875,-1.45777 5.75,-2.43393 13.62126,-4.20447 27.57472,-13.4215 44,-29.06443 l 11.25,-10.71415 0.022,-7.15591 c 0.015,-4.89393 0.63177,-8.49934 1.95111,-11.40591 2.23394,-4.92147 3.5383,-5.55686 2.6889,-1.30983 -0.32342,1.61709 -0.18645,6.46126 0.30438,10.76481 0.70255,6.15988 1.90645,9.92208 5.6585,17.68294 4.25435,8.79982 4.83756,10.83823 5.43181,18.98518 0.84059,11.52429 1.30892,12.6269 5.36324,12.6269 4.26394,0 8.08977,-4.08605 9.64255,-10.29841 1.55645,-6.22705 0.73354,-17.83781 -1.50656,-21.25664 -2.7567,-4.20725 -0.85844,-4.14307 3.55011,0.12003 5.3858,5.2081 8.67431,11.95881 14.33679,29.43082 5.06442,15.62667 7.00386,19.51936 11.6894,23.46198 5.39592,4.54036 9.901,2.64483 9.84428,-4.14204 -0.0129,-1.54866 -2.62883,-15.0877 -5.81308,-30.08677 -3.18425,-14.99906 -5.32753,-27.11702 -4.76284,-26.92879 1.6951,0.56504 5.4436,8.96965 7.84394,17.58713 1.24053,4.45365 2.58663,8.10095 2.99132,8.10511 0.4047,0.004 1.93432,-1.80348 3.39916,-4.017 3.67047,-5.54646 4.0877,-11.70313 1.47593,-21.77893 -2.38098,-9.18543 -2.61298,-11.62483 -1.01146,-10.63503 1.4659,0.90597 6.89877,12.47172 6.89977,14.68854 10e-4,3.30205 1.74133,1.74836 2.97456,-2.6563 3.40129,-12.14823 -5.5051,-28.42756 -21.47377,-39.25033 -11.70316,-7.93182 -20.39593,-11.53663 -32.25,-13.37379 -12.43154,-1.92666 -27.12373,1.56257 -53.64766,12.74073 -30.00185,12.64387 -50.62526,14.33774 -68.75896,5.6474 -8.134,-3.89808 -17.824,-10.54613 -22.3434,-15.32911 l -3,-3.17496 -0.5,8.82318 c -0.4752,8.38428 -0.5746,8.69882 -2,6.32318 -1.1056,-1.84256 -1.5,-5.57849 -1.5,-14.20638 0,-11.5153 -0.033,-11.6831 -2,-10.27966 -7.7689,5.54203 -12.7119,8.60746 -13.1589,8.16045 -0.2876,-0.28755 6.187,-7.19443 14.388,-15.34862 21.7331,-21.60919 29.0106,-32.06455 33.3643,-47.93398 1.521,-5.54415 1.9387,-9.0919 1.4787,-12.55931 -0.8522,-6.42429 0.6233,-6.1763 3.9717,0.6675 1.48,3.025 2.8419,5.5 3.0264,5.5 0.1846,0 0.092,-2.3625 -0.2055,-5.25 -0.6364,-6.17578 -2.9083,-14.90807 -5.0827,-19.53576 -2.1027,-4.47507 -1.0668,-4.99934 3.6762,-1.86058 2.1994,1.45549 4.2616,2.64634 4.5827,2.64634 1.4957,0 -5.3207,-10.39172 -10.7951,-16.45727 l -6.1008,-6.7597 5.1781,0.35849 c 2.848,0.19716 5.1778,0.3007 5.1775,0.23009 -3e-4,-0.0706 -2.4828,-2.04334 -5.5165,-4.38383 -6.9118,-5.332442 -13.6939,-14.267852 -16.5045,-21.744762 -1.1873,-3.15866 -3.6619,-12.26802 -5.499,-20.24302 -4.5196,-19.61959 -7.5149,-28.46277 -14.1472,-41.76872 l -5.6169,-11.2687203 -3.3583,0.6300103 c -3.6576,0.68617 -4.1596,-0.15084 -1.89,-3.1514403 3.3354,-4.40978 0.9216,-4.56617 -6.8086,-0.44113 -3.092,1.65 -6.0879,3 -6.6576,3 -0.5696,0 0.1271,-2.29475 1.5484,-5.09943 1.4212,-2.80469 2.3306,-5.35286001 2.0209,-5.66260001 -0.3098,-0.30972999 -4.4368,3.36318001 -9.1713,8.16203001 -4.7345,4.7988503 -8.8159,8.5174403 -9.0698,8.2635303 -0.4019,-0.40187 0.356,-4.00986 2.3449,-11.1635303 0.7217,-2.59607 -4.6212,4.70344 -10.5257,14.3801303 -3.9294,6.43985 -4.7025,7.24374 -4.9924,5.19103 -0.2769,-1.961 -0.8903,-1.19051 -3.1845,4 -1.5629,3.53586 -3.5041,6.85007 -4.3138,7.36491 -1.1197,0.7119 -3.8033,-1.27007 -11.2061,-8.27604 -5.3536,-5.06666 -9.9121,-9.03389 -10.1299,-8.81608 -0.2178,0.21781 0.5405,2.77196 1.6851,5.67587 1.1446,2.90392 1.9486,5.86353 1.7866,6.5769 -0.1741,0.76716 -5.7223,-2.89149 -13.5806,-8.95561 -7.3074,-5.63896 -14.7183,-11.09864 -16.4687,-12.1326103 l -3.1825,-1.87995 2.2746,2.9357303 c 4.5786,5.90945 8.1971,11.92427 7.3445,12.20847 -0.4812,0.16041 -3.7565,-1.53442 -7.2783,-3.7663 -6.8665,-4.35143 -18.9689,-10.3468003 -25.2777,-12.5222303 l -3.8743,-1.33594 2.9705,3.17586 c 4.2466,4.5401603 8.6408,10.6465003 8.0712,11.2161003 -0.2672,0.26719 -3.4596,-0.63354 -7.0943,-2.00162 -8.5697,-3.22561 -19.8601,-6.16498 -27.2057,-7.08275 l -5.8372,-0.7293103 6.422,6.0445903 c 3.5321,3.32452 6.1704,6.30026 5.8627,6.61275 -0.3076,0.31249 -6.0506,-0.16563 -12.762,-1.06247 -6.7115,-0.89685 -12.4923,-1.34106 -12.8462,-0.98714 -0.3539,0.35393 1.6765,3.09656 4.5121,6.09474 2.8355,2.99819 5.1555,5.92819 5.1555,6.51111 0,1.46138 -3.4875,1.30787 -10,-0.44014 -3.025,-0.81194 -5.8132,-1.4816 -6.1961,-1.48813 -0.3829,-0.007 0.1521,2.45358 1.1888,5.46691 1.0368,3.01333 1.4882,5.72405 1.0031,6.02381 -0.485,0.29976 -3.4606,-2.95319 -6.6123,-7.22878 -12.4961,-16.95182 -22.6978,-23.32064 -37.5264,-23.42717 -17.069,-0.12263 -29.6777,10.77744 -35.3978,30.60114 -6.73,23.32371 11.0244,48.36927 37.3357,52.66826 5.4519,0.89077 8.2182,0.90857 10.9491,0.0704 7.1863,-2.20552 5.7241,0.54899 -5.4746,10.313542 -4.4154,3.85 -9.7699,8.41907 -11.8988,10.15348 l -3.8707,3.15348 9.5,-2.39354 c 5.225,-1.31645 9.8796,-2.2715 10.3435,-2.12233 0.4639,0.14917 -2.7166,3.4072 -7.0678,7.24007 -8.8667,7.81038 -16.8499,17.24891 -21.542,25.46884 l -3.1395,5.5 4.4529,-3.58928 c 4.7073,-3.79431 20.1505,-13.04649 20.7597,-12.43731 0.1973,0.19736 -1.9103,3.24615 -4.6836,6.7751 -6.255,7.95944 -11.5981,17.25216 -14.8065,25.75149 l -2.4536,6.5 4.8184,-4.65547 c 4.8052,-4.64259 11.8829,-9.84451 13.3945,-9.84451 0.4382,0 -0.4926,3.2625 -2.0686,7.25 -3.3821,8.55716 -7.4242,22.66648 -6.7009,23.38984 0.2791,0.2791 2.331,-0.81349 4.5598,-2.428 4.5315,-3.28263 9.9169,-5.76199 10.7361,-4.94278 1.783,1.78298 -11.4071,26.52924 -16.6875,31.30801 -5.2382,4.74043 -4.0301,5.36165 3.6343,1.86889 4.1589,-1.89528 7.7775,-3.44596 8.0414,-3.44596 0.8354,0 -1.8142,4.38592 -4.5024,7.45306 -1.4235,1.62418 -6.8535,7.3806 -12.0667,12.79205 l -9.4785,9.839 6.4785,-2.94756 c 3.5632,-1.62115 6.6734,-2.75771 6.9115,-2.52568 0.2382,0.23202 -0.4368,1.50802 -1.5,2.83554 -10.268,12.82124 -16.148,21.31773 -19.4144,28.05359 -2.1336,4.4 -4.5714,8.9 -5.4172,10 -1.5031,1.95487 -1.5385,1.94148 -1.5696,-0.59345 -0.07,-5.67542 5.2667,-17.56982 11.1642,-24.88439 1.5422,-1.91282 2.804,-3.8329 2.804,-4.26685 0,-0.43395 -2.25,0.35116 -5,1.74469 -2.75,1.39353 -5,2.05449 -5,1.46881 0,-2.58464 7.5528,-12.21801 16.3838,-20.89694 5.2763,-5.18547 9.4753,-9.54613 9.3311,-9.69034 -0.1442,-0.14421 -2.8516,0.59203 -6.0163,1.63609 -9.1602,3.02196 -9.6774,1.76314 -2.4313,-5.91808 6.5242,-6.91595 14.8493,-18.64569 16.7132,-23.54824 l 1.0701,-2.81444 -2.7753,1.79221 c -1.5264,0.98572 -4.313,2.82502 -6.1923,4.08735 -1.8794,1.26232 -3.8495,2.02787 -4.3781,1.70122 -1.9263,-1.19055 0.6132,-14.82569 4.8086,-25.81764 0.4198,-1.1 -2.656,1.34596 -6.8353,5.43546 -6.0788,5.94828 -7.7271,7.10052 -8.2412,5.7609 -1.219,-3.17668 2.6597,-17.03404 7.1542,-25.55925 2.4248,-4.59958 4.4088,-8.54283 4.4088,-8.76278 0,-0.21994 -3.3809,2.37497 -7.5131,5.76647 -4.1322,3.39149 -7.7899,5.88948 -8.1283,5.55108 -0.9547,-0.95462 1.4534,-9.38187 4.3046,-15.06444 2.9992,-5.97754 12.6683,-18.95644 16.1805,-21.71916 2.8862,-2.27028 1.7409,-2.34038 -6.3437,-0.38828 -7.7206,1.86422 -7.696,1.86654 -7.3195,-0.68993 0.191,-1.29747 3.5361,-4.7443 8.3195,-8.57275 4.4,-3.52154 10.025,-8.14598 12.5,-10.27653 l 4.5,-3.87371 -4.5934,-0.0535 c -14.6352,-0.17058 -32.4688,-13.022672 -39.972,-28.806462 -2.6516,-5.578 -3.2917,-8.30653 -3.694,-15.74708 -0.836,-15.46224 3.0688,-27.05919 12.7016,-37.72302 16.4893,-18.25424031 42.6487,-17.98298031 61.7354,0.64016 4.9029,4.78386 7.6921,6.64938 11.9472,7.99066 3.053,0.96239 5.757,1.54371 6.0089,1.29183 0.2519,-0.25188 -2.1476,-2.7803 -5.3323,-5.61872 -4.6746,-4.16641 -5.5023,-5.3428 -4.2958,-6.10552 1.8042,-1.14058 12.6131,-1.16485 19.4464,-0.0437 l 4.952,0.81251 -2.5105,-2.12212 c -1.3808,-1.16717 -4.5092,-3.7894 -6.952,-5.8271803 l -4.4415,-3.70506 8.5,-0.0438 c 9.301,-0.0479 20.3369,1.79294 26.343,4.3941203 6.6304,2.87152 6.2557,1.15913 -1.0935,-4.9974803 -3.9016,-3.26852 -7.1289,-6.30783 -7.1717,-6.75403 -0.119,-1.24041 8.6188,0.33432 16.2655,2.93138 3.7638,1.27831 11.1888,4.60685 16.5,7.39676 l 9.6567,5.0725603 -7,-7.1693503 -7,-7.16935001 3.5,0.63177 c 5.6537,1.02053001 14.8376,6.03862001 24.8154,13.55910031 5.1235,3.86168 9.7548,7.29281 10.2919,7.62473 0.5371,0.33192 -0.6404,-1.92407 -2.6166,-5.0133 l -3.593,-5.6168 2.8012,0.66034 c 1.5406,0.36319 4.2042,1.50254 5.9191,2.53189 1.7149,1.02935 3.3986,1.87154 3.7414,1.87154 0.8925,0 -3.5161,-11.3851003 -7.3623,-19.0130903 -3.7968,-7.5299557 -9.8598,-16.6843057 -12.7956,-19.3195157 -1.9872,-1.78377 -1.9796,-1.63718 0.2832,5.5 2.9303,9.2426857 4.2478,17.40335569 2.6502,16.41597569 -0.6242,-0.38572999 -1.1349,-1.30758999 -1.1349,-2.04852999 0,-0.74094 -1.7801,-6.65928 -3.9558,-13.1518557 -2.1757,-6.49259 -3.7714,-11.98906 -3.5461,-12.21437 0.7,-0.70004 8.0873,5.59737 13.4528,11.46807 5.4678,5.98273 12.7863,19.8700157 15.4944,29.401546 1.274,4.48435 2.7669,6.72105 7.8454,11.7544 l 6.272,6.21621 3.7694,-9.67245 c 6.3907,-16.3985703 8.7279,-31.12938 6.9549,-43.836346 l -0.8371,-6 -4.9632,14.75 c -2.7297,8.1124957 -5.2376,14.74999569 -5.573,14.74999569 -0.3354,0 -0.8987,-4.72242999 -1.2519,-10.49429999 -1.0309,-16.8488957 -7.1087,-39.5498157 -12.3173,-46.0056957 -1.1761,-1.45776 -1.46,-1.55152 -1.0472,-0.34582 2.6192,7.64973 3.1084,36.84582 0.6174,36.84582 -0.5031,0 -0.9147,-1.28465 -0.9147,-2.85478 0,-9.32049 -2.4833,-32.68486 -4.6123,-43.39522 -1.7103,-8.60415 8.9576,4.64583 13.8885,17.25 2.4234,6.19478 5.9327,19.91031 7.292,28.5 0.6288,3.97364 0.6582,3.92854 4.4569,-6.84123 2.1032,-5.96268 4.0465,-11.06372 4.3184,-11.33565 0.9554,-0.9554 2.5742,3.43675 3.6025,9.77447 1.449,8.92991 1.2496,22.9334157 -0.4612,32.4024057 -2.0063,11.1041003 -1.8664,11.6978803 1.4107,5.9848203 4.7022,-8.1977203 15.0697,-18.8529203 16.7292,-17.1934603 0.2493,0.24937 -0.2327,2.42333 -1.0711,4.83102 -2.2174,6.36719 -1.964,6.67713 2.1964,2.68658999 4.1797,-4.00909999 11.0944,-7.80896999 14.2101,-7.80896999 2.6375,0 2.5709,0.75424 -0.4601,5.21481 -1.375,2.02349998683 -2.5,3.85881 -2.5,4.07847 0,0.21966 2.3625,-0.39022 5.25,-1.35530001 4.8194,-1.61076 5.475,-2.21505999 7.9929,-7.36742999 1.5085,-3.08701 4.2792,-9.9907557 6.157,-15.3416457 1.8778,-5.3509 3.7492,-10.56875 4.1588,-11.59523 1.4876,-3.72883 -3.2453,0.15486 -9.7035,7.96245 -3.4589,4.18159 -6.4393,7.15176 -6.6231,6.60037 -0.1838,-0.55139 1.0492,-6.59323 2.74,-13.42632 1.6908,-6.83309 3.4159,-17.03386 3.8335,-22.66838 l 0.7594,-10.24459 -2.5853,3.16759 c -3.0371,3.72123 -5.1562,7.67934 -11.8993,22.22521 -2.7409,5.9125 -5.3988,10.75 -5.9064,10.75 -0.5294,0 -0.7223,-3.73049 -0.4523,-8.75 0.7759,-14.42731 -3.9122,-35.93176 -10.7368,-49.250003 l -1.7935,-3.5 -0.6214,4 c -2.6538,17.080593 -6.0709,30.400923 -8.3952,32.725213 -0.7056,0.7056 -1.3797,-0.34708 -2.1439,-3.34801 -3.6931,-14.5028 -6.4206,-22.669443 -9.5622,-28.631733 l -3.5544,-6.74547 0.5086,5.5 c 1.4166,15.320003 1.8039,27.000003 0.8953,27.000003 -0.537,0 -2.0658,-2.3625 -3.3973,-5.25 -5.3668,-11.63843 -17.8296,-27.286833 -28.5329,-35.826262 -9.0585,-7.22709 -22.5316,-14.46734 -17.4319,-9.36757 2.0808,2.08079 15.5159,37.305182 14.5841,38.236942 -0.2525,0.25249 -3.7398,-2.72242 -7.7497,-6.610933 -12.0347,-11.67067 -24.7455,-20.26754 -38.8735,-26.291809 -5.7955,-2.47128 -19.0613,-6.89037 -20.6844,-6.89037 -0.1505,0 2.521,3.66412 5.9368,8.14249 7.4509,9.768719 19.9538,30.226852 18.7501,30.680402 -0.4713,0.17759 -3.6835,-1.68186 -7.1382,-4.132103 -11.1307,-7.89436 -26.2151,-14.13303 -43.9465,-18.17555 -6.9574,-1.5862 -26.7772,-3.90611 -27.4682,-3.21515 -0.2191,0.21909 2.8713,2.91337 6.8675,5.98728 7.7422,5.95533 19.4682,17.343663 18.6748,18.137073 -0.2622,0.2622 -5.2905,-1.0509 -11.1739,-2.918003 -10.4915,-3.32947 -22.2619,-5.5177 -29.5573,-5.49499 l -3.6777,0.0114 6.5,3.58687 c 7.6364,4.213963 18.6949,12.305993 19.4761,14.251583 0.3878,0.96583 0.035,1.16374 -1.2147,0.68121 -3.328,-1.28509 -24.7679,-2.5988 -32.7614,-2.00744 -8.2261,0.60858 -27.7973,3.89947 -31.6365,5.31967 -1.7825,0.6594 -1.0431,1.1087 4.2387,2.57577 9.4427,2.62279 32.8978,11.6695 32.8978,12.68878 0,0.48437 -4.1625,0.88194 -9.25,0.88349 -5.0875,0.002 -13.3,0.47898 -18.25,1.06097 -15.0919,1.7744 -45.5,10.41008 -45.5,12.92167 0,0.40655 2.4601,1.02831 5.4669,1.3817 3.0067,0.35338 11.1285,2.44034 18.0484,4.63768 6.9198,2.19734 14.3332,3.99516 16.4741,3.99516 3.9313,0 6.1139,1.36264 3.6791,2.29696 -0.726,0.27859 -4.4359,0.81429 -8.2442,1.19045 -9.7308,0.96113 -29.3537,6.14034 -39.42,10.4043757 l -8.5043,3.60237 11,0.78717 c 16.2794,1.16496 16.7854,1.69283 5.5,5.73758 -11.8167,4.2352 -22.3835,9.2057403 -31.3155,14.7305503 -4.8486,2.99902 -8.6553,5.61305 -8.4594,5.80895 0.1959,0.1959 4.8379,-0.26746 10.3155,-1.02969 5.4777,-0.76223 16.4844,-1.68768 24.4594,-2.05654 16.2126,-0.74988 16.4714,-0.42956 4,4.95095 -3.575,1.54236 -7.4,3.35811 -8.5,4.035 -1.1,0.67688 -4.7,2.71563 -8,4.53054 -11.1943,6.15658 -23.8959,15.48258 -32.4627,23.83547 -8.2865,8.07962 -8.4363,8.30692 -5.101,7.73774 1.89,-0.32252 9.09,-1.27812 16,-2.12355 6.91,-0.84544 15.4236,-2.41492 18.9191,-3.48774 7.3245,-2.24805 7.1446,-2.22054 7.1446,-1.093 0,0.47168 -5.0625,3.37172 -11.25,6.44454 -14.0807,6.99275 -27.4598,15.72944 -35.25,23.01866 l -6,5.61417 7.5,-2.53218 c 4.125,-1.39269 14.0278,-4.04749 22.0062,-5.89954 7.9784,-1.85204 15.7702,-3.84793 17.3151,-4.4353 7.3214,-2.78357 5.0222,-0.40613 -6.1706,6.38087 -18.9418,11.4857 -27.691,18.100132 -39.7501,30.051192 -9.5279,9.4427 -19.4006,21.1317 -19.4006,22.96991 0,0.3054 3.1024,-1.00707 6.8942,-2.9166 3.7919,-1.90953 12.0044,-5.3152 18.25,-7.56816 6.2457,-2.25295 13.5639,-4.97567 16.2627,-6.05047 2.6988,-1.07481 5.0557,-1.80539 5.2376,-1.6235 0.1819,0.18188 -4.3098,3.97096 -9.9816,8.42018 -10.3591,8.12629 -21.897,20.03505 -29.326,30.26868 -4.6897,6.46028 -9.7384,14.93433 -9.2084,15.4559 0.2043,0.20105 3.9715,-2.02223 8.3715,-4.94062 10.2056,-6.76909 25.7238,-15.62484 26.3255,-15.02315 0.2541,0.25409 -3.0902,4.33227 -7.4318,9.06262 -18.6813,20.35433 -30.4294,37.77672 -37.4027,55.46815 l -1.9653,4.98597 4.2372,-2.65628 c 2.3304,-1.46096 6.7121,-4.32637 9.7371,-6.36758 8.802,-5.93943 27.5196,-14.79879 28.7232,-13.59521 0.2547,0.25472 -3.0792,4.20871 -7.4085,8.78666 -10.1195,10.70044 -14.1742,15.82624 -20.1834,25.51506 -6.8681,11.07371 -10.9688,19.47463 -14.2758,29.24607 -4.3986,12.99736 -3.9945,13.61508 3.8945,5.95262 11.5143,-11.18365 27.25,-23.24289 27.25,-20.88338 0,0.6066 -1.8487,3.82529 -4.1083,7.15264 -11.3027,16.64395 -22.6325,45.3042 -25.4762,64.44532 -2.0669,13.91272 -1.7194,15.13988 2.5188,8.89521 3.7757,-5.56316 20.656,-25.9339 23.9522,-28.90499 1.1624,-1.04774 2.1135,-1.46478 2.1135,-0.92675 0,0.53802 -2.4047,7.05516 -5.3439,14.48253 -5.9322,14.99085 -8.8283,24.94823 -11.1268,38.25641 -1.6917,9.79473 -3.2076,31.5928 -2.197,31.5928 0.3504,0 2.9453,-3.4875 5.7665,-7.75 6.0182,-9.09289 18.9523,-25.53226 19.588,-24.89653 0.2422,0.2422 -0.7165,4.23333 -2.1306,8.86918 -4.6352,15.19646 -6.6458,29.13536 -6.3359,43.9251 l 0.2797,13.35225 h 3.8008 c 3.7779,0 3.8229,-0.0481 7.5,-8.02552 4.5539,-9.87966 9.2925,-18.47448 10.1855,-18.47448 0.3677,0 0.4625,6.075 0.2107,13.5 l -0.4579,13.5 h 11.5152 11.5153 l 0.6704,-5.75 c 0.9851,-8.44923 5.0213,-21.25 6.7004,-21.25 0.9428,0 0.8652,0.55704 -1.5319,11 -0.8207,3.575 -1.7944,8.6375 -2.1638,11.25 l -0.6718,4.75 h 14.0945 c 15.9965,0 13.9354,1.29844 16.1482,-10.17316 0.6019,-3.12023 1.7222,-6.19427 2.4897,-6.8312 1.4806,-1.22886 1.4459,-0.36327 -0.4502,11.22885 -0.425,2.59846 -0.5363,4.96096 -0.2473,5.25 0.2891,0.28903 4.2274,0.52551 8.7519,0.52551 8.8955,0 9.4403,-0.34181 9.4403,-5.92286 0,-1.5176 0.631,-4.8558 1.4021,-7.41821 0.7712,-2.56241 1.1699,-4.65893 0.8859,-4.65893 -0.2839,0 -2.22,1.9125 -4.3024,4.25 -2.0824,2.3375 -4.0372,4.0064 -4.3439,3.70866 -0.8465,-0.82166 2.8481,-14.8265 8.0151,-30.38242 4.5321,-13.64449 4.602,-14.04795 3.484,-20.1153 -0.6274,-3.40534 -1.1425,-8.38965 -1.1445,-11.07624 v -4.8847 l -1.9816,3.25 c -2.538,4.1626 -3.682,4.10084 -4.8872,-0.26382 -3.3343,-12.07593 6.248,-48.58597 18.7505,-71.44274 4.5906,-8.39229 16.2892,-22.19378 17.6607,-20.83517 0.3932,0.38955 -0.8604,3.08955 -2.7857,6 -4.3568,6.58593 -12.7698,23.30194 -16.8872,33.55343 -6.0193,14.98748 -12.7137,41.2383 -10.5163,41.2383 0.3414,0 1.7448,-2.21815 3.1187,-4.92923 3.6557,-7.21425 4.9295,-7.50578 4.2029,-0.9619 -1.695,15.26635 -1.8134,21.08843 -0.5704,28.04323 1.4238,7.96547 1.3215,8.06975 3.3356,-3.4021 0.3621,-2.0625 1.0379,-3.75 1.5017,-3.75 0.4639,0 1.1494,1.6875 1.5234,3.75 1.6638,9.17622 11.4364,25.03445 21.8293,35.42287 6.0718,6.06918 12.251,11.01941 28.8357,23.10023 6.6179,4.82074 7.714,6.05801 8.3186,9.38964 0.9057,4.99106 4.7285,13.38184 8.1262,17.83641 1.4801,1.94053 5.7978,5.78785 9.5948,8.54961 4.172,3.03444 7.5553,6.38747 8.5501,8.47375 1.9233,4.03315 0.911,5.90469 -1.5305,2.82959 -1.4838,-1.86892 -5.2052,-4.3521 -6.5222,-4.3521 -0.2597,0 0.038,1.66229 0.6615,3.69398 2.2832,7.43914 11.6107,13.22112 18.3994,11.40552 5.0099,-1.33986 6.7228,-5.18051 7.3239,-16.42192 l 0.5442,-10.17758 1.8879,4 c 1.3215,2.79987 1.9044,6.32526 1.9427,11.75 l 0.055,7.75 h 3.2161 c 4.6952,0 8.0709,-1.87679 10.5288,-5.85376 2.4129,-3.90415 2.8459,-10.15969 1.4636,-21.14624 l -0.8178,-6.5 2.0773,3 c 1.1426,1.65 2.5629,4.77074 3.1562,6.93497 1.8669,6.80959 15.6974,25.98229 21.7164,30.10461 4.2231,2.89231 9.8227,3.01498 11.5524,0.25308 z m -209.79,-68.04266 c -1.4346,-6.99528 -1.5419,-10.493 -0.5655,-18.44489 1.1927,-9.71424 4.1554,-20.72546 7.1709,-26.65202 3.0471,-5.98843 3.2409,-3.63716 0.4965,6.02296 -2.8687,10.09728 -4.6873,21.032 -4.6594,28.0155 l 0.019,4.80845 4.9705,-9.36383 c 5.1289,-9.66205 12.8734,-20.81322 17.4047,-25.06048 4.2568,-3.98996 2.9829,-0.99976 -4.4808,10.5182 -3.887,5.99836 -9.6245,15.73827 -12.75,21.64425 -3.1255,5.90597 -6.0117,10.74347 -6.4137,10.75 -0.402,0.007 -0.9386,-1.00064 -1.1924,-2.23814 z m -25.0457,-2.07614 c -1.1153,-2.53509 -0.01,-17.5286 1.5618,-21.17386 1.2892,-2.99094 1.294,-2.99245 1.6087,-0.5 0.5504,4.3599 -2.2788,23.70077 -3.1705,21.67386 z m -11.9102,-14.72601 c -1.892,-8.96318 -0.8997,-30.03657 1.8614,-39.53448 2.0641,-7.10019 5.4304,-14.83414 6.1455,-14.11901 0.3176,0.31758 -0.5925,5.47043 -2.0225,11.45077 -1.4299,5.98033 -2.8614,15.12168 -3.1811,20.3141 l -0.5811,9.44077 3.4479,-7.68924 c 4.3353,-9.66826 7.8893,-15.75885 10.6576,-18.26412 l 2.1557,-1.95092 -0.9622,2.45214 c -0.5293,1.34868 -2.9569,6.72714 -5.3947,11.95214 -2.4378,5.225 -5.6353,13.1 -7.1055,17.5 -3.3984,10.17081 -4.3274,11.73393 -5.021,8.44785 z m 26.0503,-25.69785 c 1.8692,-12.8545 6.7947,-27.06183 13.1611,-37.96265 4.6133,-7.89907 12.071,-17.7175 12.859,-16.92951 0.2849,0.28492 -1.8013,4.3578 -4.636,9.05084 -6.0699,10.049 -9.8282,18.15054 -13.4321,28.95509 -1.4427,4.32507 -2.6231,8.05286 -2.6231,8.28398 0,0.23112 3.3851,-3.61433 7.5224,-8.54544 6.905,-8.22997 19.9516,-19.96168 21.0156,-18.89768 0.2465,0.24653 -3.8136,5.13884 -9.0225,10.8718 -5.2089,5.73297 -12.5183,14.57156 -16.2431,19.64132 -7.4506,10.1408 -9.4594,11.43283 -8.6013,5.53225 z m -35.9716,-15.59076 c -0.5048,-1.3154 0.6808,-14.2492 1.8479,-20.15924 1.9568,-9.90869 11.3831,-31.5 13.7522,-31.5 0.5029,0 0.6857,0.5625 0.4062,1.25 -5.413,13.31288 -7.0554,18.02703 -9.2534,26.5593 -3.3898,13.15878 -2.9239,15.01928 1.7597,7.02601 6.2949,-10.74322 21.6763,-28.28025 23.3426,-26.61393 0.276,0.27602 -1.9163,3.60163 -4.8718,7.39024 -8.3831,10.74611 -17.1566,23.40475 -20.022,28.88838 -2.7302,5.22482 -5.009,8.5 -5.9141,8.5 -0.2931,0 -0.7643,-0.60334 -1.0473,-1.34076 z m -13.3743,-30.40924 c 0.6211,-7.7449 2.8494,-16.7682 6.2355,-25.25 2.152,-5.39035 9.2821,-17 10.4408,-17 0.4522,0 -0.7435,3.7125 -2.657,8.25 -4.9598,11.76116 -8.9447,22.70327 -9.6979,26.62929 -0.5647,2.94334 0.2009,2.23379 5.934,-5.5 8.0795,-10.899 13.9718,-17.09812 22.3285,-23.49126 6.2269,-4.7637 10.1213,-6.02374 4.9259,-1.59378 -8.6284,7.35727 -29.4827,32.86989 -34.3124,41.97705 -3.0192,5.69322 -3.8889,4.5995 -3.1974,-4.0213 z m 52.2969,-16.05244 c -0.7549,-1.2215 3.8959,-13.83221 8.0021,-21.69756 6.4255,-12.30808 20.9332,-29.51906 28.1258,-33.36674 2.7381,-1.46474 3.0453,0.19633 0.3813,2.06222 -5.9401,4.16062 -22.4805,26.93885 -27.2002,37.45806 l -2.9402,6.55316 4.7546,-4.71499 c 2.615,-2.59324 7.2611,-6.65379 10.3247,-9.02343 6.345,-4.90773 18.7525,-11.97888 19.5753,-11.15609 0.3019,0.30187 -2.0891,2.49262 -5.3132,4.86833 -8.773,6.46433 -22.1299,17.89499 -28.2981,24.21719 -5.4927,5.62977 -6.4972,6.28024 -7.4121,4.79985 z m -57.5903,-24.93683 c -0.062,-2.4039 3.6285,-10.82604 7.1246,-16.26073 4.0688,-6.32482 12.5528,-16 14.0301,-16 0.5506,0 -0.7043,2.3625 -2.7886,5.25 -5.9633,8.26102 -10.9357,15.9017 -13.1783,20.25 -2.6148,5.06993 -5.1465,8.36921 -5.1878,6.76073 z m 25.9682,-17.16674 c 0,-3.44801 6.4394,-16.05521 11.8536,-23.20719 4.699,-6.20715 13.1296,-14.23699 14.0164,-13.35011 0.222,0.22195 -2.0469,3.45449 -5.042,7.18343 -6.4147,7.98655 -10.8659,14.4319 -13.3146,19.27988 l -1.7678,3.5 2.3772,-2.09998 c 5.7211,-5.05384 18.6738,-12.93674 19.6511,-11.95944 0.3077,0.30768 0.3719,0.70496 0.1428,0.88284 -0.2292,0.17787 -3.3417,2.51891 -6.9167,5.20229 -3.575,2.68339 -8.975,6.94728 -12,9.47531 -9.148,7.64508 -9,7.56134 -9,5.09297 z m 46.528,-15.34399 c 1.2753,-6.03435 6.2599,-17.77852 10.626,-25.03593 4.5658,-7.58934 18.178,-22.70802 19.3733,-21.51738 0.3847,0.38318 -1.9728,3.98318 -5.2388,8 -7.2984,8.97632 -12.14,16.3902 -15.9823,24.4741 l -2.9331,6.17079 6.0635,-5.20616 c 13.613,-11.68835 27.454,-21.17189 29.772,-20.39921 0.5802,0.19338 -4.2818,4.60219 -10.8044,9.79735 -11.0132,8.77187 -28.4724,24.41199 -29.2375,26.19129 -0.1834,0.42633 -0.7816,0.77515 -1.3295,0.77515 -0.598,0 -0.7216,-1.29874 -0.3092,-3.25 z m -67.528,-3.78155 c 0,-5.35001 6.7064,-20.3876 12.9193,-28.96845 7.3052,-10.08966 15.4334,-18 18.4956,-18 0.3733,0 -2,3.11243 -5.2741,6.9165 -9.3162,10.82433 -16.5596,22.1644 -20.0922,31.45559 -0.9333,2.4548 -0.1152,1.99916 6.188,-3.44668 7.5442,-6.51807 17.0885,-13.05426 24.6662,-16.89207 5.7248,-2.89943 12.1001,-5.13537 12.0865,-4.23898 -0.01,0.3881 -5.9666,4.52957 -13.2461,9.20327 -13.245,8.50382 -25.7218,17.78718 -31.1118,23.14882 -3.3916,3.37371 -4.6314,3.59375 -4.6314,0.822 z m 301.7175,-14.06003 c -4.7636,-1.12168 -8.9474,-3.26576 -10.7904,-5.52971 -1.2637,-1.55242 -1.2339,-1.68081 0.2605,-1.12125 4.3672,1.63524 14.8092,2.86218 19.3124,2.26921 7.585,-0.99877 13.0466,-3.88482 19.1161,-10.10156 3.0274,-3.10088 5.7954,-5.34689 6.1512,-4.99115 1.3173,1.31737 -4.4217,9.96399 -9.0827,13.68405 -7.4496,5.94583 -15.9424,7.91549 -24.9671,5.79041 z m -237.9737,-18.97267 c 5.2822,-8.34272 17.8524,-20.08999 26.013,-24.31 5.1412,-2.65862 3.6873,-0.55591 -3.3703,4.87425 -3.5742,2.75 -8.7339,7.56404 -11.4659,10.69786 l -4.9672,5.69786 6.2733,-2.80288 c 6.6785,-2.98388 15.6764,-5.52312 16.5336,-4.66585 0.2844,0.28438 -0.5578,0.9294 -1.8716,1.43338 -3.1529,1.20951 -15.1211,6.65604 -21.335,9.70925 -6.8781,3.37954 -8.2559,3.22922 -5.8099,-0.63387 z m 239.7562,-0.3379 c -14.2905,-4.53133 -25.7348,-14.50012 -42.3021,-36.84785 -2.3445,-3.1625 -4.6968,-5.75 -5.2274,-5.75 -0.5306,0 -2.778,1.63811 -4.9941,3.64024 -2.2161,2.00213 -4.2908,3.37874 -4.6104,3.05912 -0.3196,-0.31961 0.4798,-2.50178 1.7764,-4.84926 2.9004,-5.25098 10.0443,-9.89139 16.3159,-10.59829 5.6627,-0.63827 6.1231,1.1895 0.8541,3.39102 l -3.6876,1.54078 6.7556,4.34663 c 7.2733,4.67971 17.9254,9.086 29.1196,12.04544 9.847,2.6033 34.7849,2.69802 42.0519,0.15973 5.6822,-1.98472 12.3806,-8.23035 17.3543,-16.18119 1.721,-2.75128 3.0938,-4.17131 3.0938,-3.20034 0,2.35321 -2.6091,7.30036 -6.3795,12.09615 -3.6176,4.60146 -2.4831,4.46513 6.2293,-0.74857 7.3964,-4.42626 13.749,-12.25564 17.1043,-21.08073 0.8802,-2.31507 0.7277,-2.28324 -4.6906,0.97949 -7.0702,4.25747 -11.1836,5.02298 -18.6755,3.47556 -15.7407,-3.2512 -24.2782,-13.39447 -20.6154,-24.49294 2.5192,-7.6332 8.8949,-12.46357 19.6858,-14.91429 l 5.6382,-1.2805 -4.9973,-3.66829 c -6.0141,-4.41477 -12.5246,-11.320972 -14.7752,-15.673192 -2.5596,-4.94962 -1.2726,-5.73417 1.8989,-1.15764 3.2632,4.70883 5.0323,5.4057 3.4552,1.36107 -2.0236,-5.18954 -2.3123,-22.24518 -0.4831,-28.5374 2.0788,-7.15082 3.7976,-7.58497 1.9584,-0.49467 -0.7444,2.86986 -1.3355,6.13236 -1.3135,7.25 0.033,1.6572 0.3318,1.47864 1.6216,-0.96793 4.1639,-7.89837 10.2965,-10.70091 17.2915,-7.90206 9.4402,3.77719 15.7258,16.9208 14.8226,30.99476 l -0.4754,7.407302 h 2.7908 c 3.8039,0 4.6435,1.79536 1.1998,2.56561 -5.3777,1.20284 -11.2076,3.68481 -12.8073,5.45245 -1.514,1.67303 -1.3774,1.85884 2.2011,2.9938 7.6847,2.4373 12.0389,5.69768 13.813,10.34292 1.4549,3.80958 1.5259,5.6411 0.5533,14.25814 -1.2718,11.26779 -3.0118,16.71145 -7.6725,24.00447 -6.3135,9.87928 -17.2757,17.3282 -31.2535,21.23691 -4.0562,1.13428 -7.4795,2.19359 -7.6071,2.35401 -0.1277,0.16043 -2.1599,4.02963 -4.5159,8.59823 -7.2432,14.04525 -17.3691,18.95561 -30.502,14.79131 z m 14.5,-4.91808 c 3.026,-1.56232 2.8332,-3.84335 -0.7214,-8.53588 -2.6157,-3.4531 -7.5867,-6.14389 -11.3501,-6.14389 -1.9984,0 -1.9362,0.22725 0.9679,3.5348 4.8358,5.50769 3.6507,6.14244 -1.9936,1.06776 -6.8985,-6.20236 -17.1009,-9.15326 -23.2662,-6.72942 -1.5982,0.62832 -1.029,1.45318 4,5.797 11.5205,9.95076 25.3211,14.64555 32.3634,11.00963 z m 53.3998,-78.33341 c 6.704,-3.19691 1.7229,-6.73033 -8.3998,-5.95856 -7.959,0.6068 -12.7126,2.20656 -14.0649,4.73342 -0.8364,1.56284 -0.6049,2.09093 1.2711,2.89964 3.3245,1.43309 16.9314,0.35802 21.1936,-1.6745 z m -1.7971,-19.95525 5.6416,-3.60889 -0.4568,-7.641112 c -1.1046,-18.47343 -14.4441,-31.3717 -23.1004,-22.33639 -1.4779,1.54259 -2.6871,3.00834 -2.6871,3.2572 0,0.24887 1.9633,0.29634 4.3629,0.10549 3.727,-0.29642 4.8836,0.11015 7.9351,2.7894 4.889,4.29262 7.0444,10.32399 6.5371,18.29228 -0.2883,4.52725 -1.0555,7.251632 -2.6874,9.543452 -1.2562,1.7641 -2.037,3.20746 -1.7352,3.20746 0.3017,0 3.0874,-1.624 6.1902,-3.60889 z m -7.6027,-21.867282 c 0,-2.96731 -1.3698,-3.89883 -4.5569,-3.09892 -2.8306,0.71043 -3.2543,3.62107 -0.8737,6.00168 2.1267,2.12667 5.4306,0.36066 5.4306,-2.90276 z m -358,107.867002 c 0,-2.41221 5.254,-9.3644 11.45,-15.1507 6.3877,-5.96544 20.0678,-15.05572 21.1016,-14.02186 0.1717,0.17165 -4.3161,4.03087 -9.9728,8.57605 -11.4089,9.16708 -16.4999,14.11143 -13.0788,12.70196 3.5785,-1.4743 14.9301,-5.2466 17.75,-5.89857 4.0746,-0.94206 3.3343,0.79156 -1,2.34166 -2.0625,0.73763 -8.8125,3.72183 -15,6.63155 -6.1875,2.90973 -11.25,5.07868 -11.25,4.81991 z m 47,-2.65418 c 0,-5.73023 13.9166,-21.288 27.3383,-30.56224 7.5047,-5.18564 22.3959,-12.77356 23.2979,-11.87158 0.2472,0.24727 -3.2822,2.83797 -7.8433,5.75712 -12.5853,8.05471 -22.855,16.18256 -29.7211,23.52242 -3.4086,3.64387 -5.986,6.83675 -5.7275,7.0953 0.2586,0.25854 3.224,-0.89625 6.5898,-2.5662 9.3052,-4.61683 30.3316,-11.00185 27.5659,-8.37088 -0.55,0.52321 -5.95,3.11544 -12,5.76051 -6.05,2.64508 -14.9285,6.76441 -19.73,9.15407 -4.8015,2.38965 -8.964,4.34483 -9.25,4.34483 -0.286,0 -0.52,-1.01851 -0.52,-2.26335 z m -32,-33.45795 c 0,-4.09595 17.4025,-20.73505 26.8235,-25.64681 4.028,-2.10001 7.5325,-3.60923 7.7879,-3.35381 0.2554,0.25541 -3.4901,3.41878 -8.3235,7.02971 -8.7264,6.51937 -20.604,17.71142 -18.7537,17.67123 0.5312,-0.0115 4.7908,-1.15416 9.4658,-2.53915 13.8219,-4.0948 36,-6.89858 36,-4.55116 0,0.48879 -1.6875,1.18055 -3.75,1.53724 -15.5693,2.69256 -26.7239,5.14598 -33.1861,7.29915 -4.1601,1.38615 -9.4764,3.11854 -11.8139,3.84975 l -4.25,1.32949 z m 232,-24.83392 c -11.0432,-3.52293 -21.5827,-4.74834 -30.3507,-3.52883 -4.0208,0.55923 -8.1231,1.32863 -9.1164,1.70977 -1.2934,0.49634 -1.6741,0.29307 -1.3417,-0.71637 0.2553,-0.77514 2.7751,-2.24726 5.5996,-3.27138 l 5.1355,-1.86203 -2.0288,-3.97677 c -2.4708,-4.84312 -3.5244,-15.84124 -2.0405,-21.299172 0.5981,-2.2 2.5625,-6.45884 4.3652,-9.46409 11.8357,-19.73033 41.6909,-14.6475 48.1024,8.18938 1.9165,6.826612 2.9553,15.881572 2.0828,18.155402 -1.0125,2.63858 -2.3731,0.0247 -2.3921,-4.59574 -0.036,-8.679432 -6.1632,-19.942182 -13.335,-24.510822 -3.4813,-2.21768 -5.3638,-2.6723 -11.2572,-2.71857 -6.1852,-0.0486 -7.6939,0.32578 -11.9736,2.97088 -6.9753,4.31114 -10.5768,10.52047 -11.2065,19.320772 -0.6074,8.48997 1.8124,17.15279 4.7913,17.15279 1.7591,0 1.7242,-0.32106 -0.5706,-5.25 -4.0961,-8.79809 -2.9234,-17.001412 3.2739,-22.902452 4.5232,-4.30697 8.9144,-5.92603 13.9911,-5.15868 6.0901,0.92052 10.2423,4.05274 12.8789,9.71525 4.1947,9.008592 2.757,18.635512 -3.6582,24.494882 l -3.1394,2.86741 5.595,2.56147 c 3.0772,1.40881 5.595,3.03637 5.595,3.6168 0,1.35448 -0.1099,1.33617 -9,-1.4999 z m -0.4382,-29.513122 c 1.7091,-1.8885 1.7413,-2.30088 0.3706,-4.74292 -1.9224,-3.42508 -4.2691,-3.85207 -6.8709,-1.25022 -2.5697,2.5697 -2.5796,3.54338 -0.062,6.06148 2.5438,2.543872 4.2135,2.526482 6.5618,-0.0683 z m -177.1526,26.243902 c 2.898,-5.60399 14.4952,-15.19551 23.9186,-19.78201 8.3358,-4.05709 14.5948,-5.69531 13.2121,-3.4581 -0.318,0.51449 -2.9837,2.03674 -5.9238,3.38276 -6.7169,3.07512 -14.9253,8.36998 -20.1161,12.97601 l -4,3.54939 8.2184,-2.88495 c 9.6478,-3.38676 22.9449,-6.24317 26.9203,-5.78287 1.9925,0.23071 -1.0843,1.5629 -10.6693,4.61946 -7.4082,2.36239 -17.1145,5.62489 -21.5696,7.25 -4.4552,1.62511 -8.8542,2.95475 -9.7757,2.95475 -1.5165,0 -1.5369,-0.26788 -0.2149,-2.82444 z m -28.4092,-12.02552 c 0,-1.57049 5.6527,-8.61066 10.5976,-13.19881 6.4897,-6.021542 16.1941,-12.532642 23.7652,-15.945142 6.1973,-2.79326 15.6503,-5.29533 15.6218,-4.13486 -0.01,0.34582 -4.396,2.72115 -9.75,5.2785 -10.9934,5.25101 -18.4325,10.11711 -26.3243,17.219322 -4.1158,3.70409 -4.8121,4.69352 -2.9103,4.13539 11.9944,-3.51988 21.4061,-5.57491 28.0822,-6.13167 10.7914,-0.89997 10.3016,0.89257 -0.8322,3.04558 -12.1128,2.34232 -22.3163,5.16331 -29.2855,8.0966 -6.1227,2.57701 -8.9645,3.09534 -8.9645,1.63509 z m 99.5604,-27.247812 c 0.3732,-0.60378 2.6929,-2.37529 5.155,-3.93669 l 4.4765,-2.83891 -3.5603,-0.66792 c -7.6146,-1.42851 -6.9045,-5.80447 1.5309,-9.43326 l 5.2423,-2.25517 -2.9524,-2.11058 c -4.2323,-3.02557 -8.4524,-7.32311 -8.4524,-8.60753 0,-1.73861 4.6265,-3.05081 10.8151,-3.06748 9.086,-0.0245 9.2182,-0.64935 2.023,-9.56753 -12.9186,-16.01222 -27.573,-18.88604 -39.0881,-7.66539 -4.0387,3.93542 -4.5889,3.77118 -2.2859,-0.68231 3.4202,-6.61397 14.1159,-11.87196 21.687,-10.6613 6.3382,1.01353 12.9671,4.63423 18.4058,10.05323 5.0345,5.01633 15.4431,19.50281 15.4431,21.49345 0,0.85287 -15.9126,1.74731 -20.5,1.1523 -2.3906,-0.31008 5.4686,5.05369 10.246,6.99269 2.8897,1.17285 5.254,2.51114 5.254,2.97397 0,0.46283 -3.0488,1.7495 -6.7752,2.85926 -3.7264,1.10977 -7.6249,2.63901 -8.6633,3.39831 -1.7111,1.25119 -1.2636,1.49837 4.7753,2.63782 3.6647,0.6915 6.6632,1.61767 6.6632,2.05816 0,0.9935 -16.5558,8.97265 -18.6172,8.97265 -0.835,0 -1.1998,-0.487 -0.8224,-1.09777 z m -89.3864,-2.75409 c 1.2793,-1.56852 5.476,-4.89367 9.326,-7.38921 7.1499,-4.63449 18.5,-9.44488 18.5,-7.84064 0,0.48963 -3.2625,2.57391 -7.25,4.63175 -3.9875,2.05783 -8.759,4.76155 -10.6034,6.00826 l -3.3534,2.26675 8.2573,-0.56596 c 6.1016,-0.41822 8.0711,-0.26486 7.5443,0.58747 -0.392,0.63439 -1.9542,1.15344 -3.4714,1.15344 -1.5173,0 -6.1032,0.88941 -10.191,1.97646 -4.0878,1.08706 -8.2541,1.98706 -9.2584,2 -1.6485,0.0213 -1.5998,-0.25387 0.5,-2.82832 z m 155.3753,-16.39814 c 1.2692,-4.17398 7.4663,-13.55656 11.0079,-16.6661 10.6002,-9.30712 26.4428,-11.13305 26.4428,-3.04766 0,2.3974 -2.1955,3.51729 -8.5,4.33575 -7.1177,0.92402 -14.2205,4.72064 -21.7653,11.634 -3.5977,3.2967 -6.8402,5.99401 -7.2054,5.99401 -0.3653,0 -0.3562,-1.0125 0.02,-2.25 z m -150.2993,-16.49651 c -8.2096,-0.23278 -11.25,-0.65937 -11.25,-1.57846 0,-3.61755 21.9813,-12.87409 33.6383,-14.16547 8.6267,-0.95567 8.6617,0.77515 0.06,2.96075 -3.959,1.00594 -10.9549,3.17021 -15.5466,4.80951 -8.872,3.16749 -9.3372,4.67612 -1.4508,4.70487 5.2284,0.0191 14.0893,1.86666 14.8493,3.09624 0.3216,0.52036 -1.5183,0.82634 -4.241,0.70531 -2.645,-0.11756 -9.8716,-0.3573 -16.0591,-0.53275 z m 308.27,-4.40389 c -3.4158,-3.61907 -9.792,-6.79563 -13.7049,-6.82764 -6.9134,-0.0566 -9.9436,-3.7857 -5.9864,-7.36697 3.6681,-3.31953 11.3999,-1.4612 17.5129,4.20917 4.3988,4.08031 8.4696,13.13584 5.9051,13.13584 -0.4143,0 -2.0913,-1.41768 -3.7267,-3.1504 z m -282.77,-37.6416603 c -6.1464,-0.23164 -7.75,-0.6072 -7.75,-1.81507 0,-1.87573 12.0459,-7.58039001 20.7716,-9.83692 7.7307,-1.99923 20.9981,-3.09939 24.8571,-2.0612 2.2804,0.61349 0.4809,1.12432 -8.7438,2.48215 -10.9538,1.61233999 -25.8849,5.65208 -25.8849,7.0034 0,0.33855 4.033,1.1246 8.9622,1.74678 4.9292,0.62218 9.7667,1.61885 10.75,2.21482 1.806,1.0946 -0.3218,1.11926 -22.9622,0.26604 z m 86.25,-13.47096 c -4.125,-2.31828 -13.3093,-6.5558857 -20.4096,-9.4169057 -11.826,-4.76523 -12.6654,-5.26976 -10,-6.01096 1.6003,-0.44501 9.2096,-0.77314 16.9096,-0.72919 12.4525,0.0711 14.9396,0.38589 22.5,2.84779 7.8223,2.54716 16.994,7.23002 16.9982,8.6789057 10e-4,0.33365 -3.5839,-0.66227 -7.9665,-2.2131357 -9.4665,-3.34991 -20.7414,-5.61362 -30.9516,-6.21426 l -7.4199,-0.43649 4.9199,2.13097 c 8.028,3.4772 16.6491,8.4877057 20.9199,12.1585157 5.3182,4.57099999 3.6085,4.32379999 -5.5,-0.79524 z m 41.4732,-10.8273357 c -3.8353,-3.89969 -10.7862,-10.08719 -15.4466,-13.75 -7.5209,-5.91096 -8.1954,-6.6993 -6,-7.01238 7.7111,-1.09969 26.0697,6.65645 35.2692,14.90051 3.1877,2.85665 5.5745,5.41523 5.304,5.68575 -0.2705,0.27052 -3.5971,-1.57251 -7.3924,-4.09562 -7.2708,-4.83363 -17.007,-9.92174 -21.2074,-11.08295 -2.0782,-0.57452 -1.7932,-0.0836 1.689,2.90923 4.8955,4.20761 16.311,17.22001 16.311,18.5927757 0,1.9936 -1.7886,0.70412 -8.5268,-6.1473157 z m 120.9517,0.09036 c 1.1731,-8.0403 1.8041,-23.95413 1.094,-27.58876 l -0.7642,-3.91124 -2.1661,8 c -1.1913,4.4 -2.6975,8.9 -3.3469,10 l -1.1809,2 0.016,-2 c 0.033,-4.0842 5.4924,-25.85647 6.5738,-26.21695 1.8615,-0.6205 3.4637,5.65772 4.0665,15.93414 0.5939,10.12576 -0.7717,20.05297 -3.409,24.78281 -1.3728,2.46199 -1.3863,2.44678 -0.8834,-1 z m -93.0495,-6.14035 c -0.5784,-0.74781 -2.7751,-4.28465 -4.8818,-7.85965 -2.1066,-3.575 -7.6192,-11.82278 -12.2502,-18.32839 -4.631,-6.50561 -8.1697,-12.07869 -7.8638,-12.3846 1.5118,-1.51175 16.0076,6.62505 24.7209,13.87631 5.748,4.78351 17.8995,19.77801 17.8995,22.08728 0,0.59258 -4.3486,-3.53234 -9.6636,-9.1665 -5.315,-5.63416 -12.965,-12.47168 -17,-15.19449 -4.035,-2.7228 -7.3364,-4.73568 -7.3364,-4.47304 0,0.26263 2.3254,3.53885 5.1676,7.28047 5.2144,6.86446 13.2716,22.4854 12.6145,24.45654 -0.2225,0.66748 -0.7482,0.55765 -1.4067,-0.29393 z m -111.8754,-3.55468 c -5.169,-1.19669 -22.0897,-6.58022 -22.8056,-7.25589 -0.9515,-0.89804 3.0163,-2.60395 9.3056,-4.00076 10.687,-2.37352 33.1451,-0.49316 36.3987,3.04758 0.8382,0.91216 0.6235,1.02465 -0.8987,0.47088 -3.2038,-1.16552 -27.6195,-1.82858 -31.9652,-0.86809 l -3.9653,0.8764 7.6604,2.7939 c 4.2132,1.53665 8.1902,3.43226 8.8377,4.21246 1.2042,1.45098 0.9202,1.531 -2.5676,0.72352 z m 45.7179,-20.32199 c -3.4551,-2.14495 -8.9817,-5.33881 -12.2813,-7.09747 -3.2996,-1.75865 -5.8363,-3.68984 -5.6372,-4.29153 0.5948,-1.7973 16.7215,-1.86331 24.3813,-0.0998 10.0573,2.31549 27.0764,11.08208 25.1853,12.97309 -0.2304,0.23042 -4.682,-1.50767 -9.8924,-3.86241 -5.2105,-2.35476 -11.0486,-4.62668 -12.9736,-5.04874 -3.3814,-0.74138 -18,-2.30267 -18,-1.92244 0,0.10287 2.8125,1.97431 6.25,4.15876 6.029,3.83129 12.0767,9.26952 10.1743,9.149 -0.5083,-0.0322 -3.7512,-1.81351 -7.2064,-3.95846 z m 94.7734,-5.91624 c -5.614,-8.19667 -18.2683,-21.53729 -22.6634,-23.8925 -1.3474,-0.72202 -0.5758,1.55819 2.9348,8.67311 4.4772,9.07382 7.3255,17.98105 5.0053,15.65265 -0.5481,-0.55 -3.2344,-5.275 -5.9696,-10.5 -2.7353,-5.225 -6.4393,-12.0875 -8.2313,-15.25 -2.9004,-5.118823 -3.053,-5.750003 -1.3898,-5.750003 6.7178,0 25.9368,17.170273 32.0437,28.627933 3.3585,6.30128 5.5029,11.37207 4.8092,11.37207 -0.2312,0 -3.1737,-4.01997 -6.5389,-8.93326 z m -73.6674,-7.31674 c -3.8359,-4.06298 -12.3239,-16.79728 -12.3239,-18.48932 0,-1.979123 1.619,-1.545673 10.3477,2.7704 8.1635,4.0366 14.5195,8.43501 13.5665,9.38807 -0.2792,0.2792 -4.4241,-1.52554 -9.2109,-4.01055 -4.7868,-2.48501 -8.7033,-4.11814 -8.7033,-3.62918 0,0.48896 1.8421,3.51866 4.0935,6.73266 6.3987,9.13444 7.2011,10.48792 6.2177,10.48792 -0.5054,0 -2.2996,-1.4625 -3.9873,-3.25 z m -184.3557,476.499998 c -0.031,-2.63406 -0.094,-2.66816 -1.5,-0.80887 -1.8708,2.4734 -1.8611,3.55887 0.032,3.55887 0.9774,0 1.4889,-0.95809 1.4682,-2.75 z m 148.0318,2.37554 c 0,-0.20595 -4.8375,-3.69067 -10.75,-7.74383 -12.9504,-8.87779 -29.0046,-24.51121 -35.8206,-34.88171 l -4.9294,-7.5 -0.3106,4.31314 c -0.3574,4.96328 -1.6366,5.08583 -4.774,0.45734 l -2.0846,-3.07534 -2.3055,7.15243 c -1.2681,3.93384 -3.1216,10.003 -4.119,13.48703 l -1.8135,6.3346 4.5296,-4.17526 c 2.4913,-2.29639 4.7422,-3.96265 5.0021,-3.7028 0.2598,0.25985 -0.6627,4.50974 -2.0501,9.44421 -1.3874,4.93446 -2.8211,11.51266 -3.1861,14.6182 l -0.6636,5.64645 h 31.6376 c 17.4008,0 31.6377,-0.16851 31.6377,-0.37446 z m 268.5467,-6.37554 c -0.5712,-5.61871 -2.3379,-15.29864 -5.3222,-29.15975 -0.4986,-2.31626 -0.4317,-2.34877 1.7252,-0.83804 1.2341,0.86444 4.4805,4.64883 7.21407,8.40975 l 4.97017,6.83804 -0.66487,-5 c -1.5216,-11.44265 -7.47027,-30.88361 -13.58807,-44.40782 -1.5943,-3.5243 -2.6956,-6.6109 -2.4474,-6.85909 0.7943,-0.79436 5.8864,3.37173 12.31638,10.07658 3.4375,3.58447 6.25,6.19059 6.25,5.79136 0,-0.82176 -5.16456,-15.9025 -7.14065,-20.85103 -1.23103,-3.0828 -1.56493,-3.25 -6.49063,-3.25 -4.7013,0 -17.8872,-2.07762 -22.5221,-3.54867 -1.6473,-0.52284 -1.7347,-0.28703 -0.8022,2.16557 7.6495,20.11957 14.9556,57.61398 14.9556,76.75082 0,5.11442 0.3,9.59895 0.6666,9.96561 0.3667,0.36667 3.1191,0.66667 6.1165,0.66667 h 5.4499 z m -12.1951,-175 c -1.503,-2.6125 -5.9094,-9.17481 -9.7921,-14.5829 -3.8828,-5.4081 -7.6849,-10.70768 -8.4493,-11.77686 -0.7644,-1.06918 -1.1579,-2.17594 -0.8743,-2.45946 0.7849,-0.78492 11.124,4.03276 16.3059,7.59801 2.5293,1.74019 4.7777,2.98499 4.9965,2.76621 0.6334,-0.63338 -5.2904,-11.44946 -12.072,-22.04197 -6.1334,-9.57999 -6.266,-9.70775 -7.7405,-7.4574 -0.8251,1.25927 -4.8793,5.9701 -9.0093,10.46852 -8.8177,9.60425 -11.7668,15.984 -9.1997,19.90183 3.6726,5.60518 20.1758,16.82054 29.4832,20.03648 9.1875,3.17453 9.5159,3.04775 6.3516,-2.45246 z m -18.1455,-189.750002 c 8.6126,-8.84206 12.2523,-19.20064 11.5583,-32.89448 -0.836,-16.49544031 -7.6103,-27.818466 -18.2453,-30.496376 -10.0348,-2.5268 -16.4497,0.80846 -21.6844,11.2743357 -1.6826,3.36407999 -3.76,6.91118 -4.6164,7.88242 -1.3917,1.57832 -1.3956,1.897 -0.037,3 0.8361,0.67876 2.7624,2.9172203 4.2806,4.9743603 1.5183,2.05714 3.1183,3.51911 3.5557,3.24883 0.4373,-0.27028 1.5177,-2.61209 2.4008,-5.20402 3.6766,-10.79004031 11.5821,-17.2683803 18.6081,-15.2488303 1.9104,0.5491 4.3268,2.17504 5.3698,3.61317999 1.0429,1.43814 1.4929,2.42842001 1,2.20061001 -0.493,-0.22781 -2.1007,-1.01938001 -3.5726,-1.75903001 -5.4899,-2.75867999 -11.2641,0.9743 -15.7727,10.19701031 -1.6702,3.41659 -3.3136,7.6362 -3.6519,9.37689 l -0.6151,3.1649 4.5073,-1.62084 c 3.7688,-1.35523 4.7697,-1.40315 6.108,-0.29246 2.3059,1.91369 1.9987,4.12659 -1.4896,10.73195 l -3.0902,5.85155 2.7508,9.71166 2.7508,9.71166 2.9944,-1.71166 c 1.6469,-0.94141 4.7476,-3.51166 6.8905,-5.71166 z m -15.3666,-20.04705 c 1.4907,-3.27187 1.4668,-4.4567 -0.09,-4.43764 -2.6999,0.0331 -4.0244,1.75537 -3.3663,4.37736 0.8267,3.29419 1.9732,3.31418 3.4557,0.0603 z"
       id="path1" />
  </g>
</svg>
