<?xml version="1.0" encoding="UTF-8" standalone="no"?>
<!-- Created with Inkscape (http://www.inkscape.org/) -->

<svg
   version="1.1"
   id="svg1"
   width="573.22833"
   height="551.83893"
   viewBox="0 0 573.22833 551.83893"
   sodipodi:docname="viber_image_2026-06-13_03-56-14-934.jpg"
   xmlns:inkscape="http://www.inkscape.org/namespaces/inkscape"
   xmlns:sodipodi="http://sodipodi.sourceforge.net/DTD/sodipodi-0.dtd"
   xmlns="http://www.w3.org/2000/svg"
   xmlns:svg="http://www.w3.org/2000/svg">
  <defs
     id="defs1" />
  <sodipodi:namedview
     id="namedview1"
     pagecolor="#ffffff"
     bordercolor="#000000"
     borderopacity="0.25"
     inkscape:showpageshadow="2"
     inkscape:pageopacity="0.0"
     inkscape:pagecheckerboard="0"
     inkscape:deskcolor="#d1d1d1">
    <inkscape:page
       x="0"
       y="0"
       width="573.22833"
       height="551.83893"
       id="page2"
       margin="0"
       bleed="0" />
  </sodipodi:namedview>
  <g
     inkscape:groupmode="layer"
     inkscape:label="Image"
     id="g1"
     transform="translate(791.49225,-152.32863)">
    <path
       style="fill:#000000"
       d="m -517.69575,700.34823 c -21.56692,-11.26446 -62.13933,-38.51416 -87.53845,-58.79355 -56.02099,-44.72879 -105.038,-97.79737 -134.43969,-145.55201 -8.63017,-14.01725 -21.73239,-39.65412 -27.88845,-54.5688 -9.02527,-21.86612 -17.24159,-51.44953 -19.71913,-71 -0.45304,-3.575 -1.28126,-9.2 -1.84048,-12.5 -3.2746,-19.32366 -3.13938,-51.22077 0.30099,-71 1.90054,-10.92653 8.20687,-31.4596 12.59234,-41 1.76974,-3.85 3.57149,-7.92084 4.00387,-9.0463 1.21598,-3.16511 11.56289,-19.95457 16.19625,-26.28094 6.67786,-9.1179 22.57314,-24.19189 32.28168,-30.61372 20.10043,-13.29566 36.91576,-20.09816 62.01262,-25.08669 11.01006,-2.18848 15.64198,-2.57959 30.25971,-2.55507 14.8919,0.025 18.85432,0.38659 28.88319,2.63588 33.01721,7.40515 61.82215,22.73399 83.39035,44.37703 5.7933,5.81339 11.1354,12.03231 11.8713,13.81981 0.736,1.7875 1.621,3.23759 1.9668,3.22242 0.3457,-0.0152 2.4286,-2.73434 4.6286,-6.0426 15.4624,-23.2516 55.2171,-46.93469 93.0156,-55.4122 10.1005,-2.26536 13.9258,-2.60773 29.3008,-2.62246 15.1401,-0.0145 19.5057,0.35546 30.3515,2.5721 19.9176,4.07075 29.1619,7.12859 43.8321,14.4989 17.1912,8.63681 30.7583,18.98249 43,32.78998 6.8405,7.71547 17.4892,22.89026 20.8479,29.70926 6.283,12.75583 10.1697,21.89366 12.1371,28.5346 1.222,4.125 2.8021,9.3 3.5113,11.5 5.5216,17.1288 8.0144,50.31863 5.4827,73 -4.164,37.30524 -12.4434,71.26402 -23.5129,96.44078 -1.9064,4.33577 -3.4661,8.11104 -3.4661,8.38947 0,0.88589 -11.7997,24.92209 -15.4158,31.40205 -25.0087,44.8161 -65.6726,93.25801 -113.6157,135.34752 -33.6521,29.54338 -60.7889,49.78808 -95.2857,71.0855 -29.7761,18.38302 -34.1124,19.55566 -47.1443,12.74904 z m 10.4615,-13.77841 v -9.86405 l -9.3107,-4.50137 c -14.29556,-6.91131 -35.70793,-20.32931 -62.24725,-39.00705 -9.34752,-6.57857 -35.81706,-27.23874 -46.942,-36.63947 -53.94737,-45.58629 -100.69804,-98.2664 -125.94538,-141.91917 -2.6387,-4.56233 -5.02282,-8.06998 -5.29803,-7.79476 -1.25102,1.25102 17.59835,36.59765 28.70886,53.8353 8.34928,12.95367 32.49089,44.51381 38.0593,49.75462 0.29219,0.275 5.75793,6.35 12.1461,13.5 31.88231,35.68452 78.66485,75.93654 120.39912,103.59225 11.28434,7.4777 34.20708,21.90775 34.80128,21.90775 0.2126,0 3.002,1.575 6.1988,3.5 9.1311,5.4985 9.4299,5.29683 9.4299,-6.36405 z m 15.9624,4.89084 c 1.5655,-1.11473 3.168,-2.02679 3.5611,-2.02679 1.5978,0 38.1975,-23.68471 53.6624,-34.72641 63.5199,-45.35227 127.0646,-111.46787 159.8082,-166.27359 9.8565,-16.49771 21.7888,-40.55047 20.671,-41.66822 -0.2045,-0.20453 -2.5276,3.34964 -5.1625,7.89817 -23.8146,41.11111 -66.1062,89.99476 -114.5026,132.35012 -37.6202,32.92435 -87.1176,68.19907 -117.3402,83.62346 -5.5879,2.85183 -10.3701,5.34556 -10.6272,5.54162 -0.5845,0.44565 -0.8947,18.48447 -0.3354,19.49592 0.5133,0.92814 6.4882,-1.5248 10.2652,-4.21428 z m -3.695,-26.16834 c 13.7355,-7.64914 33.7686,-20.27745 46.5396,-29.33724 6.2188,-4.41167 12.9748,-9.14621 15.0133,-10.52121 12.4338,-8.3866 42.2803,-32.42562 60.1363,-48.43505 22.3529,-20.04128 52.627,-50.7973 66.5649,-67.6245 12.7883,-15.43941 28.7893,-36.97333 34.1364,-45.94045 1.1479,-1.925 4.648,-7.72764 7.7781,-12.89475 16.7336,-27.6237 29.9823,-61.31321 35.4347,-90.10525 7.1146,-37.56925 4.138,-71.84972 -9.2042,-106 -6.2054,-15.88329 -9.5427,-22.36831 -17.3503,-33.71447 -24.7018,-35.89743 -65.5611,-58.05956 -112.9877,-61.28465 -20.5928,-1.40034 -32.4669,0.17291 -53.4875,7.0868 -25.9415,8.53246 -50.2871,23.32581 -69.2912,42.10407 -6.5726,6.49454 -12.6952,11.80825 -13.6058,11.80825 -0.9106,0 -5.658,-4.09568 -10.5498,-9.10151 -23.79094,-24.34557 -48.29187,-38.39291 -85.39415,-48.95979 -9.37462,-2.66992 -35.01474,-3.74867 -49.23589,-2.07148 -23.55709,2.77824 -48.62893,11.91315 -67.66287,24.65293 -11.80853,7.90367 -18.14957,13.57887 -27.08305,24.2392 -20.79829,24.81861 -33.54769,55.83184 -38.08259,92.63688 -1.47311,11.9557 -0.70621,38.77167 1.5088,52.75787 5.21086,32.90271 18.13576,66.50275 38.02298,98.8459 3.21276,5.225 6.335,10.4 6.9383,11.5 3.43632,6.26539 22.71422,31.92227 34.54165,45.97134 42.64561,50.65604 109.60776,107.55878 170.05344,144.50711 10.97428,6.70823 25.94948,14.94224 27.26658,14.99235 0.422,0.0161 4.922,-2.2845 10,-5.11235 z m -22.7674,-37.12709 c -60.07623,-35.08351 -121.80159,-86.33195 -161.53463,-134.11669 -6.30593,-7.58379 -14.5465,-17.91205 -18.31239,-22.95169 -6.65931,-8.91172 -20.62133,-29.64453 -21.9961,-32.66298 -0.37575,-0.825 -2.05276,-3.75 -3.72669,-6.5 -10.96035,-18.00612 -22.93367,-49.91717 -27.45792,-73.18031 -10.7144,-55.09211 10.19927,-112.30893 49.58985,-135.67073 19.12528,-11.34284 33.39151,-15.5503 52.93793,-15.6127 22.37756,-0.0714 47.63046,7.4681 71.5,21.34714 18.54699,10.78423 42.70624,31.79932 63.05585,54.84959 8.9142,10.09717 9.4165,10.03563 19.6667,-2.40971 31.3594,-38.07519 74.6763,-65.58639 114.0539,-72.43727 11.4374,-1.98988 32.0718,-1.41187 41.7235,1.16876 47.1985,12.61962 78.8609,55.8587 81.6597,111.51678 1.9282,38.34438 -13.3674,86.47093 -40.4992,127.42845 -35.3184,53.31571 -87.2653,105.59412 -146.6605,147.59652 -32.1235,22.71672 -55.8164,36.90797 -61.6014,36.89708 -2.284,-0.004 -6.35,-1.73002 -12.3986,-5.26224 z m 27.7798,-9.58423 c 14.7339,-9.17266 18.7918,-11.88202 35.3722,-23.6174 52.948,-37.4758 95.6335,-76.85388 128.485,-118.52973 15.8111,-20.05818 29.7342,-46.8613 38.3426,-73.81297 9.3841,-29.38025 9.9393,-65.53979 1.4041,-91.44597 -11.7143,-35.55525 -31.6605,-59.01318 -60.9984,-71.73771 -29.0766,-12.61124 -60.2372,-9.97447 -96.3513,8.15314 -11.302,5.67308 -16.4931,9.9173 -36.8456,30.12487 -9.85,9.77976 -19.2645,18.48233 -20.9212,19.33906 -2.7409,1.41735 -3.3998,1.40967 -7.3143,-0.0853 -2.762,-1.05482 -5.896,-3.50301 -8.7548,-6.83905 -2.449,-2.85786 -8.8954,-9.53027 -14.32537,-14.82759 -22.55879,-22.00767 -29.98823,-27.03968 -52.03258,-35.24197 -29.96188,-11.14825 -53.37482,-11.38497 -77.84267,-0.78704 -24.63993,10.67247 -40.00125,25.05789 -52.8331,49.47661 -5.6383,10.72957 -11.92733,30.01296 -13.75772,42.18389 -1.86672,12.41252 -1.69111,33.67848 0.38864,47.0632 5.20264,33.4829 22.57444,71.70747 46.02623,101.27525 19.93819,25.13786 60.79277,66.07212 82.88428,83.04592 19.05634,14.64176 45.16132,34.0299 54.76905,40.6769 11.81867,8.17662 37.92084,24.396 39.30494,24.42333 0.4288,0.008 7.1788,-3.96839 15,-8.83747 z M -733.89363,383.68387 c -6.8348,-34.3916 -2.52645,-67.89224 12.55538,-97.6274 10.12452,-19.96138 21.36326,-32.65856 39.0886,-44.16107 25.72741,-16.6953 54.10493,-21.37491 84.51545,-13.93706 6.17934,1.51136 0.88646,-1.4811 -9.51126,-5.37741 -15.53453,-5.82122 -25.03605,-7.56174 -41.48874,-7.60006 -15.99442,-0.0373 -21.42269,1.10009 -35.91097,7.52413 -12.60731,5.59002 -20.02277,10.66843 -28.75285,19.6911 -31.09869,32.14097 -40.69152,80.55113 -26.20388,132.23777 3.22008,11.48805 6.68483,21 7.64932,21 0.21675,0 -0.65673,-5.2875 -1.94105,-11.75 z m 462.66748,-6.90805 c 5.6073,-18.52151 7.1968,-29.02259 7.2417,-47.84195 0.045,-18.88255 -1.6131,-29.73991 -6.6786,-43.73358 -8.588,-23.72471 -20.7592,-40.95326 -37.8618,-53.59415 -8.8073,-6.50963 -26.3842,-13.93904 -37.6079,-15.89616 -17.348,-3.02502 -38.3745,-0.39015 -58.5685,7.33931 -12.6838,4.85485 -12.9717,6.60729 -0.533,3.24416 1.925,-0.52047 8.4853,-1.21486 14.5783,-1.54309 26.9184,-1.45008 50.7168,6.736 74.9519,25.78165 15.0729,11.84533 28.8381,34.07516 36.0779,58.26302 5.3529,17.88397 6.6867,28.5307 6.0933,48.63884 -0.3447,11.6819 -1.1142,20.71128 -2.088,24.5 -3.9993,15.55985 -0.7081,11.69701 4.3947,-5.15805 z m -245.8268,-108.34658 c -11.61591,-12.2978 -33.02286,-30.67485 -43.68125,-37.49868 -18.38692,-11.77187 -33.84576,-18.58385 -57,-25.1172 -10.98723,-3.10023 -14.77271,-5.32707 -16.98659,-9.99247 -3.4576,-7.28636 0.72324,-14.73011 11.13734,-19.8294 4.55056,-2.22819 7.63417,-2.939 14.43108,-3.32654 12.41078,-0.70763 21.21899,1.51372 36.31342,9.15793 20.22722,10.24359 32.61919,19.31099 54.2446,39.69167 9.2506,8.71812 11.7159,10.29783 14.8451,9.51244 1.3748,-0.34504 7.054,-4.93178 12.6205,-10.19276 11.343,-10.72052 26.8573,-23.33708 34.3973,-27.97272 16.0258,-9.85277 26.6877,-15.34507 35.9972,-18.54329 2.5194,-0.86552 8.4419,-1.37606 16,-1.37926 11.2039,-0.005 12.3649,0.18211 17.5,2.81662 10.4768,5.37498 14.4693,11.69637 12.0387,19.0611 -1.593,4.82689 -6.1164,8.0852 -14.0387,10.11232 -21.1624,5.415 -43.9763,15.28162 -59.9265,25.91726 -13.6089,9.07443 -32.841,25.51355 -45.0096,38.4731 -5.7399,6.11298 -10.6899,11.10969 -11,11.10381 -0.3101,-0.006 -5.6573,-5.40316 -11.8826,-11.99393 z m 6.8657,-8.08669 c -2.3188,-15.85846 -6.835,-26.16911 -13.4466,-30.69952 -4.12399,-2.82577 -9.88806,-2.92145 -12.60035,-0.20916 -4.43184,4.43184 -0.94359,14 5.10396,14 3.85649,0 4.77055,-2.44022 2.01341,-5.37507 -2.38115,-2.53461 -1.92208,-3.62493 1.52624,-3.62493 5.67944,0 6.80484,9.42981 1.51949,12.73122 -1.4647,0.91491 -2.80368,1.75274 -2.9755,1.86186 -0.17182,0.10911 4.08626,4.72473 9.46235,10.25692 5.3762,5.53219 9.959,9.87438 10.1841,9.6493 0.225,-0.22507 -0.1291,-4.09085 -0.7871,-8.59062 z m 25.9952,-13.52666 c -5.6965,-4.7933 -3.2158,-13.15677 3.7078,-12.5005 1.8916,0.17929 1.4997,2.09575 -0.8111,3.96694 -4.3959,3.55953 1.7813,7.27028 6.4363,3.86645 2.565,-1.87552 3.2892,-9.052 1.2306,-12.19381 -1.3746,-2.09791 -2.4342,-2.5211 -6.3126,-2.5211 -4.2739,0 -5.0547,0.40862 -9.4051,4.92207 -3.9784,4.12754 -5.2247,6.42783 -7.7205,14.25 -1.637,5.13036 -3.297,12.47793 -3.6889,16.32793 l -0.7126,7 10.1591,-10.27908 10.1592,-10.27909 z m -15.056,-7.37952 c 1.1989,-3.02363 2.6475,-6.06113 3.2193,-6.75 1.367,-1.64725 -0.087,-1.53494 -3.2055,0.2475 -3.2307,1.84683 -7.1921,1.86436 -11.5321,0.051 -1.9073,-0.79691 -3.4679,-1.30915 -3.4679,-1.13829 0,0.17086 1.2908,3.1854 2.8685,6.69897 1.5776,3.51358 3.4343,8.86332 4.1259,11.88832 0.6916,3.025 1.4663,6.175 1.7216,7 0.2552,0.825 1.28,-1.65 2.2773,-5.5 0.9972,-3.85 2.794,-9.47388 3.9929,-12.4975 z m -48.11782,-11.26927 c -3.55501,-12.88965 -9.39285,-19.73975 -17.00723,-19.95624 -3.91135,-0.11121 -7.24047,3.40008 -6.26932,6.61239 1.07983,3.5718 4.56543,6.61062 7.58253,6.61062 3.16267,0 3.87989,-2.31066 1.18529,-3.81863 -1.81298,-1.0146 -1.0347,-3.18137 1.14271,-3.18137 1.77679,0 4.49769,3.86795 4.49769,6.39377 0,1.07181 -0.7091,2.7323 -1.57578,3.68996 -1.46146,1.6149 -1.17656,2.03614 3.92728,5.80656 3.02667,2.23594 5.79187,4.53267 6.14487,5.10384 0.35301,0.57117 1.02997,0.79861 1.50437,0.50541 0.4744,-0.29319 -0.0352,-3.78803 -1.13241,-7.76631 z m 90.37882,2.6723 c 3.4391,-2.52696 6.4291,-4.76571 6.6445,-4.975 0.2154,-0.20929 -0.6772,-1.24606 -1.9836,-2.30394 -2.3415,-1.89598 -2.3509,-1.97478 -0.6579,-5.525 1.1334,-2.37666 2.4032,-3.60159 3.7337,-3.60159 2.0829,0 2.7822,2.4085 1.0161,3.5 -1.9078,1.17908 -1.0287,3.5 1.3257,3.5 2.4267,0 5.895,-3.14491 7.048,-6.3909 1.165,-3.27956 -1.9004,-6.6091 -6.0848,-6.6091 -7.2166,0 -13.0905,6.66119 -16.6938,18.9315 -1.6348,5.56701 -1.9752,8.0685 -1.0979,8.0685 0.2735,0 3.311,-2.06751 6.75,-4.59447 z m -81.4236,-5.4332 c 4.37259,-3.23279 9.38305,-3.58364 14.38274,-1.00713 l 4.29366,2.21271 -4,-4.19776 c -7.38629,-7.75151 -30.46314,-25.98015 -32.88997,-25.98015 -0.27487,0 1.74452,3.25783 4.48753,7.23961 3.24951,4.71703 5.88469,10.11788 7.56275,15.5 1.4165,4.54322 2.76564,8.26039 2.99809,8.26039 0.23245,0 1.65679,-0.91245 3.1652,-2.02767 z m 72.7271,-5.71076 c 2.3927,-7.83595 5.9703,-14.50744 10.6184,-19.80131 1.671,-1.90314 2.5928,-3.46026 2.0485,-3.46026 -2.9715,0 -25.7499,17.59683 -34.1488,26.38068 l -3.4312,3.58853 3.9312,-2.04984 c 4.9269,-2.569 11.6723,-2.12272 14.7724,0.97736 1.1645,1.16444 2.5493,1.97311 3.0775,1.79705 0.5282,-0.17605 1.9376,-3.52055 3.132,-7.43221 z m -109.13346,-4.39555 c -0.33848,-0.54769 -0.32141,-2.56306 0.038,-4.4786 1.081,-5.76221 9.18507,-9.25589 14.66604,-6.32257 5.26078,2.81549 3.57621,-0.56764 -4.12118,-8.27659 -7.04975,-7.06034 -10.02825,-9.24047 -17.45719,-12.77785 -7.39972,-3.52346 -10.00792,-4.27271 -15,-4.30903 -9.86171,-0.0717 -16.54286,4.89005 -16.54286,12.2856 0,10.39754 14.77829,18.32564 21.54545,11.55847 2.97163,-2.97162 3.09384,-4.90616 0.47538,-7.52462 -1.46647,-1.46647 -2.76169,-1.82266 -5,-1.375 -2.2305,0.4461 -3.02083,0.23135 -3.02083,-0.82083 0,-2.30819 2.18259,-3.82727 5.45,-3.7932 8.19047,0.0854 11.68608,10.98596 5.50513,17.16692 -1.67468,1.67468 -2.91218,3.10578 -2.75,3.18022 0.16218,0.0745 3.66987,1.76769 7.79487,3.76277 7.0804,3.42446 9.81405,3.98447 8.41719,1.72431 z m 155.52246,-5.51123 c 0.2418,-0.22043 -0.4837,-1.04752 -1.6122,-1.83796 -5.0788,-3.55738 -5.4429,-12.70766 -0.6554,-16.4735 4.9144,-3.86566 11.7166,-2.10444 9.9231,2.56929 -0.5068,1.32079 -0.8935,1.38467 -2.1366,0.35298 -1.1584,-0.96136 -2.1028,-0.99311 -3.9882,-0.13406 -1.9414,0.88456 -2.4704,1.87413 -2.4704,4.62134 0,2.85969 0.5369,3.77337 2.9504,5.02144 3.7937,1.96179 7.3893,1.93287 11.6601,-0.0938 12.335,-5.8533 10.7885,-21.46486 -2.3984,-24.21313 -8.8302,-1.84027 -17.8251,1.00787 -29.8303,9.44548 -8.905,6.25876 -19.5634,18.58848 -13.6318,15.76938 0.9625,-0.45744 3.9303,-0.83865 6.5951,-0.84712 4.0749,-0.013 5.2274,0.42902 7.25,2.78048 1.6461,1.91371 2.4049,4.01989 2.4049,6.67507 v 3.87916 l 7.75,-3.55713 c 4.2625,-1.95643 7.9479,-3.7375 8.1897,-3.95794 z m -195.93965,-8.70115 c 0,-0.1905 -0.72881,-1.8073 -1.61958,-3.59289 -2.3894,-4.78966 -1.36748,-11.24901 2.55113,-16.1252 3.09367,-3.84966 3.11256,-3.93507 0.86557,-3.91359 -3.26012,0.0312 -10.81451,3.63474 -13.99853,6.67753 -5.99135,5.7256 -4.09881,13.22468 3.96322,15.70404 4.58241,1.40926 8.23819,1.96401 8.23819,1.25011 z m 231.49445,-2.56926 c 5.2923,-2.98686 5.8831,-9.72344 1.2434,-14.17732 -2.8774,-2.76223 -11.5648,-6.88466 -14.535,-6.89729 -2.2324,-0.009 -2.2042,0.10584 1,4.09178 2.8851,3.58892 3.2892,4.8075 3.2333,9.75 -0.035,3.10665 -0.4334,6.69275 -0.8851,7.96911 -0.7906,2.23398 -0.6762,2.29513 3.0638,1.63722 2.1368,-0.3759 5.2327,-1.44397 6.8796,-2.3735 z"
       id="path1" />
  </g>
</svg>
